<svg width="26" height="24" viewBox="0 0 26 24" fill="none" xmlns="http://www.w3.org/2000/svg">
<path d="M15.9047 8.59216H9.77031C9.77031 8.59216 9.77031 8.59216 9.76523 8.59216H8.83594C8.19102 8.59216 7.66797 9.07498 7.66797 9.67029V13.5843C7.66797 14.1797 8.19102 14.6625 8.83594 14.6625H9.76523H15.9047H16.834C17.4789 14.6625 18.002 14.1797 18.002 13.5843V9.67029C18.002 9.07498 17.4789 8.59216 16.834 8.59216H15.9047ZM17.2402 10.7437V12.5062C16.3617 12.5437 15.6457 13.1625 15.534 13.9547H10.1359C10.0242 13.1625 9.3082 12.5437 8.42969 12.5062V10.7437C9.3082 10.7062 10.0242 10.0875 10.1359 9.29529H15.534C15.6457 10.0875 16.3617 10.7062 17.2402 10.7437ZM8.83594 9.29529H9.36406C9.2625 9.69841 8.88672 10.0031 8.42969 10.0406V9.67029C8.42969 9.46404 8.6125 9.29529 8.83594 9.29529ZM8.42969 13.5797V13.2093C8.88672 13.2422 9.2625 13.5515 9.36406 13.9547H8.83594C8.6125 13.9547 8.42969 13.7859 8.42969 13.5797ZM16.8391 13.9547H16.3109C16.4125 13.5515 16.7883 13.2469 17.2453 13.2093V13.5797C17.2402 13.7859 17.0625 13.9547 16.8391 13.9547ZM17.2402 9.6656V10.0359C16.7832 10.0031 16.4074 9.69373 16.3059 9.2906H16.834C17.0625 9.29529 17.2402 9.46404 17.2402 9.6656Z" fill="white"/>
<path d="M12.8374 13.1578C13.7515 13.1578 14.498 12.4687 14.498 11.625C14.498 10.7812 13.7515 10.0922 12.8374 10.0922C11.9234 10.0922 11.1769 10.7812 11.1769 11.625C11.1769 12.4687 11.9183 13.1578 12.8374 13.1578ZM12.8374 10.7953C13.3351 10.7953 13.7363 11.1656 13.7363 11.625C13.7363 12.0844 13.3351 12.4547 12.8374 12.4547C12.3398 12.4547 11.9386 12.0844 11.9386 11.625C11.9386 11.1656 12.3398 10.7953 12.8374 10.7953Z" fill="white"/>
<path d="M13.005 19.8844C15.2851 19.8844 17.4281 19.0641 19.0429 17.5734C20.541 16.1906 21.4246 14.3531 21.5312 12.3984C21.5414 12.2062 21.3789 12.0375 21.1707 12.0281C20.9625 12.0187 20.7796 12.1687 20.7695 12.3609C20.673 14.1375 19.8656 15.8109 18.4996 17.0719C17.032 18.4266 15.0769 19.1766 13 19.1766C10.923 19.1766 8.96792 18.4312 7.50034 17.0719C4.4687 14.2734 4.4687 9.71718 7.50034 6.91874C10.0851 4.5328 14.107 4.13436 17.164 5.92968L16.3058 6.89999L18.7687 6.6703L18.5199 4.39686L17.6515 5.38124C14.2847 3.35624 9.82104 3.7828 6.96206 6.42186C3.63081 9.49686 3.63081 14.4937 6.96206 17.5687C8.58198 19.0641 10.725 19.8844 13.005 19.8844Z" fill="white"/>
</svg>
