<svg width="18" height="18" viewBox="0 0 18 18" fill="none" xmlns="http://www.w3.org/2000/svg">
<path d="M12.4916 0.666687H5.50829C2.47496 0.666687 0.666626 2.47502 0.666626 5.50835V12.4834C0.666626 15.525 2.47496 17.3334 5.50829 17.3334H12.4833C15.5166 17.3334 17.325 15.525 17.325 12.4917V5.50835C17.3333 2.47502 15.525 0.666687 12.4916 0.666687ZM14.8333 12.75H14H11.6333C11.35 13.9417 10.275 14.8334 8.99996 14.8334C7.72496 14.8334 6.64996 13.9417 6.36663 12.75H3.99996H3.16663C2.82496 12.75 2.54163 12.4667 2.54163 12.125C2.54163 11.7834 2.82496 11.5 3.16663 11.5H3.37496V11.0834V10.6667V8.16669V5.45835C3.37496 4.19169 4.39996 3.16669 5.66663 3.16669H12.3333C13.6 3.16669 14.625 4.19169 14.625 5.45835V8.16669V10.6667V11.0834V11.5H14.8333C15.175 11.5 15.4583 11.7834 15.4583 12.125C15.4583 12.4667 15.175 12.75 14.8333 12.75Z" fill="#292D32"/>
</svg>
