<svg width="18" height="12" viewBox="0 0 18 12" fill="none" xmlns="http://www.w3.org/2000/svg">
<g clip-path="url(#clip0_391_303)">
<path d="M0.999822 11.7498C0.829822 11.7498 0.649822 11.6898 0.509822 11.5698C0.199822 11.2998 0.159822 10.8298 0.429822 10.5098L5.01982 5.14982C5.51982 4.56982 6.23982 4.21982 6.99982 4.18982C7.75982 4.16982 8.50982 4.44982 9.04982 4.98982L9.99982 5.93982C10.2498 6.18982 10.5698 6.30982 10.9298 6.30982C11.2798 6.29982 11.5998 6.13982 11.8298 5.86982L16.4198 0.509822C16.6898 0.199822 17.1598 0.159822 17.4798 0.429822C17.7898 0.699822 17.8298 1.16982 17.5598 1.48982L12.9698 6.84982C12.4698 7.42982 11.7498 7.77982 10.9898 7.80982C10.2198 7.82982 9.47982 7.54982 8.93982 7.00982L7.99982 6.05982C7.74982 5.80982 7.41982 5.67982 7.06982 5.68982C6.71982 5.69982 6.39982 5.85982 6.16982 6.12982L1.57982 11.4898C1.41982 11.6598 1.20982 11.7498 0.999822 11.7498Z" fill="#008753"/>
</g>
<defs>
<clipPath id="clip0_391_303">
<rect width="18" height="12" fill="white"/>
</clipPath>
</defs>
</svg>
