<svg width="410" height="556" viewBox="0 0 410 556" fill="none" xmlns="http://www.w3.org/2000/svg">
<g filter="url(#filter0_d_391_301)">
<rect x="10" y="8" width="390" height="536" fill="white"/>
</g>
<path d="M57.7354 47.9387H55.5195C55.4342 47.4653 55.2756 47.0486 55.0436 46.6887C54.8116 46.3289 54.5275 46.0235 54.1913 45.7726C53.8552 45.5216 53.4787 45.3322 53.0621 45.2044C52.6501 45.0765 52.2122 45.0126 51.7482 45.0126C50.9101 45.0126 50.1596 45.2233 49.4967 45.6447C48.8386 46.0661 48.3178 46.684 47.9342 47.4984C47.5554 48.3128 47.3661 49.3071 47.3661 50.4814C47.3661 51.6651 47.5554 52.6641 47.9342 53.4785C48.3178 54.2929 48.841 54.9084 49.5038 55.3251C50.1667 55.7418 50.9125 55.9501 51.7411 55.9501C52.2003 55.9501 52.6359 55.8886 53.0479 55.7655C53.4645 55.6376 53.841 55.4506 54.1771 55.2044C54.5133 54.9582 54.7974 54.6575 55.0294 54.3024C55.2662 53.9425 55.4295 53.5306 55.5195 53.0666L57.7354 53.0737C57.617 53.7887 57.3874 54.4468 57.0465 55.0481C56.7103 55.6447 56.277 56.1608 55.7467 56.5964C55.2212 57.0273 54.6198 57.3611 53.9428 57.5978C53.2657 57.8346 52.527 57.953 51.7269 57.953C50.4674 57.953 49.3452 57.6547 48.3604 57.0581C47.3755 56.4567 46.599 55.5974 46.0308 54.4799C45.4674 53.3625 45.1857 52.0297 45.1857 50.4814C45.1857 48.9283 45.4697 47.5955 46.0379 46.4828C46.6061 45.3654 47.3826 44.5084 48.3675 43.9118C49.3523 43.3104 50.4721 43.0098 51.7269 43.0098C52.4986 43.0098 53.2183 43.121 53.8859 43.3436C54.5583 43.5614 55.162 43.8834 55.697 44.3095C56.2321 44.7309 56.6748 45.247 57.0251 45.8578C57.3755 46.4638 57.6123 47.1575 57.7354 47.9387ZM67.1015 53.2299V46.845H69.2322V57.7541H67.1441V55.8649H67.0305C66.7795 56.4473 66.3771 56.9326 65.8231 57.3209C65.2738 57.7044 64.5897 57.8961 63.7705 57.8961C63.0698 57.8961 62.4495 57.7423 61.9097 57.4345C61.3747 57.122 60.9533 56.6603 60.6455 56.0495C60.3425 55.4387 60.191 54.6835 60.191 53.7839V46.845H62.3146V53.5282C62.3146 54.2716 62.5205 54.8635 62.9325 55.3038C63.3444 55.7441 63.8794 55.9643 64.5376 55.9643C64.9353 55.9643 65.3307 55.8649 65.7237 55.666C66.1214 55.4672 66.4505 55.1665 66.7109 54.764C66.976 54.3616 67.1062 53.8502 67.1015 53.2299ZM72.0855 57.7541V46.845H74.1381V48.578H74.2517C74.4506 47.9908 74.801 47.5292 75.3028 47.193C75.8095 46.8521 76.3824 46.6816 77.0216 46.6816C77.1542 46.6816 77.3104 46.6864 77.4903 46.6959C77.675 46.7053 77.8194 46.7172 77.9236 46.7314V48.7626C77.8384 48.7389 77.6868 48.7129 77.469 48.6845C77.2512 48.6513 77.0334 48.6348 76.8156 48.6348C76.3137 48.6348 75.8663 48.7413 75.4733 48.9544C75.085 49.1627 74.7773 49.4539 74.55 49.828C74.3227 50.1973 74.2091 50.6187 74.2091 51.0922V57.7541H72.0855ZM79.7613 57.7541V46.845H81.8139V48.578H81.9275C82.1264 47.9908 82.4767 47.5292 82.9786 47.193C83.4853 46.8521 84.0582 46.6816 84.6974 46.6816C84.83 46.6816 84.9862 46.6864 85.1661 46.6959C85.3508 46.7053 85.4952 46.7172 85.5994 46.7314V48.7626C85.5141 48.7389 85.3626 48.7129 85.1448 48.6845C84.927 48.6513 84.7092 48.6348 84.4914 48.6348C83.9895 48.6348 83.5421 48.7413 83.1491 48.9544C82.7608 49.1627 82.4531 49.4539 82.2258 49.828C81.9985 50.1973 81.8849 50.6187 81.8849 51.0922V57.7541H79.7613ZM91.7482 57.9743C90.6733 57.9743 89.7477 57.7446 88.9712 57.2853C88.1994 56.8213 87.6028 56.1703 87.1814 55.3322C86.7647 54.4894 86.5564 53.5022 86.5564 52.3706C86.5564 51.2531 86.7647 50.2683 87.1814 49.416C87.6028 48.5637 88.1899 47.8985 88.9428 47.4203C89.7003 46.9421 90.5858 46.703 91.599 46.703C92.2145 46.703 92.8111 46.8048 93.3888 47.0084C93.9664 47.2119 94.4849 47.5316 94.9442 47.9672C95.4035 48.4028 95.7657 48.9686 96.0308 49.6646C96.296 50.3559 96.4286 51.1963 96.4286 52.1859V52.9387H87.7567V51.3478H94.3476C94.3476 50.7891 94.234 50.2943 94.0067 49.8635C93.7794 49.4279 93.4598 49.0846 93.0479 48.8336C92.6407 48.5827 92.1625 48.4572 91.6132 48.4572C91.0166 48.4572 90.4958 48.604 90.0507 48.8976C89.6104 49.1864 89.2695 49.5652 89.028 50.0339C88.7912 50.4979 88.6729 51.0022 88.6729 51.5467V52.7896C88.6729 53.5188 88.8007 54.139 89.0564 54.6504C89.3168 55.1618 89.679 55.5524 90.143 55.8223C90.6071 56.0874 91.1492 56.22 91.7695 56.22C92.1719 56.22 92.5389 56.1632 92.8703 56.0495C93.2018 55.9312 93.4882 55.756 93.7297 55.524C93.9712 55.292 94.1558 55.0055 94.2837 54.6646L96.2936 55.0268C96.1326 55.6187 95.8438 56.1371 95.4271 56.5822C95.0152 57.0226 94.4967 57.3658 93.8717 57.612C93.2515 57.8535 92.5436 57.9743 91.7482 57.9743ZM100.908 51.2768V57.7541H98.7847V46.845H100.823V48.6206H100.958C101.209 48.0429 101.602 47.5789 102.137 47.2285C102.677 46.8781 103.356 46.703 104.175 46.703C104.919 46.703 105.57 46.8592 106.128 47.1717C106.687 47.4795 107.12 47.9387 107.428 48.5495C107.736 49.1603 107.89 49.9155 107.89 50.8152V57.7541H105.766V51.0709C105.766 50.2801 105.56 49.6622 105.148 49.2172C104.736 48.7673 104.171 48.5424 103.451 48.5424C102.959 48.5424 102.521 48.649 102.137 48.862C101.758 49.0751 101.458 49.3876 101.235 49.7995C101.017 50.2067 100.908 50.6992 100.908 51.2768ZM115.333 57.9743C114.277 57.9743 113.368 57.7351 112.606 57.2569C111.848 56.774 111.266 56.1087 110.859 55.2612C110.451 54.4137 110.248 53.443 110.248 52.3493C110.248 51.2413 110.456 50.2636 110.873 49.416C111.289 48.5637 111.877 47.8985 112.634 47.4203C113.392 46.9421 114.284 46.703 115.312 46.703C116.14 46.703 116.879 46.8568 117.528 47.1646C118.176 47.4676 118.7 47.8938 119.097 48.443C119.5 48.9923 119.739 49.6338 119.815 50.3677H117.748C117.634 49.8564 117.374 49.416 116.967 49.0467C116.564 48.6774 116.024 48.4927 115.347 48.4927C114.755 48.4927 114.237 48.649 113.792 48.9615C113.351 49.2692 113.008 49.7096 112.762 50.2825C112.516 50.8507 112.393 51.523 112.393 52.2995C112.393 53.095 112.513 53.7816 112.755 54.3592C112.996 54.9369 113.337 55.3843 113.778 55.7015C114.223 56.0188 114.746 56.1774 115.347 56.1774C115.75 56.1774 116.114 56.104 116.441 55.9572C116.772 55.8057 117.049 55.5903 117.272 55.3109C117.499 55.0316 117.658 54.6954 117.748 54.3024H119.815C119.739 55.0079 119.509 55.6376 119.126 56.1916C118.742 56.7456 118.228 57.1812 117.584 57.4984C116.945 57.8156 116.195 57.9743 115.333 57.9743ZM122.086 57.7541V46.845H124.209V57.7541H122.086ZM123.158 45.1618C122.789 45.1618 122.471 45.0387 122.206 44.7924C121.946 44.5415 121.816 44.2432 121.816 43.8976C121.816 43.5472 121.946 43.2489 122.206 43.0027C122.471 42.7517 122.789 42.6262 123.158 42.6262C123.527 42.6262 123.842 42.7517 124.103 43.0027C124.368 43.2489 124.5 43.5472 124.5 43.8976C124.5 44.2432 124.368 44.5415 124.103 44.7924C123.842 45.0387 123.527 45.1618 123.158 45.1618ZM131.768 57.9743C130.693 57.9743 129.767 57.7446 128.991 57.2853C128.219 56.8213 127.622 56.1703 127.201 55.3322C126.784 54.4894 126.576 53.5022 126.576 52.3706C126.576 51.2531 126.784 50.2683 127.201 49.416C127.622 48.5637 128.209 47.8985 128.962 47.4203C129.72 46.9421 130.605 46.703 131.619 46.703C132.234 46.703 132.831 46.8048 133.408 47.0084C133.986 47.2119 134.504 47.5316 134.964 47.9672C135.423 48.4028 135.785 48.9686 136.05 49.6646C136.316 50.3559 136.448 51.1963 136.448 52.1859V52.9387H127.776V51.3478H134.367C134.367 50.7891 134.253 50.2943 134.026 49.8635C133.799 49.4279 133.479 49.0846 133.067 48.8336C132.66 48.5827 132.182 48.4572 131.633 48.4572C131.036 48.4572 130.515 48.604 130.07 48.8976C129.63 49.1864 129.289 49.5652 129.048 50.0339C128.811 50.4979 128.692 51.0022 128.692 51.5467V52.7896C128.692 53.5188 128.82 54.139 129.076 54.6504C129.336 55.1618 129.699 55.5524 130.163 55.8223C130.627 56.0874 131.169 56.22 131.789 56.22C132.191 56.22 132.558 56.1632 132.89 56.0495C133.221 55.9312 133.508 55.756 133.749 55.524C133.991 55.292 134.175 55.0055 134.303 54.6646L136.313 55.0268C136.152 55.6187 135.863 56.1371 135.447 56.5822C135.035 57.0226 134.516 57.3658 133.891 57.612C133.271 57.8535 132.563 57.9743 131.768 57.9743ZM146.979 49.5084L145.054 49.8493C144.974 49.603 144.846 49.3687 144.671 49.1461C144.5 48.9236 144.268 48.7413 143.975 48.5993C143.681 48.4572 143.314 48.3862 142.874 48.3862C142.273 48.3862 141.771 48.5211 141.368 48.791C140.966 49.0562 140.764 49.3994 140.764 49.8209C140.764 50.1854 140.899 50.479 141.169 50.7015C141.439 50.9241 141.875 51.1064 142.476 51.2484L144.209 51.6461C145.213 51.8781 145.961 52.2356 146.453 52.7186C146.946 53.2015 147.192 53.8289 147.192 54.6007C147.192 55.2541 147.003 55.8365 146.624 56.3478C146.25 56.8545 145.727 57.2522 145.054 57.541C144.387 57.8298 143.613 57.9743 142.732 57.9743C141.51 57.9743 140.514 57.7138 139.742 57.193C138.97 56.6674 138.497 55.9217 138.321 54.9558L140.374 54.6433C140.502 55.1783 140.764 55.5832 141.162 55.8578C141.56 56.1277 142.078 56.2626 142.718 56.2626C143.414 56.2626 143.97 56.1182 144.387 55.8294C144.803 55.5358 145.012 55.1783 145.012 54.7569C145.012 54.416 144.884 54.1296 144.628 53.8976C144.377 53.6655 143.991 53.4904 143.47 53.372L141.624 52.9672C140.606 52.7351 139.853 52.3658 139.365 51.8592C138.882 51.3526 138.641 50.711 138.641 49.9345C138.641 49.2905 138.821 48.7271 139.181 48.2441C139.541 47.7612 140.038 47.3848 140.672 47.1149C141.307 46.8403 142.033 46.703 142.853 46.703C144.032 46.703 144.96 46.9586 145.637 47.47C146.314 47.9766 146.761 48.6561 146.979 49.5084ZM154.99 57.7541V43.2086H160.175C161.307 43.2086 162.244 43.4146 162.988 43.8265C163.731 44.2385 164.287 44.8019 164.657 45.5169C165.026 46.2271 165.211 47.0273 165.211 47.9174C165.211 48.8123 165.023 49.6173 164.649 50.3322C164.28 51.0424 163.721 51.6059 162.973 52.0226C162.23 52.4345 161.295 52.6405 160.168 52.6405H156.603V50.7797H159.969C160.684 50.7797 161.264 50.6566 161.709 50.4103C162.154 50.1594 162.481 49.8185 162.689 49.3876C162.898 48.9567 163.002 48.4667 163.002 47.9174C163.002 47.3682 162.898 46.8805 162.689 46.4544C162.481 46.0282 162.152 45.6944 161.702 45.453C161.257 45.2115 160.67 45.0907 159.941 45.0907H157.185V57.7541H154.99ZM167.613 57.7541V46.845H169.665V48.578H169.779C169.978 47.9908 170.328 47.5292 170.83 47.193C171.337 46.8521 171.91 46.6816 172.549 46.6816C172.682 46.6816 172.838 46.6864 173.018 46.6959C173.202 46.7053 173.347 46.7172 173.451 46.7314V48.7626C173.366 48.7389 173.214 48.7129 172.996 48.6845C172.779 48.6513 172.561 48.6348 172.343 48.6348C171.841 48.6348 171.394 48.7413 171.001 48.9544C170.612 49.1627 170.305 49.4539 170.077 49.828C169.85 50.1973 169.736 50.6187 169.736 51.0922V57.7541H167.613ZM179.493 57.9743C178.47 57.9743 177.578 57.7399 176.816 57.2711C176.053 56.8024 175.461 56.1466 175.04 55.3038C174.619 54.461 174.408 53.4762 174.408 52.3493C174.408 51.2176 174.619 50.228 175.04 49.3805C175.461 48.533 176.053 47.8748 176.816 47.4061C177.578 46.9373 178.47 46.703 179.493 46.703C180.516 46.703 181.408 46.9373 182.171 47.4061C182.933 47.8748 183.525 48.533 183.946 49.3805C184.368 50.228 184.578 51.2176 184.578 52.3493C184.578 53.4762 184.368 54.461 183.946 55.3038C183.525 56.1466 182.933 56.8024 182.171 57.2711C181.408 57.7399 180.516 57.9743 179.493 57.9743ZM179.5 56.1916C180.163 56.1916 180.712 56.0164 181.148 55.666C181.584 55.3156 181.906 54.8493 182.114 54.2669C182.327 53.6845 182.434 53.0429 182.434 52.3422C182.434 51.6461 182.327 51.0069 182.114 50.4245C181.906 49.8374 181.584 49.3663 181.148 49.0112C180.712 48.6561 180.163 48.4785 179.5 48.4785C178.833 48.4785 178.279 48.6561 177.838 49.0112C177.403 49.3663 177.078 49.8374 176.865 50.4245C176.657 51.0069 176.553 51.6461 176.553 52.3422C176.553 53.0429 176.657 53.6845 176.865 54.2669C177.078 54.8493 177.403 55.3156 177.838 55.666C178.279 56.0164 178.833 56.1916 179.5 56.1916ZM191.544 57.9743C190.488 57.9743 189.579 57.7351 188.817 57.2569C188.059 56.774 187.477 56.1087 187.07 55.2612C186.662 54.4137 186.459 53.443 186.459 52.3493C186.459 51.2413 186.667 50.2636 187.084 49.416C187.5 48.5637 188.088 47.8985 188.845 47.4203C189.603 46.9421 190.495 46.703 191.523 46.703C192.351 46.703 193.09 46.8568 193.739 47.1646C194.387 47.4676 194.91 47.8938 195.308 48.443C195.711 48.9923 195.95 49.6338 196.026 50.3677H193.959C193.845 49.8564 193.585 49.416 193.177 49.0467C192.775 48.6774 192.235 48.4927 191.558 48.4927C190.966 48.4927 190.448 48.649 190.003 48.9615C189.562 49.2692 189.219 49.7096 188.973 50.2825C188.727 50.8507 188.604 51.523 188.604 52.2995C188.604 53.095 188.724 53.7816 188.966 54.3592C189.207 54.9369 189.548 55.3843 189.989 55.7015C190.434 56.0188 190.957 56.1774 191.558 56.1774C191.961 56.1774 192.325 56.104 192.652 55.9572C192.983 55.8057 193.26 55.5903 193.483 55.3109C193.71 55.0316 193.869 54.6954 193.959 54.3024H196.026C195.95 55.0079 195.72 55.6376 195.337 56.1916C194.953 56.7456 194.439 57.1812 193.795 57.4984C193.156 57.8156 192.406 57.9743 191.544 57.9743ZM202.998 57.9743C201.923 57.9743 200.998 57.7446 200.221 57.2853C199.449 56.8213 198.853 56.1703 198.431 55.3322C198.015 54.4894 197.806 53.5022 197.806 52.3706C197.806 51.2531 198.015 50.2683 198.431 49.416C198.853 48.5637 199.44 47.8985 200.193 47.4203C200.95 46.9421 201.836 46.703 202.849 46.703C203.465 46.703 204.061 46.8048 204.639 47.0084C205.216 47.2119 205.735 47.5316 206.194 47.9672C206.653 48.4028 207.016 48.9686 207.281 49.6646C207.546 50.3559 207.679 51.1963 207.679 52.1859V52.9387H199.007V51.3478H205.598C205.598 50.7891 205.484 50.2943 205.257 49.8635C205.029 49.4279 204.71 49.0846 204.298 48.8336C203.891 48.5827 203.412 48.4572 202.863 48.4572C202.267 48.4572 201.746 48.604 201.301 48.8976C200.86 49.1864 200.519 49.5652 200.278 50.0339C200.041 50.4979 199.923 51.0022 199.923 51.5467V52.7896C199.923 53.5188 200.051 54.139 200.306 54.6504C200.567 55.1618 200.929 55.5524 201.393 55.8223C201.857 56.0874 202.399 56.22 203.019 56.22C203.422 56.22 203.789 56.1632 204.12 56.0495C204.452 55.9312 204.738 55.756 204.98 55.524C205.221 55.292 205.406 55.0055 205.534 54.6646L207.544 55.0268C207.383 55.6187 207.094 56.1371 206.677 56.5822C206.265 57.0226 205.747 57.3658 205.122 57.612C204.501 57.8535 203.794 57.9743 202.998 57.9743ZM218.209 49.5084L216.285 49.8493C216.204 49.603 216.076 49.3687 215.901 49.1461C215.731 48.9236 215.499 48.7413 215.205 48.5993C214.912 48.4572 214.545 48.3862 214.104 48.3862C213.503 48.3862 213.001 48.5211 212.599 48.791C212.196 49.0562 211.995 49.3994 211.995 49.8209C211.995 50.1854 212.13 50.479 212.4 50.7015C212.67 50.9241 213.105 51.1064 213.707 51.2484L215.44 51.6461C216.443 51.8781 217.191 52.2356 217.684 52.7186C218.176 53.2015 218.423 53.8289 218.423 54.6007C218.423 55.2541 218.233 55.8365 217.854 56.3478C217.48 56.8545 216.957 57.2522 216.285 57.541C215.617 57.8298 214.843 57.9743 213.962 57.9743C212.741 57.9743 211.744 57.7138 210.972 57.193C210.2 56.6674 209.727 55.9217 209.552 54.9558L211.604 54.6433C211.732 55.1783 211.995 55.5832 212.393 55.8578C212.79 56.1277 213.309 56.2626 213.948 56.2626C214.644 56.2626 215.2 56.1182 215.617 55.8294C216.034 55.5358 216.242 55.1783 216.242 54.7569C216.242 54.416 216.114 54.1296 215.859 53.8976C215.608 53.6655 215.222 53.4904 214.701 53.372L212.854 52.9672C211.836 52.7351 211.084 52.3658 210.596 51.8592C210.113 51.3526 209.871 50.711 209.871 49.9345C209.871 49.2905 210.051 48.7271 210.411 48.2441C210.771 47.7612 211.268 47.3848 211.903 47.1149C212.537 46.8403 213.264 46.703 214.083 46.703C215.262 46.703 216.19 46.9586 216.867 47.47C217.544 47.9766 217.992 48.6561 218.209 49.5084ZM228.932 49.5084L227.007 49.8493C226.927 49.603 226.799 49.3687 226.624 49.1461C226.453 48.9236 226.221 48.7413 225.928 48.5993C225.634 48.4572 225.267 48.3862 224.827 48.3862C224.226 48.3862 223.724 48.5211 223.321 48.791C222.919 49.0562 222.718 49.3994 222.718 49.8209C222.718 50.1854 222.853 50.479 223.122 50.7015C223.392 50.9241 223.828 51.1064 224.429 51.2484L226.162 51.6461C227.166 51.8781 227.914 52.2356 228.407 52.7186C228.899 53.2015 229.145 53.8289 229.145 54.6007C229.145 55.2541 228.956 55.8365 228.577 56.3478C228.203 56.8545 227.68 57.2522 227.007 57.541C226.34 57.8298 225.566 57.9743 224.685 57.9743C223.463 57.9743 222.467 57.7138 221.695 57.193C220.923 56.6674 220.45 55.9217 220.274 54.9558L222.327 54.6433C222.455 55.1783 222.718 55.5832 223.115 55.8578C223.513 56.1277 224.032 56.2626 224.671 56.2626C225.367 56.2626 225.923 56.1182 226.34 55.8294C226.756 55.5358 226.965 55.1783 226.965 54.7569C226.965 54.416 226.837 54.1296 226.581 53.8976C226.33 53.6655 225.944 53.4904 225.424 53.372L223.577 52.9672C222.559 52.7351 221.806 52.3658 221.318 51.8592C220.836 51.3526 220.594 50.711 220.594 49.9345C220.594 49.2905 220.774 48.7271 221.134 48.2441C221.494 47.7612 221.991 47.3848 222.625 47.1149C223.26 46.8403 223.987 46.703 224.806 46.703C225.985 46.703 226.913 46.9586 227.59 47.47C228.267 47.9766 228.714 48.6561 228.932 49.5084ZM236.182 57.9743C235.107 57.9743 234.181 57.7446 233.405 57.2853C232.633 56.8213 232.036 56.1703 231.615 55.3322C231.198 54.4894 230.99 53.5022 230.99 52.3706C230.99 51.2531 231.198 50.2683 231.615 49.416C232.036 48.5637 232.624 47.8985 233.376 47.4203C234.134 46.9421 235.019 46.703 236.033 46.703C236.648 46.703 237.245 46.8048 237.822 47.0084C238.4 47.2119 238.918 47.5316 239.378 47.9672C239.837 48.4028 240.199 48.9686 240.464 49.6646C240.73 50.3559 240.862 51.1963 240.862 52.1859V52.9387H232.19V51.3478H238.781C238.781 50.7891 238.668 50.2943 238.44 49.8635C238.213 49.4279 237.893 49.0846 237.481 48.8336C237.074 48.5827 236.596 48.4572 236.047 48.4572C235.45 48.4572 234.929 48.604 234.484 48.8976C234.044 49.1864 233.703 49.5652 233.462 50.0339C233.225 50.4979 233.106 51.0022 233.106 51.5467V52.7896C233.106 53.5188 233.234 54.139 233.49 54.6504C233.75 55.1618 234.113 55.5524 234.577 55.8223C235.041 56.0874 235.583 56.22 236.203 56.22C236.606 56.22 236.972 56.1632 237.304 56.0495C237.635 55.9312 237.922 55.756 238.163 55.524C238.405 55.292 238.589 55.0055 238.717 54.6646L240.727 55.0268C240.566 55.6187 240.277 56.1371 239.861 56.5822C239.449 57.0226 238.93 57.3658 238.305 57.612C237.685 57.8535 236.977 57.9743 236.182 57.9743ZM247.302 57.9672C246.421 57.9672 245.635 57.7423 244.944 57.2924C244.258 56.8379 243.718 56.1916 243.325 55.3535C242.937 54.5107 242.742 53.4998 242.742 52.3209C242.742 51.1419 242.939 50.1334 243.332 49.2953C243.73 48.4572 244.274 47.8156 244.965 47.3706C245.657 46.9255 246.44 46.703 247.316 46.703C247.993 46.703 248.538 46.8166 248.95 47.0439C249.367 47.2664 249.688 47.5268 249.916 47.8251C250.148 48.1234 250.328 48.3862 250.456 48.6135H250.583V43.2086H252.707V57.7541H250.633V56.0566H250.456C250.328 56.2887 250.143 56.5538 249.902 56.8521C249.665 57.1504 249.338 57.4108 248.921 57.6334C248.505 57.8559 247.965 57.9672 247.302 57.9672ZM247.771 56.1561C248.382 56.1561 248.898 55.9951 249.319 55.6731C249.745 55.3464 250.067 54.8942 250.285 54.3166C250.508 53.7389 250.619 53.0666 250.619 52.2995C250.619 51.542 250.51 50.8791 250.292 50.3109C250.074 49.7427 249.755 49.3 249.333 48.9828C248.912 48.6655 248.391 48.5069 247.771 48.5069C247.132 48.5069 246.599 48.6726 246.173 49.0041C245.747 49.3355 245.425 49.7877 245.207 50.3606C244.994 50.9335 244.887 51.5798 244.887 52.2995C244.887 53.0287 244.996 53.6845 245.214 54.2669C245.432 54.8493 245.754 55.3109 246.18 55.6518C246.611 55.988 247.141 56.1561 247.771 56.1561Z" fill="black"/>
<path d="M45.1132 124.344V115.617H48.0621C48.7467 115.617 49.3064 115.741 49.7411 115.988C50.1786 116.232 50.5024 116.563 50.7126 116.981C50.9229 117.398 51.028 117.864 51.028 118.378C51.028 118.893 50.9229 119.36 50.7126 119.78C50.5053 120.201 50.1842 120.536 49.7496 120.786C49.3149 121.033 48.7581 121.157 48.0791 121.157H45.9655V120.219H48.045C48.5138 120.219 48.8902 120.138 49.1743 119.976C49.4584 119.814 49.6644 119.596 49.7922 119.32C49.9229 119.042 49.9882 118.728 49.9882 118.378C49.9882 118.029 49.9229 117.716 49.7922 117.441C49.6644 117.165 49.457 116.949 49.17 116.793C48.8831 116.634 48.5024 116.554 48.028 116.554H46.17V124.344H45.1132ZM54.5202 124.498C54.1054 124.498 53.729 124.42 53.3909 124.263C53.0528 124.104 52.7844 123.876 52.5855 123.577C52.3867 123.276 52.2872 122.912 52.2872 122.486C52.2872 122.111 52.3611 121.807 52.5088 121.574C52.6565 121.339 52.854 121.154 53.1011 121.02C53.3483 120.887 53.621 120.787 53.9193 120.722C54.2205 120.654 54.523 120.6 54.827 120.56C55.2247 120.509 55.5472 120.471 55.7943 120.445C56.0443 120.417 56.2261 120.37 56.3398 120.304C56.4563 120.239 56.5145 120.126 56.5145 119.964V119.929C56.5145 119.509 56.3994 119.182 56.1693 118.949C55.9421 118.716 55.5969 118.6 55.1338 118.6C54.6537 118.6 54.2773 118.705 54.0046 118.915C53.7318 119.126 53.5401 119.35 53.4293 119.589L52.4747 119.248C52.6452 118.85 52.8724 118.54 53.1565 118.319C53.4435 118.094 53.756 117.938 54.094 117.85C54.4349 117.759 54.7702 117.714 55.0997 117.714C55.3099 117.714 55.5514 117.739 55.8242 117.79C56.0997 117.839 56.3653 117.939 56.621 118.093C56.8795 118.246 57.094 118.478 57.2645 118.787C57.4349 119.097 57.5202 119.512 57.5202 120.032V124.344H56.5145V123.458H56.4634C56.3952 123.6 56.2815 123.752 56.1224 123.914C55.9634 124.076 55.7517 124.214 55.4875 124.327C55.2233 124.441 54.9009 124.498 54.5202 124.498ZM54.6736 123.594C55.0713 123.594 55.4065 123.516 55.6793 123.36C55.9548 123.204 56.1622 123.002 56.3014 122.755C56.4435 122.508 56.5145 122.248 56.5145 121.975V121.054C56.4719 121.106 56.3781 121.153 56.2332 121.195C56.0912 121.235 55.9264 121.27 55.7389 121.302C55.5543 121.33 55.3739 121.356 55.1977 121.378C55.0244 121.398 54.8838 121.415 54.7759 121.429C54.5145 121.464 54.2702 121.519 54.0429 121.596C53.8185 121.67 53.6367 121.782 53.4974 121.932C53.3611 122.08 53.2929 122.282 53.2929 122.537C53.2929 122.887 53.4222 123.151 53.6807 123.33C53.942 123.506 54.273 123.594 54.6736 123.594ZM59.7691 126.799C59.5987 126.799 59.4467 126.785 59.3131 126.756C59.1796 126.731 59.0873 126.705 59.0362 126.679L59.2918 125.793C59.5362 125.856 59.7521 125.878 59.9396 125.861C60.1271 125.844 60.2933 125.76 60.4381 125.61C60.5859 125.462 60.7208 125.222 60.843 124.89L61.0305 124.378L58.61 117.799H59.7009L61.5077 123.015H61.5759L63.3827 117.799H64.4737L61.6952 125.299C61.5702 125.637 61.4154 125.917 61.2308 126.138C61.0461 126.363 60.8316 126.529 60.5873 126.637C60.3458 126.745 60.0731 126.799 59.7691 126.799ZM65.8011 124.344V117.799H66.7727V118.822H66.8579C66.9943 118.472 67.2144 118.201 67.5184 118.008C67.8224 117.812 68.1874 117.714 68.6136 117.714C69.0454 117.714 69.4048 117.812 69.6917 118.008C69.9815 118.201 70.2073 118.472 70.3693 118.822H70.4374C70.605 118.483 70.8565 118.215 71.1917 118.016C71.5269 117.814 71.9289 117.714 72.3977 117.714C72.9829 117.714 73.4616 117.897 73.8337 118.263C74.2059 118.627 74.392 119.194 74.392 119.964V124.344H73.3863V119.964C73.3863 119.481 73.2542 119.135 72.99 118.928C72.7258 118.721 72.4147 118.617 72.0568 118.617C71.5965 118.617 71.24 118.756 70.9871 119.035C70.7343 119.31 70.6079 119.66 70.6079 120.083V124.344H69.5852V119.861C69.5852 119.489 69.4644 119.189 69.2229 118.962C68.9815 118.732 68.6704 118.617 68.2897 118.617C68.0283 118.617 67.784 118.687 67.5568 118.826C67.3323 118.965 67.1505 119.158 67.0113 119.405C66.8749 119.65 66.8068 119.932 66.8068 120.253V124.344H65.8011ZM78.9751 124.481C78.3444 124.481 77.8004 124.341 77.343 124.063C76.8884 123.782 76.5376 123.39 76.2904 122.887C76.0461 122.381 75.9239 121.793 75.9239 121.123C75.9239 120.452 76.0461 119.861 76.2904 119.35C76.5376 118.836 76.8813 118.435 77.3217 118.148C77.7648 117.858 78.2819 117.714 78.8728 117.714C79.2137 117.714 79.5504 117.77 79.8827 117.884C80.2151 117.998 80.5177 118.182 80.7904 118.438C81.0631 118.691 81.2805 119.026 81.4424 119.444C81.6043 119.861 81.6853 120.376 81.6853 120.986V121.412H76.6398V120.543H80.6626C80.6626 120.174 80.5887 119.844 80.441 119.554C80.2961 119.265 80.0887 119.036 79.8188 118.868C79.5518 118.701 79.2364 118.617 78.8728 118.617C78.4722 118.617 78.1256 118.716 77.833 118.915C77.5433 119.111 77.3202 119.367 77.164 119.682C77.0077 119.998 76.9296 120.336 76.9296 120.697V121.276C76.9296 121.77 77.0148 122.189 77.1853 122.533C77.3586 122.874 77.5987 123.134 77.9055 123.313C78.2123 123.489 78.5688 123.577 78.9751 123.577C79.2393 123.577 79.4779 123.54 79.691 123.466C79.9069 123.39 80.093 123.276 80.2492 123.126C80.4055 122.972 80.5262 122.782 80.6114 122.554L81.583 122.827C81.4808 123.157 81.3089 123.447 81.0674 123.697C80.8259 123.944 80.5276 124.137 80.1725 124.276C79.8174 124.412 79.4183 124.481 78.9751 124.481ZM84.2208 120.407V124.344H83.2151V117.799H84.1867V118.822H84.272C84.4254 118.489 84.6583 118.222 84.9708 118.02C85.2833 117.816 85.6867 117.714 86.181 117.714C86.6242 117.714 87.012 117.804 87.3444 117.986C87.6768 118.165 87.9353 118.438 88.12 118.804C88.3046 119.168 88.397 119.628 88.397 120.185V124.344H87.3913V120.253C87.3913 119.739 87.2577 119.339 86.9907 119.052C86.7237 118.762 86.3572 118.617 85.8913 118.617C85.5702 118.617 85.2833 118.687 85.0305 118.826C84.7805 118.965 84.583 119.168 84.4381 119.435C84.2933 119.702 84.2208 120.026 84.2208 120.407ZM93.0813 117.799V118.651H89.6892V117.799H93.0813ZM90.6778 116.231H91.6835V122.469C91.6835 122.753 91.7247 122.966 91.8071 123.108C91.8923 123.248 92.0003 123.341 92.131 123.39C92.2645 123.435 92.4051 123.458 92.5528 123.458C92.6636 123.458 92.7546 123.452 92.8256 123.441C92.8966 123.427 92.9534 123.415 92.996 123.407L93.2006 124.31C93.1324 124.336 93.0372 124.361 92.9151 124.387C92.7929 124.415 92.6381 124.429 92.4506 124.429C92.1665 124.429 91.8881 124.368 91.6153 124.246C91.3455 124.124 91.121 123.938 90.942 123.688C90.7659 123.438 90.6778 123.123 90.6778 122.742V116.231ZM99.1132 119.265L98.2098 119.52C98.153 119.37 98.0692 119.224 97.9584 119.081C97.8504 118.937 97.7027 118.817 97.5152 118.724C97.3277 118.63 97.0876 118.583 96.795 118.583C96.3945 118.583 96.0607 118.675 95.7936 118.86C95.5294 119.042 95.3973 119.273 95.3973 119.554C95.3973 119.804 95.4882 120.002 95.67 120.147C95.8519 120.292 96.1359 120.412 96.5223 120.509L97.4939 120.748C98.0791 120.89 98.5152 121.107 98.8021 121.4C99.0891 121.689 99.2325 122.063 99.2325 122.52C99.2325 122.895 99.1246 123.231 98.9087 123.526C98.6956 123.822 98.3973 124.054 98.0138 124.225C97.6303 124.395 97.1842 124.481 96.6757 124.481C96.0081 124.481 95.4555 124.336 95.018 124.046C94.5805 123.756 94.3036 123.333 94.1871 122.776L95.1416 122.537C95.2325 122.89 95.4044 123.154 95.6572 123.33C95.9129 123.506 96.2467 123.594 96.6587 123.594C97.1274 123.594 97.4996 123.495 97.7751 123.296C98.0536 123.094 98.1928 122.853 98.1928 122.572C98.1928 122.344 98.1132 122.154 97.9541 122.001C97.795 121.844 97.5507 121.728 97.2212 121.651L96.1303 121.395C95.5308 121.253 95.0905 121.033 94.8092 120.735C94.5308 120.434 94.3916 120.057 94.3916 119.606C94.3916 119.236 94.4953 118.91 94.7027 118.626C94.9129 118.341 95.1984 118.118 95.5592 117.956C95.9229 117.795 96.3348 117.714 96.795 117.714C97.4428 117.714 97.9513 117.856 98.3206 118.14C98.6928 118.424 98.957 118.799 99.1132 119.265ZM104.616 124.344H103.508L106.712 115.617H107.803L111.008 124.344H109.9L107.292 116.998H107.224L104.616 124.344ZM105.025 120.935H109.491V121.873H105.025V120.935ZM113.236 120.407V124.344H112.231V117.799H113.202V118.822H113.288C113.441 118.489 113.674 118.222 113.986 118.02C114.299 117.816 114.702 117.714 115.197 117.714C115.64 117.714 116.028 117.804 116.36 117.986C116.692 118.165 116.951 118.438 117.136 118.804C117.32 119.168 117.413 119.628 117.413 120.185V124.344H116.407V120.253C116.407 119.739 116.273 119.339 116.006 119.052C115.739 118.762 115.373 118.617 114.907 118.617C114.586 118.617 114.299 118.687 114.046 118.826C113.796 118.965 113.599 119.168 113.454 119.435C113.309 119.702 113.236 120.026 113.236 120.407ZM121.176 124.498C120.762 124.498 120.385 124.42 120.047 124.263C119.709 124.104 119.441 123.876 119.242 123.577C119.043 123.276 118.943 122.912 118.943 122.486C118.943 122.111 119.017 121.807 119.165 121.574C119.313 121.339 119.51 121.154 119.757 121.02C120.005 120.887 120.277 120.787 120.576 120.722C120.877 120.654 121.179 120.6 121.483 120.56C121.881 120.509 122.203 120.471 122.451 120.445C122.701 120.417 122.882 120.37 122.996 120.304C123.113 120.239 123.171 120.126 123.171 119.964V119.929C123.171 119.509 123.056 119.182 122.826 118.949C122.598 118.716 122.253 118.6 121.79 118.6C121.31 118.6 120.934 118.705 120.661 118.915C120.388 119.126 120.196 119.35 120.086 119.589L119.131 119.248C119.301 118.85 119.529 118.54 119.813 118.319C120.1 118.094 120.412 117.938 120.75 117.85C121.091 117.759 121.426 117.714 121.756 117.714C121.966 117.714 122.208 117.739 122.48 117.79C122.756 117.839 123.022 117.939 123.277 118.093C123.536 118.246 123.75 118.478 123.921 118.787C124.091 119.097 124.176 119.512 124.176 120.032V124.344H123.171V123.458H123.12C123.051 123.6 122.938 123.752 122.779 123.914C122.62 124.076 122.408 124.214 122.144 124.327C121.88 124.441 121.557 124.498 121.176 124.498ZM121.33 123.594C121.728 123.594 122.063 123.516 122.336 123.36C122.611 123.204 122.818 123.002 122.958 122.755C123.1 122.508 123.171 122.248 123.171 121.975V121.054C123.128 121.106 123.034 121.153 122.889 121.195C122.747 121.235 122.583 121.27 122.395 121.302C122.211 121.33 122.03 121.356 121.854 121.378C121.681 121.398 121.54 121.415 121.432 121.429C121.171 121.464 120.926 121.519 120.699 121.596C120.475 121.67 120.293 121.782 120.154 121.932C120.017 122.08 119.949 122.282 119.949 122.537C119.949 122.887 120.078 123.151 120.337 123.33C120.598 123.506 120.929 123.594 121.33 123.594ZM127.018 115.617V124.344H126.012V115.617H127.018ZM129.507 126.799C129.337 126.799 129.185 126.785 129.051 126.756C128.918 126.731 128.826 126.705 128.774 126.679L129.03 125.793C129.274 125.856 129.49 125.878 129.678 125.861C129.865 125.844 130.032 125.76 130.176 125.61C130.324 125.462 130.459 125.222 130.581 124.89L130.769 124.378L128.348 117.799H129.439L131.246 123.015H131.314L133.121 117.799H134.212L131.434 125.299C131.309 125.637 131.154 125.917 130.969 126.138C130.784 126.363 130.57 126.529 130.326 126.637C130.084 126.745 129.811 126.799 129.507 126.799ZM140.176 119.265L139.272 119.52C139.215 119.37 139.132 119.224 139.021 119.081C138.913 118.937 138.765 118.817 138.578 118.724C138.39 118.63 138.15 118.583 137.858 118.583C137.457 118.583 137.123 118.675 136.856 118.86C136.592 119.042 136.46 119.273 136.46 119.554C136.46 119.804 136.551 120.002 136.733 120.147C136.914 120.292 137.198 120.412 137.585 120.509L138.556 120.748C139.142 120.89 139.578 121.107 139.865 121.4C140.152 121.689 140.295 122.063 140.295 122.52C140.295 122.895 140.187 123.231 139.971 123.526C139.758 123.822 139.46 124.054 139.076 124.225C138.693 124.395 138.247 124.481 137.738 124.481C137.071 124.481 136.518 124.336 136.081 124.046C135.643 123.756 135.366 123.333 135.25 122.776L136.204 122.537C136.295 122.89 136.467 123.154 136.72 123.33C136.975 123.506 137.309 123.594 137.721 123.594C138.19 123.594 138.562 123.495 138.838 123.296C139.116 123.094 139.255 122.853 139.255 122.572C139.255 122.344 139.176 122.154 139.017 122.001C138.858 121.844 138.613 121.728 138.284 121.651L137.193 121.395C136.593 121.253 136.153 121.033 135.872 120.735C135.593 120.434 135.454 120.057 135.454 119.606C135.454 119.236 135.558 118.91 135.765 118.626C135.975 118.341 136.261 118.118 136.622 117.956C136.985 117.795 137.397 117.714 137.858 117.714C138.505 117.714 139.014 117.856 139.383 118.14C139.755 118.424 140.019 118.799 140.176 119.265ZM141.809 124.344V117.799H142.815V124.344H141.809ZM142.32 116.708C142.124 116.708 141.955 116.641 141.813 116.508C141.674 116.374 141.604 116.214 141.604 116.026C141.604 115.839 141.674 115.678 141.813 115.545C141.955 115.411 142.124 115.344 142.32 115.344C142.516 115.344 142.684 115.411 142.823 115.545C142.965 115.678 143.036 115.839 143.036 116.026C143.036 116.214 142.965 116.374 142.823 116.508C142.684 116.641 142.516 116.708 142.32 116.708ZM149.293 119.265L148.389 119.52C148.333 119.37 148.249 119.224 148.138 119.081C148.03 118.937 147.882 118.817 147.695 118.724C147.507 118.63 147.267 118.583 146.975 118.583C146.574 118.583 146.24 118.675 145.973 118.86C145.709 119.042 145.577 119.273 145.577 119.554C145.577 119.804 145.668 120.002 145.85 120.147C146.032 120.292 146.316 120.412 146.702 120.509L147.674 120.748C148.259 120.89 148.695 121.107 148.982 121.4C149.269 121.689 149.412 122.063 149.412 122.52C149.412 122.895 149.304 123.231 149.088 123.526C148.875 123.822 148.577 124.054 148.193 124.225C147.81 124.395 147.364 124.481 146.855 124.481C146.188 124.481 145.635 124.336 145.198 124.046C144.76 123.756 144.483 123.333 144.367 122.776L145.321 122.537C145.412 122.89 145.584 123.154 145.837 123.33C146.093 123.506 146.426 123.594 146.838 123.594C147.307 123.594 147.679 123.495 147.955 123.296C148.233 123.094 148.372 122.853 148.372 122.572C148.372 122.344 148.293 122.154 148.134 122.001C147.975 121.844 147.73 121.728 147.401 121.651L146.31 121.395C145.711 121.253 145.27 121.033 144.989 120.735C144.711 120.434 144.571 120.057 144.571 119.606C144.571 119.236 144.675 118.91 144.882 118.626C145.093 118.341 145.378 118.118 145.739 117.956C146.103 117.795 146.514 117.714 146.975 117.714C147.622 117.714 148.131 117.856 148.5 118.14C148.872 118.424 149.137 118.799 149.293 119.265Z" fill="#4F4F4F"/>
<path d="M53.4769 101.221V72.1296H55.3405V101.221H53.4769ZM59.3064 81.1524C59.1852 80.0766 58.6852 79.2433 57.8064 78.6524C56.9276 78.0539 55.8215 77.7546 54.4882 77.7546C53.5337 77.7546 52.7079 77.9062 52.0109 78.2092C51.314 78.5046 50.7723 78.9137 50.3859 79.4365C50.0072 79.9516 49.8178 80.5387 49.8178 81.1978C49.8178 81.7509 49.9465 82.2281 50.2041 82.6296C50.4693 83.0312 50.814 83.3683 51.2382 83.641C51.67 83.9062 52.1322 84.1296 52.6246 84.3115C53.117 84.4857 53.5905 84.6296 54.045 84.7433L56.3178 85.3342C57.0602 85.516 57.8215 85.7622 58.6019 86.0728C59.3822 86.3834 60.1056 86.7925 60.7723 87.3001C61.439 87.8077 61.9769 88.4365 62.3859 89.1865C62.8026 89.9365 63.0109 90.8342 63.0109 91.8796C63.0109 93.1978 62.67 94.3683 61.9882 95.391C61.314 96.4137 60.3329 97.2206 59.045 97.8115C57.7647 98.4024 56.2155 98.6978 54.3973 98.6978C52.6549 98.6978 51.1473 98.4213 49.8746 97.8683C48.6019 97.3153 47.6056 96.5312 46.8859 95.516C46.1662 94.4933 45.7685 93.2812 45.6928 91.8796H49.2155C49.2837 92.7206 49.5564 93.4213 50.0337 93.9819C50.5185 94.5349 51.1359 94.9478 51.8859 95.2206C52.6435 95.4857 53.4731 95.6183 54.3746 95.6183C55.367 95.6183 56.2496 95.463 57.0223 95.1524C57.8026 94.8342 58.4162 94.3948 58.8632 93.8342C59.3102 93.266 59.5337 92.6031 59.5337 91.8456C59.5337 91.1562 59.3367 90.5918 58.9428 90.1524C58.5564 89.713 58.0299 89.3493 57.3632 89.0615C56.7041 88.7736 55.9579 88.5198 55.1246 88.3001L52.3746 87.5501C50.5109 87.0425 49.0337 86.2963 47.9428 85.3115C46.8594 84.3266 46.3178 83.0236 46.3178 81.4024C46.3178 80.0615 46.6814 78.891 47.4087 77.891C48.1359 76.891 49.1208 76.1145 50.3632 75.5615C51.6056 75.0009 53.0072 74.7206 54.5678 74.7206C56.1435 74.7206 57.5337 74.9971 58.7382 75.5501C59.9503 76.1031 60.9049 76.8645 61.6019 77.8342C62.2988 78.7963 62.6625 79.9024 62.6928 81.1524H59.3064ZM75.7183 75.0387V98.3115H72.1956V78.5615H72.0592L66.4911 82.1978V78.8342L72.2979 75.0387H75.7183ZM85.1359 95.1296L84.9655 96.3683C84.8519 97.2774 84.6587 98.2243 84.3859 99.2092C84.1208 100.202 83.8443 101.122 83.5564 101.971C83.2761 102.819 83.045 103.493 82.8632 103.993H80.4541C80.5526 103.524 80.689 102.887 80.8632 102.084C81.0375 101.289 81.2079 100.399 81.3746 99.4137C81.5412 98.4289 81.6662 97.4251 81.7496 96.4024L81.8632 95.1296H85.1359ZM89.8888 98.3115V95.766L97.7638 87.6069C98.6047 86.7206 99.2979 85.944 99.8433 85.2774C100.396 84.6031 100.809 83.963 101.082 83.3569C101.355 82.7509 101.491 82.1069 101.491 81.4251C101.491 80.6524 101.309 79.9857 100.946 79.4251C100.582 78.8569 100.086 78.4213 99.457 78.1183C98.8282 77.8077 98.1198 77.6524 97.332 77.6524C96.4986 77.6524 95.7714 77.8228 95.1501 78.1637C94.5289 78.5046 94.0517 78.9857 93.7183 79.6069C93.385 80.2281 93.2183 80.9554 93.2183 81.7887H89.8661C89.8661 80.3721 90.1918 79.1334 90.8433 78.0728C91.4948 77.0122 92.3888 76.1902 93.5251 75.6069C94.6615 75.016 95.9532 74.7206 97.4001 74.7206C98.8623 74.7206 100.15 75.0122 101.264 75.5956C102.385 76.1713 103.26 76.9592 103.889 77.9592C104.518 78.9516 104.832 80.0728 104.832 81.3228C104.832 82.1865 104.669 83.0312 104.343 83.8569C104.025 84.6827 103.468 85.6031 102.673 86.6183C101.877 87.6259 100.771 88.8493 99.3547 90.2887L94.7297 95.1296V95.3001H105.207V98.3115H89.8888ZM117.616 98.6978C115.821 98.6903 114.287 98.2168 113.014 97.2774C111.741 96.338 110.768 94.9706 110.093 93.1751C109.419 91.3796 109.082 89.2168 109.082 86.6865C109.082 84.1637 109.419 82.0084 110.093 80.2206C110.775 78.4327 111.752 77.069 113.025 76.1296C114.305 75.1902 115.836 74.7206 117.616 74.7206C119.396 74.7206 120.923 75.194 122.196 76.141C123.468 77.0804 124.442 78.444 125.116 80.2319C125.798 82.0122 126.139 84.1637 126.139 86.6865C126.139 89.2243 125.802 91.391 125.127 93.1865C124.453 94.9743 123.48 96.3418 122.207 97.2887C120.934 98.2281 119.404 98.6978 117.616 98.6978ZM117.616 95.6637C119.192 95.6637 120.423 94.8948 121.309 93.3569C122.203 91.819 122.65 89.5956 122.65 86.6865C122.65 84.7546 122.446 83.1221 122.037 81.7887C121.635 80.4478 121.055 79.4327 120.298 78.7433C119.548 78.0463 118.654 77.6978 117.616 77.6978C116.048 77.6978 114.817 78.4706 113.923 80.016C113.029 81.5615 112.578 83.7849 112.571 86.6865C112.571 88.6259 112.771 90.266 113.173 91.6069C113.582 92.9403 114.162 93.9516 114.912 94.641C115.662 95.3228 116.563 95.6637 117.616 95.6637ZM138.272 98.6978C136.477 98.6903 134.943 98.2168 133.67 97.2774C132.397 96.338 131.424 94.9706 130.75 93.1751C130.075 91.3796 129.738 89.2168 129.738 86.6865C129.738 84.1637 130.075 82.0084 130.75 80.2206C131.431 78.4327 132.409 77.069 133.681 76.1296C134.962 75.1902 136.492 74.7206 138.272 74.7206C140.053 74.7206 141.579 75.194 142.852 76.141C144.125 77.0804 145.098 78.444 145.772 80.2319C146.454 82.0122 146.795 84.1637 146.795 86.6865C146.795 89.2243 146.458 91.391 145.784 93.1865C145.109 94.9743 144.136 96.3418 142.863 97.2887C141.59 98.2281 140.06 98.6978 138.272 98.6978ZM138.272 95.6637C139.848 95.6637 141.079 94.8948 141.965 93.3569C142.859 91.819 143.306 89.5956 143.306 86.6865C143.306 84.7546 143.102 83.1221 142.693 81.7887C142.291 80.4478 141.712 79.4327 140.954 78.7433C140.204 78.0463 139.31 77.6978 138.272 77.6978C136.704 77.6978 135.473 78.4706 134.579 80.016C133.685 81.5615 133.234 83.7849 133.227 86.6865C133.227 88.6259 133.428 90.266 133.829 91.6069C134.238 92.9403 134.818 93.9516 135.568 94.641C136.318 95.3228 137.219 95.6637 138.272 95.6637ZM154.448 95.1296L154.278 96.3683C154.164 97.2774 153.971 98.2243 153.698 99.2092C153.433 100.202 153.157 101.122 152.869 101.971C152.589 102.819 152.358 103.493 152.176 103.993H149.767C149.865 103.524 150.001 102.887 150.176 102.084C150.35 101.289 150.52 100.399 150.687 99.4137C150.854 98.4289 150.979 97.4251 151.062 96.4024L151.176 95.1296H154.448ZM166.46 98.6978C164.664 98.6903 163.13 98.2168 161.858 97.2774C160.585 96.338 159.611 94.9706 158.937 93.1751C158.263 91.3796 157.926 89.2168 157.926 86.6865C157.926 84.1637 158.263 82.0084 158.937 80.2206C159.619 78.4327 160.596 77.069 161.869 76.1296C163.149 75.1902 164.68 74.7206 166.46 74.7206C168.24 74.7206 169.767 75.194 171.039 76.141C172.312 77.0804 173.286 78.444 173.96 80.2319C174.642 82.0122 174.983 84.1637 174.983 86.6865C174.983 89.2243 174.645 91.391 173.971 93.1865C173.297 94.9743 172.323 96.3418 171.051 97.2887C169.778 98.2281 168.248 98.6978 166.46 98.6978ZM166.46 95.6637C168.036 95.6637 169.267 94.8948 170.153 93.3569C171.047 91.819 171.494 89.5956 171.494 86.6865C171.494 84.7546 171.289 83.1221 170.88 81.7887C170.479 80.4478 169.899 79.4327 169.142 78.7433C168.392 78.0463 167.498 77.6978 166.46 77.6978C164.892 77.6978 163.661 78.4706 162.767 80.016C161.873 81.5615 161.422 83.7849 161.414 86.6865C161.414 88.6259 161.615 90.266 162.017 91.6069C162.426 92.9403 163.005 93.9516 163.755 94.641C164.505 95.3228 165.407 95.6637 166.46 95.6637ZM187.116 98.6978C185.321 98.6903 183.787 98.2168 182.514 97.2774C181.241 96.338 180.268 94.9706 179.593 93.1751C178.919 91.3796 178.582 89.2168 178.582 86.6865C178.582 84.1637 178.919 82.0084 179.593 80.2206C180.275 78.4327 181.252 77.069 182.525 76.1296C183.805 75.1902 185.336 74.7206 187.116 74.7206C188.896 74.7206 190.423 75.194 191.696 76.141C192.968 77.0804 193.942 78.444 194.616 80.2319C195.298 82.0122 195.639 84.1637 195.639 86.6865C195.639 89.2243 195.302 91.391 194.627 93.1865C193.953 94.9743 192.98 96.3418 191.707 97.2887C190.434 98.2281 188.904 98.6978 187.116 98.6978ZM187.116 95.6637C188.692 95.6637 189.923 94.8948 190.809 93.3569C191.703 91.819 192.15 89.5956 192.15 86.6865C192.15 84.7546 191.946 83.1221 191.537 81.7887C191.135 80.4478 190.555 79.4327 189.798 78.7433C189.048 78.0463 188.154 77.6978 187.116 77.6978C185.548 77.6978 184.317 78.4706 183.423 80.016C182.529 81.5615 182.078 83.7849 182.071 86.6865C182.071 88.6259 182.271 90.266 182.673 91.6069C183.082 92.9403 183.662 93.9516 184.412 94.641C185.162 95.3228 186.063 95.6637 187.116 95.6637ZM207.772 98.6978C205.977 98.6903 204.443 98.2168 203.17 97.2774C201.897 96.338 200.924 94.9706 200.25 93.1751C199.575 91.3796 199.238 89.2168 199.238 86.6865C199.238 84.1637 199.575 82.0084 200.25 80.2206C200.931 78.4327 201.909 77.069 203.181 76.1296C204.462 75.1902 205.992 74.7206 207.772 74.7206C209.553 74.7206 211.079 75.194 212.352 76.141C213.625 77.0804 214.598 78.444 215.272 80.2319C215.954 82.0122 216.295 84.1637 216.295 86.6865C216.295 89.2243 215.958 91.391 215.284 93.1865C214.609 94.9743 213.636 96.3418 212.363 97.2887C211.09 98.2281 209.56 98.6978 207.772 98.6978ZM207.772 95.6637C209.348 95.6637 210.579 94.8948 211.465 93.3569C212.359 91.819 212.806 89.5956 212.806 86.6865C212.806 84.7546 212.602 83.1221 212.193 81.7887C211.791 80.4478 211.212 79.4327 210.454 78.7433C209.704 78.0463 208.81 77.6978 207.772 77.6978C206.204 77.6978 204.973 78.4706 204.079 80.016C203.185 81.5615 202.734 83.7849 202.727 86.6865C202.727 88.6259 202.928 90.266 203.329 91.6069C203.738 92.9403 204.318 93.9516 205.068 94.641C205.818 95.3228 206.719 95.6637 207.772 95.6637ZM227.213 94.4024V79.0387H230.269V94.4024H227.213ZM221.065 88.2433V85.1978H236.429V88.2433H221.065Z" fill="black"/>
<ellipse cx="348.366" cy="51.9344" rx="13.1831" ry="13.1803" fill="#BDBDBD"/>
<rect x="346.169" y="49.0054" width="4.39438" height="11.7158" rx="2.19719" fill="white"/>
<rect x="346.169" y="43.1475" width="4.39438" height="4.39344" rx="2.19672" fill="white"/>
<path d="M10 148.29H400" stroke="#F0F0F0" stroke-width="2"/>
<path d="M68.8816 463.498H70.7267V469.165C70.7267 469.801 70.5748 470.358 70.2708 470.836C69.9696 471.313 69.5478 471.685 69.0051 471.952C68.4625 472.216 67.8304 472.348 67.1088 472.348C66.3844 472.348 65.7509 472.216 65.2083 471.952C64.6657 471.685 64.2438 471.313 63.9426 470.836C63.6415 470.358 63.4909 469.801 63.4909 469.165V463.498H65.3361V469.007C65.3361 469.34 65.4086 469.635 65.5534 469.894C65.7012 470.152 65.9086 470.355 66.1756 470.503C66.4426 470.651 66.7537 470.725 67.1088 470.725C67.4668 470.725 67.7779 470.651 68.0421 470.503C68.3091 470.355 68.5151 470.152 68.66 469.894C68.8077 469.635 68.8816 469.34 68.8816 469.007V463.498ZM76.9792 466.007C76.9451 465.664 76.7988 465.397 76.5403 465.206C76.2818 465.016 75.9309 464.921 75.4877 464.921C75.1866 464.921 74.9324 464.963 74.725 465.049C74.5176 465.131 74.3585 465.246 74.2477 465.394C74.1397 465.542 74.0858 465.709 74.0858 465.897C74.0801 466.053 74.1127 466.189 74.1838 466.306C74.2576 466.422 74.3585 466.523 74.4863 466.608C74.6142 466.691 74.7619 466.763 74.9295 466.826C75.0971 466.885 75.2761 466.936 75.4664 466.979L76.2505 467.167C76.6312 467.252 76.9806 467.365 77.2988 467.507C77.617 467.65 77.8926 467.824 78.1255 468.032C78.3585 468.239 78.5389 468.483 78.6667 468.765C78.7974 469.046 78.8642 469.368 78.867 469.732C78.8642 470.266 78.7278 470.729 78.4579 471.121C78.1909 471.51 77.8045 471.813 77.2988 472.029C76.796 472.242 76.1895 472.348 75.4792 472.348C74.7747 472.348 74.161 472.24 73.6383 472.025C73.1184 471.809 72.7122 471.489 72.4196 471.066C72.1298 470.64 71.9778 470.113 71.9636 469.485H73.7491C73.769 469.777 73.8528 470.022 74.0005 470.218C74.1511 470.411 74.3514 470.557 74.6014 470.657C74.8542 470.753 75.1397 470.801 75.4579 470.801C75.7704 470.801 76.0417 470.756 76.2718 470.665C76.5048 470.574 76.6852 470.448 76.813 470.286C76.9409 470.124 77.0048 469.938 77.0048 469.728C77.0048 469.532 76.9466 469.367 76.8301 469.233C76.7164 469.1 76.5488 468.986 76.3272 468.892C76.1085 468.799 75.84 468.713 75.5218 468.637L74.5716 468.398C73.8358 468.219 73.2548 467.939 72.8287 467.559C72.4025 467.178 72.1909 466.665 72.1937 466.02C72.1909 465.492 72.3315 465.03 72.6156 464.635C72.9025 464.24 73.296 463.932 73.796 463.711C74.296 463.489 74.8642 463.378 75.5005 463.378C76.1483 463.378 76.7136 463.489 77.1966 463.711C77.6824 463.932 78.0602 464.24 78.3301 464.635C78.6 465.03 78.7392 465.488 78.7477 466.007H76.9792ZM83.2019 472.225H80.1081V463.498H83.2275C84.1053 463.498 84.861 463.672 85.4945 464.022C86.128 464.368 86.6152 464.867 86.9561 465.517C87.2999 466.168 87.4718 466.946 87.4718 467.853C87.4718 468.762 87.2999 469.543 86.9561 470.196C86.6152 470.85 86.1252 471.351 85.486 471.701C84.8496 472.05 84.0882 472.225 83.2019 472.225ZM81.9533 470.644H83.1252C83.6706 470.644 84.1294 470.547 84.5016 470.354C84.8766 470.158 85.1578 469.855 85.3453 469.446C85.5357 469.034 85.6309 468.503 85.6309 467.853C85.6309 467.208 85.5357 466.681 85.3453 466.272C85.1578 465.863 84.878 465.561 84.5059 465.368C84.1337 465.175 83.6749 465.078 83.1294 465.078H81.9533V470.644Z" fill="black"/>
<ellipse cx="49.0001" cy="469.561" rx="4.94366" ry="4.94263" fill="#4285F4"/>
<path d="M64.9952 499.684H63.0179L66.0307 490.957H68.4086L71.4171 499.684H69.4398L67.2537 492.951H67.1855L64.9952 499.684ZM64.8716 496.253H69.5421V497.694H64.8716V496.253ZM77.8581 490.957H79.7033V496.624C79.7033 497.261 79.5513 497.817 79.2473 498.295C78.9462 498.772 78.5243 499.144 77.9817 499.411C77.4391 499.675 76.807 499.807 76.0854 499.807C75.361 499.807 74.7275 499.675 74.1848 499.411C73.6422 499.144 73.2203 498.772 72.9192 498.295C72.6181 497.817 72.4675 497.261 72.4675 496.624V490.957H74.3127V496.467C74.3127 496.799 74.3851 497.094 74.53 497.353C74.6777 497.611 74.8851 497.815 75.1522 497.962C75.4192 498.11 75.7303 498.184 76.0854 498.184C76.4434 498.184 76.7544 498.11 77.0186 497.962C77.2857 497.815 77.4917 497.611 77.6365 497.353C77.7843 497.094 77.8581 496.799 77.8581 496.467V490.957ZM84.3152 499.684H81.2214V490.957H84.3407C85.2186 490.957 85.9743 491.131 86.6078 491.481C87.2413 491.827 87.7285 492.326 88.0694 492.976C88.4132 493.627 88.5851 494.405 88.5851 495.312C88.5851 496.221 88.4132 497.002 88.0694 497.655C87.7285 498.309 87.2385 498.81 86.5993 499.16C85.9629 499.509 85.2015 499.684 84.3152 499.684ZM83.0666 498.103H84.2385C84.7839 498.103 85.2427 498.006 85.6149 497.813C85.9899 497.617 86.2711 497.315 86.4586 496.905C86.649 496.493 86.7441 495.962 86.7441 495.312C86.7441 494.667 86.649 494.14 86.4586 493.731C86.2711 493.322 85.9913 493.02 85.6191 492.827C85.247 492.634 84.7882 492.538 84.2427 492.538H83.0666V498.103Z" fill="black"/>
<ellipse cx="49.0001" cy="497.02" rx="4.94366" ry="4.94263" fill="#D80027"/>
<path d="M163.757 493.778C163.697 493.57 163.613 493.387 163.505 493.228C163.397 493.066 163.265 492.93 163.109 492.819C162.956 492.705 162.779 492.618 162.581 492.559C162.385 492.499 162.167 492.469 161.929 492.469C161.483 492.469 161.091 492.58 160.752 492.802C160.417 493.023 160.156 493.346 159.968 493.769C159.781 494.19 159.687 494.704 159.687 495.312C159.687 495.92 159.779 496.437 159.964 496.863C160.149 497.289 160.41 497.614 160.748 497.839C161.086 498.06 161.485 498.171 161.946 498.171C162.363 498.171 162.72 498.097 163.015 497.949C163.314 497.799 163.541 497.587 163.697 497.315C163.856 497.042 163.936 496.719 163.936 496.347L164.311 496.403H162.061V495.013H165.713V496.113C165.713 496.88 165.551 497.539 165.227 498.09C164.903 498.638 164.457 499.062 163.889 499.36C163.321 499.655 162.67 499.803 161.937 499.803C161.119 499.803 160.4 499.623 159.781 499.262C159.162 498.898 158.679 498.383 158.332 497.715C157.988 497.045 157.816 496.249 157.816 495.329C157.816 494.621 157.919 493.991 158.123 493.437C158.331 492.88 158.62 492.408 158.993 492.022C159.365 491.636 159.798 491.342 160.292 491.14C160.787 490.938 161.322 490.837 161.899 490.837C162.393 490.837 162.853 490.91 163.279 491.055C163.706 491.197 164.083 491.398 164.413 491.66C164.745 491.921 165.017 492.232 165.227 492.593C165.437 492.951 165.572 493.346 165.632 493.778H163.757ZM167.099 499.684V490.957H170.593C171.235 490.957 171.771 491.052 172.2 491.242C172.629 491.432 172.951 491.697 173.167 492.035C173.383 492.37 173.491 492.756 173.491 493.194C173.491 493.535 173.423 493.834 173.286 494.093C173.15 494.349 172.962 494.559 172.724 494.724C172.488 494.886 172.218 495.001 171.914 495.069V495.154C172.246 495.168 172.558 495.262 172.847 495.435C173.14 495.609 173.377 495.851 173.559 496.164C173.741 496.474 173.832 496.843 173.832 497.272C173.832 497.735 173.717 498.148 173.487 498.512C173.259 498.873 172.923 499.158 172.477 499.368C172.031 499.579 171.481 499.684 170.827 499.684H167.099ZM168.944 498.175H170.448C170.962 498.175 171.337 498.077 171.573 497.881C171.809 497.682 171.927 497.418 171.927 497.089C171.927 496.847 171.869 496.634 171.752 496.449C171.636 496.265 171.469 496.12 171.254 496.015C171.04 495.91 170.786 495.857 170.491 495.857H168.944V498.175ZM168.944 494.609H170.312C170.565 494.609 170.789 494.565 170.985 494.476C171.184 494.386 171.34 494.258 171.454 494.093C171.57 493.928 171.629 493.731 171.629 493.501C171.629 493.185 171.516 492.931 171.292 492.738C171.07 492.545 170.755 492.448 170.346 492.448H168.944V494.609ZM175.032 499.684V490.957H178.476C179.137 490.957 179.701 491.083 180.167 491.336C180.633 491.586 180.988 491.934 181.233 492.38C181.48 492.823 181.603 493.334 181.603 493.914C181.603 494.493 181.478 495.005 181.228 495.448C180.978 495.891 180.616 496.236 180.142 496.484C179.67 496.731 179.099 496.854 178.429 496.854H176.234V495.376H178.13C178.485 495.376 178.778 495.315 179.008 495.192C179.241 495.067 179.414 494.895 179.528 494.677C179.645 494.455 179.703 494.201 179.703 493.914C179.703 493.624 179.645 493.371 179.528 493.155C179.414 492.937 179.241 492.768 179.008 492.648C178.775 492.526 178.48 492.465 178.122 492.465H176.877V499.684H175.032Z" fill="black"/>
<ellipse cx="143.479" cy="497.02" rx="4.94366" ry="4.94263" fill="#90BE6D"/>
<path d="M163.36 463.498H165.205V469.165C165.205 469.801 165.054 470.358 164.75 470.836C164.448 471.313 164.027 471.685 163.484 471.952C162.941 472.216 162.309 472.348 161.588 472.348C160.863 472.348 160.23 472.216 159.687 471.952C159.144 471.685 158.723 471.313 158.421 470.836C158.12 470.358 157.97 469.801 157.97 469.165V463.498H159.815V469.007C159.815 469.34 159.887 469.635 160.032 469.894C160.18 470.152 160.387 470.355 160.654 470.503C160.921 470.651 161.232 470.725 161.588 470.725C161.946 470.725 162.257 470.651 162.521 470.503C162.788 470.355 162.994 470.152 163.139 469.894C163.286 469.635 163.36 469.34 163.36 469.007V463.498ZM172.511 466.319C172.451 466.111 172.367 465.928 172.259 465.769C172.151 465.607 172.019 465.471 171.863 465.36C171.709 465.246 171.533 465.159 171.334 465.1C171.138 465.04 170.921 465.01 170.682 465.01C170.236 465.01 169.844 465.121 169.506 465.343C169.171 465.564 168.91 465.887 168.722 466.31C168.535 466.73 168.441 467.245 168.441 467.853C168.441 468.461 168.533 468.978 168.718 469.404C168.903 469.83 169.164 470.155 169.502 470.38C169.84 470.601 170.239 470.712 170.699 470.712C171.117 470.712 171.474 470.638 171.769 470.49C172.067 470.34 172.295 470.128 172.451 469.855C172.61 469.583 172.69 469.26 172.69 468.888L173.065 468.944H170.815V467.554H174.467V468.654C174.467 469.421 174.305 470.08 173.981 470.631C173.657 471.179 173.211 471.603 172.643 471.901C172.074 472.196 171.424 472.344 170.691 472.344C169.873 472.344 169.154 472.164 168.535 471.803C167.915 471.439 167.432 470.924 167.086 470.256C166.742 469.586 166.57 468.79 166.57 467.87C166.57 467.162 166.672 466.532 166.877 465.978C167.084 465.421 167.374 464.949 167.746 464.563C168.118 464.176 168.552 463.882 169.046 463.681C169.54 463.479 170.076 463.378 170.653 463.378C171.147 463.378 171.607 463.451 172.033 463.596C172.459 463.738 172.837 463.939 173.167 464.201C173.499 464.462 173.77 464.773 173.981 465.134C174.191 465.492 174.326 465.887 174.386 466.319H172.511ZM177.395 463.498L179.155 466.472H179.223L180.992 463.498H183.076L180.412 467.861L183.135 472.225H181.013L179.223 469.246H179.155L177.365 472.225H175.252L177.983 467.861L175.303 463.498H177.395Z" fill="black"/>
<ellipse cx="143.479" cy="469.561" rx="4.94366" ry="4.94263" fill="#F3722C"/>
<path d="M252.449 472.225V463.498H254.294V467.346H254.409L257.549 463.498H259.761L256.522 467.405L259.799 472.225H257.592L255.201 468.637L254.294 469.745V472.225H252.449ZM260.722 472.225V463.498H266.603V465.019H262.567V467.098H266.3V468.62H262.567V470.703H266.62V472.225H260.722ZM272.804 466.007C272.77 465.664 272.624 465.397 272.365 465.206C272.107 465.016 271.756 464.921 271.313 464.921C271.011 464.921 270.757 464.963 270.55 465.049C270.342 465.131 270.183 465.246 270.073 465.394C269.965 465.542 269.911 465.709 269.911 465.897C269.905 466.053 269.938 466.189 270.009 466.306C270.082 466.422 270.183 466.523 270.311 466.608C270.439 466.691 270.587 466.763 270.754 466.826C270.922 466.885 271.101 466.936 271.291 466.979L272.075 467.167C272.456 467.252 272.805 467.365 273.124 467.507C273.442 467.65 273.717 467.824 273.95 468.032C274.183 468.239 274.364 468.483 274.492 468.765C274.622 469.046 274.689 469.368 274.692 469.732C274.689 470.266 274.553 470.729 274.283 471.121C274.016 471.51 273.629 471.813 273.124 472.029C272.621 472.242 272.014 472.348 271.304 472.348C270.6 472.348 269.986 472.24 269.463 472.025C268.943 471.809 268.537 471.489 268.244 471.066C267.955 470.64 267.803 470.113 267.788 469.485H269.574C269.594 469.777 269.678 470.022 269.825 470.218C269.976 470.411 270.176 470.557 270.426 470.657C270.679 470.753 270.965 470.801 271.283 470.801C271.595 470.801 271.867 470.756 272.097 470.665C272.33 470.574 272.51 470.448 272.638 470.286C272.766 470.124 272.83 469.938 272.83 469.728C272.83 469.532 272.771 469.367 272.655 469.233C272.541 469.1 272.374 468.986 272.152 468.892C271.933 468.799 271.665 468.713 271.347 468.637L270.396 468.398C269.661 468.219 269.08 467.939 268.653 467.559C268.227 467.178 268.016 466.665 268.019 466.02C268.016 465.492 268.156 465.03 268.44 464.635C268.727 464.24 269.121 463.932 269.621 463.711C270.121 463.489 270.689 463.378 271.325 463.378C271.973 463.378 272.538 463.489 273.021 463.711C273.507 463.932 273.885 464.24 274.155 464.635C274.425 465.03 274.564 465.488 274.573 466.007H272.804Z" fill="black"/>
<ellipse cx="237.958" cy="469.561" rx="4.94366" ry="4.94263" fill="#F8961E"/>
<path d="M249.135 425.508C218.935 437.129 185.408 436.612 155.58 424.065C125.753 411.518 101.941 387.915 89.1352 358.203L204.15 308.651L249.135 425.508Z" fill="#D80027"/>
<path d="M90.0976 360.38C76.7289 330.917 75.2857 297.424 86.0705 266.92C96.8552 236.417 119.031 211.271 147.949 196.753L204.15 308.651L90.0976 360.38Z" fill="#F8961E"/>
<path d="M327.706 288.197C332.453 316.86 327.083 346.282 312.515 371.42C297.948 396.559 275.09 415.851 247.857 425.991L204.149 308.651L327.706 288.197Z" fill="#F9C74F"/>
<path d="M101.82 236.462C119.722 211.096 146.412 193.283 176.709 186.481C207.007 179.678 238.751 184.371 265.783 199.65L204.15 308.651L101.82 236.462Z" fill="#4285F4"/>
<path d="M247.409 191.145C264.33 197.371 279.706 207.176 292.487 219.891C305.268 232.605 315.152 247.929 321.465 264.814C327.777 281.7 330.368 299.748 329.061 317.727C327.754 335.706 322.58 353.191 313.892 368.986L204.151 308.651L247.409 191.145Z" fill="#90BE6D"/>
<path d="M166.603 236.077V235.31L169.484 232.157C169.822 231.787 170.1 231.466 170.319 231.194C170.538 230.918 170.7 230.66 170.805 230.418C170.913 230.174 170.967 229.918 170.967 229.651C170.967 229.344 170.893 229.079 170.745 228.854C170.6 228.63 170.401 228.457 170.148 228.334C169.896 228.212 169.612 228.151 169.296 228.151C168.961 228.151 168.668 228.221 168.418 228.36C168.171 228.496 167.979 228.688 167.843 228.935C167.71 229.182 167.643 229.472 167.643 229.805H166.637C166.637 229.293 166.755 228.844 166.991 228.458C167.227 228.072 167.548 227.77 167.954 227.555C168.363 227.339 168.822 227.231 169.33 227.231C169.842 227.231 170.295 227.339 170.69 227.555C171.085 227.77 171.394 228.062 171.619 228.428C171.843 228.795 171.955 229.202 171.955 229.651C171.955 229.972 171.897 230.286 171.781 230.593C171.667 230.897 171.468 231.236 171.184 231.611C170.903 231.984 170.512 232.438 170.012 232.975L168.052 235.072V235.14H172.109V236.077H166.603ZM176.715 236.197C176.073 236.197 175.526 236.022 175.075 235.672C174.623 235.32 174.278 234.81 174.039 234.143C173.8 233.472 173.681 232.662 173.681 231.714C173.681 230.77 173.8 229.965 174.039 229.297C174.281 228.627 174.627 228.116 175.079 227.763C175.533 227.408 176.079 227.231 176.715 227.231C177.352 227.231 177.896 227.408 178.347 227.763C178.802 228.116 179.148 228.627 179.387 229.297C179.629 229.965 179.749 230.77 179.749 231.714C179.749 232.662 179.63 233.472 179.391 234.143C179.153 234.81 178.808 235.32 178.356 235.672C177.904 236.022 177.357 236.197 176.715 236.197ZM176.715 235.259C177.352 235.259 177.846 234.952 178.198 234.339C178.55 233.725 178.727 232.85 178.727 231.714C178.727 230.958 178.646 230.314 178.484 229.783C178.325 229.252 178.094 228.847 177.793 228.569C177.495 228.29 177.136 228.151 176.715 228.151C176.085 228.151 175.592 228.462 175.237 229.084C174.881 229.704 174.704 230.58 174.704 231.714C174.704 232.469 174.783 233.111 174.942 233.64C175.102 234.168 175.33 234.57 175.629 234.846C175.93 235.121 176.292 235.259 176.715 235.259ZM185.817 234.441V233.981C185.817 233.662 185.883 233.371 186.014 233.107C186.147 232.84 186.34 232.627 186.593 232.468C186.849 232.306 187.158 232.225 187.522 232.225C187.891 232.225 188.201 232.306 188.451 232.468C188.701 232.627 188.89 232.84 189.018 233.107C189.146 233.371 189.21 233.662 189.21 233.981V234.441C189.21 234.759 189.144 235.052 189.014 235.319C188.886 235.583 188.695 235.796 188.442 235.958C188.192 236.117 187.886 236.197 187.522 236.197C187.153 236.197 186.842 236.117 186.589 235.958C186.336 235.796 186.144 235.583 186.014 235.319C185.883 235.052 185.817 234.759 185.817 234.441ZM186.687 233.981V234.441C186.687 234.705 186.749 234.942 186.874 235.153C186.999 235.36 187.215 235.464 187.522 235.464C187.82 235.464 188.031 235.36 188.153 235.153C188.278 234.942 188.34 234.705 188.34 234.441V233.981C188.34 233.716 188.281 233.481 188.161 233.273C188.042 233.063 187.829 232.958 187.522 232.958C187.224 232.958 187.009 233.063 186.879 233.273C186.751 233.481 186.687 233.716 186.687 233.981ZM181.471 229.447V228.986C181.471 228.668 181.536 228.377 181.667 228.113C181.8 227.846 181.994 227.633 182.246 227.474C182.502 227.312 182.812 227.231 183.175 227.231C183.545 227.231 183.854 227.312 184.104 227.474C184.354 227.633 184.543 227.846 184.671 228.113C184.799 228.377 184.863 228.668 184.863 228.986V229.447C184.863 229.765 184.798 230.057 184.667 230.324C184.539 230.589 184.349 230.802 184.096 230.964C183.846 231.123 183.539 231.202 183.175 231.202C182.806 231.202 182.495 231.123 182.242 230.964C181.989 230.802 181.798 230.589 181.667 230.324C181.536 230.057 181.471 229.765 181.471 229.447ZM182.34 228.986V229.447C182.34 229.711 182.403 229.948 182.528 230.158C182.653 230.366 182.869 230.469 183.175 230.469C183.474 230.469 183.684 230.366 183.806 230.158C183.931 229.948 183.994 229.711 183.994 229.447V228.986C183.994 228.722 183.934 228.486 183.815 228.279C183.695 228.069 183.482 227.964 183.175 227.964C182.877 227.964 182.663 228.069 182.532 228.279C182.404 228.486 182.34 228.722 182.34 228.986ZM181.795 236.077L187.795 227.35H188.766L182.766 236.077H181.795Z" fill="white"/>
<path d="M256.687 286.602V285.835L259.568 282.681C259.906 282.312 260.185 281.991 260.403 281.718C260.622 281.443 260.784 281.184 260.889 280.943C260.997 280.698 261.051 280.443 261.051 280.176C261.051 279.869 260.977 279.603 260.83 279.379C260.685 279.154 260.486 278.981 260.233 278.859C259.98 278.737 259.696 278.676 259.381 278.676C259.045 278.676 258.753 278.745 258.503 278.884C258.256 279.021 258.064 279.213 257.928 279.46C257.794 279.707 257.727 279.997 257.727 280.329H256.722C256.722 279.818 256.839 279.369 257.075 278.982C257.311 278.596 257.632 278.295 258.038 278.079C258.447 277.863 258.906 277.755 259.415 277.755C259.926 277.755 260.379 277.863 260.774 278.079C261.169 278.295 261.479 278.586 261.703 278.953C261.928 279.319 262.04 279.727 262.04 280.176C262.04 280.497 261.982 280.811 261.865 281.117C261.751 281.421 261.553 281.761 261.268 282.136C260.987 282.508 260.597 282.963 260.097 283.5L258.136 285.596V285.664H262.193V286.602H256.687ZM263.953 286.602V285.835L266.834 282.681C267.172 282.312 267.45 281.991 267.669 281.718C267.888 281.443 268.05 281.184 268.155 280.943C268.263 280.698 268.317 280.443 268.317 280.176C268.317 279.869 268.243 279.603 268.095 279.379C267.95 279.154 267.751 278.981 267.499 278.859C267.246 278.737 266.962 278.676 266.646 278.676C266.311 278.676 266.018 278.745 265.768 278.884C265.521 279.021 265.33 279.213 265.193 279.46C265.06 279.707 264.993 279.997 264.993 280.329H263.987C263.987 279.818 264.105 279.369 264.341 278.982C264.577 278.596 264.898 278.295 265.304 278.079C265.713 277.863 266.172 277.755 266.68 277.755C267.192 277.755 267.645 277.863 268.04 278.079C268.435 278.295 268.744 278.586 268.969 278.953C269.193 279.319 269.305 279.727 269.305 280.176C269.305 280.497 269.247 280.811 269.131 281.117C269.017 281.421 268.818 281.761 268.534 282.136C268.253 282.508 267.862 282.963 267.362 283.5L265.402 285.596V285.664H269.459V286.602H263.953ZM275.668 284.965V284.505C275.668 284.187 275.733 283.896 275.864 283.632C275.997 283.365 276.19 283.152 276.443 282.992C276.699 282.83 277.008 282.75 277.372 282.75C277.741 282.75 278.051 282.83 278.301 282.992C278.551 283.152 278.74 283.365 278.868 283.632C278.996 283.896 279.06 284.187 279.06 284.505V284.965C279.06 285.284 278.994 285.576 278.864 285.843C278.736 286.107 278.545 286.321 278.293 286.482C278.043 286.642 277.736 286.721 277.372 286.721C277.003 286.721 276.692 286.642 276.439 286.482C276.186 286.321 275.994 286.107 275.864 285.843C275.733 285.576 275.668 285.284 275.668 284.965ZM276.537 284.505V284.965C276.537 285.23 276.599 285.467 276.724 285.677C276.849 285.884 277.065 285.988 277.372 285.988C277.67 285.988 277.881 285.884 278.003 285.677C278.128 285.467 278.19 285.23 278.19 284.965V284.505C278.19 284.241 278.131 284.005 278.011 283.798C277.892 283.588 277.679 283.482 277.372 283.482C277.074 283.482 276.859 283.588 276.729 283.798C276.601 284.005 276.537 284.241 276.537 284.505ZM271.321 279.971V279.511C271.321 279.193 271.386 278.902 271.517 278.637C271.651 278.37 271.844 278.157 272.097 277.998C272.352 277.836 272.662 277.755 273.026 277.755C273.395 277.755 273.705 277.836 273.955 277.998C274.205 278.157 274.393 278.37 274.521 278.637C274.649 278.902 274.713 279.193 274.713 279.511V279.971C274.713 280.289 274.648 280.582 274.517 280.849C274.389 281.113 274.199 281.326 273.946 281.488C273.696 281.647 273.389 281.727 273.026 281.727C272.656 281.727 272.345 281.647 272.092 281.488C271.839 281.326 271.648 281.113 271.517 280.849C271.386 280.582 271.321 280.289 271.321 279.971ZM272.19 279.511V279.971C272.19 280.235 272.253 280.473 272.378 280.683C272.503 280.89 272.719 280.994 273.026 280.994C273.324 280.994 273.534 280.89 273.656 280.683C273.781 280.473 273.844 280.235 273.844 279.971V279.511C273.844 279.247 273.784 279.011 273.665 278.804C273.545 278.593 273.332 278.488 273.026 278.488C272.727 278.488 272.513 278.593 272.382 278.804C272.254 279.011 272.19 279.247 272.19 279.511ZM271.645 286.602L277.645 277.875H278.616L272.616 286.602H271.645Z" fill="white"/>
<path d="M247.671 356.957V365.684H246.614V358.065H246.563L244.433 359.479V358.405L246.614 356.957H247.671ZM250.181 365.684V364.917L253.062 361.763C253.4 361.394 253.678 361.073 253.897 360.8C254.116 360.525 254.278 360.266 254.383 360.025C254.491 359.78 254.545 359.525 254.545 359.258C254.545 358.951 254.471 358.685 254.323 358.461C254.178 358.236 253.979 358.063 253.727 357.941C253.474 357.819 253.19 357.758 252.874 357.758C252.539 357.758 252.246 357.827 251.996 357.967C251.749 358.103 251.558 358.295 251.421 358.542C251.288 358.789 251.221 359.079 251.221 359.411H250.215C250.215 358.9 250.333 358.451 250.569 358.065C250.805 357.678 251.126 357.377 251.532 357.161C251.941 356.945 252.4 356.837 252.908 356.837C253.42 356.837 253.873 356.945 254.268 357.161C254.663 357.377 254.972 357.668 255.197 358.035C255.421 358.401 255.533 358.809 255.533 359.258C255.533 359.579 255.475 359.893 255.359 360.199C255.245 360.503 255.046 360.843 254.762 361.218C254.481 361.59 254.09 362.045 253.59 362.582L251.63 364.678V364.746H255.687V365.684H250.181ZM261.896 364.047V363.587C261.896 363.269 261.961 362.978 262.092 362.714C262.225 362.447 262.418 362.234 262.671 362.074C262.927 361.913 263.237 361.832 263.6 361.832C263.969 361.832 264.279 361.913 264.529 362.074C264.779 362.234 264.968 362.447 265.096 362.714C265.224 362.978 265.288 363.269 265.288 363.587V364.047C265.288 364.366 265.222 364.658 265.092 364.925C264.964 365.19 264.773 365.403 264.521 365.565C264.271 365.724 263.964 365.803 263.6 365.803C263.231 365.803 262.92 365.724 262.667 365.565C262.414 365.403 262.222 365.19 262.092 364.925C261.961 364.658 261.896 364.366 261.896 364.047ZM262.765 363.587V364.047C262.765 364.312 262.827 364.549 262.952 364.759C263.077 364.967 263.293 365.07 263.6 365.07C263.898 365.07 264.109 364.967 264.231 364.759C264.356 364.549 264.418 364.312 264.418 364.047V363.587C264.418 363.323 264.359 363.087 264.239 362.88C264.12 362.67 263.907 362.565 263.6 362.565C263.302 362.565 263.087 362.67 262.957 362.88C262.829 363.087 262.765 363.323 262.765 363.587ZM257.549 359.053V358.593C257.549 358.275 257.614 357.984 257.745 357.719C257.879 357.452 258.072 357.239 258.325 357.08C258.58 356.918 258.89 356.837 259.254 356.837C259.623 356.837 259.933 356.918 260.183 357.08C260.433 357.239 260.621 357.452 260.749 357.719C260.877 357.984 260.941 358.275 260.941 358.593V359.053C260.941 359.371 260.876 359.664 260.745 359.931C260.617 360.195 260.427 360.408 260.174 360.57C259.924 360.729 259.617 360.809 259.254 360.809C258.884 360.809 258.573 360.729 258.32 360.57C258.067 360.408 257.876 360.195 257.745 359.931C257.614 359.664 257.549 359.371 257.549 359.053ZM258.418 358.593V359.053C258.418 359.317 258.481 359.555 258.606 359.765C258.731 359.972 258.947 360.076 259.254 360.076C259.552 360.076 259.762 359.972 259.884 359.765C260.009 359.555 260.072 359.317 260.072 359.053V358.593C260.072 358.329 260.012 358.093 259.893 357.886C259.773 357.675 259.56 357.57 259.254 357.57C258.955 357.57 258.741 357.675 258.61 357.886C258.482 358.093 258.418 358.329 258.418 358.593ZM257.873 365.684L263.873 356.957H264.844L258.844 365.684H257.873Z" fill="white"/>
<path d="M164.406 382.159V381.392L167.287 378.239C167.625 377.869 167.903 377.548 168.122 377.276C168.341 377 168.502 376.742 168.608 376.5C168.716 376.256 168.769 376 168.769 375.733C168.769 375.426 168.696 375.161 168.548 374.936C168.403 374.712 168.204 374.538 167.951 374.416C167.698 374.294 167.414 374.233 167.099 374.233C166.764 374.233 166.471 374.303 166.221 374.442C165.974 374.578 165.782 374.77 165.646 375.017C165.512 375.264 165.446 375.554 165.446 375.886H164.44C164.44 375.375 164.558 374.926 164.794 374.54C165.029 374.153 165.35 373.852 165.757 373.636C166.166 373.421 166.625 373.313 167.133 373.313C167.644 373.313 168.098 373.421 168.492 373.636C168.887 373.852 169.197 374.144 169.421 374.51C169.646 374.877 169.758 375.284 169.758 375.733C169.758 376.054 169.7 376.368 169.583 376.675C169.47 376.979 169.271 377.318 168.987 377.693C168.706 378.065 168.315 378.52 167.815 379.057L165.855 381.153V381.222H169.912V382.159H164.406ZM174.569 382.278C174.211 382.273 173.853 382.205 173.495 382.074C173.137 381.943 172.811 381.723 172.515 381.413C172.22 381.101 171.983 380.679 171.804 380.148C171.625 379.614 171.535 378.943 171.535 378.136C171.535 377.364 171.608 376.679 171.752 376.082C171.897 375.483 172.108 374.979 172.383 374.57C172.659 374.158 172.991 373.845 173.38 373.632C173.772 373.419 174.214 373.313 174.706 373.313C175.194 373.313 175.629 373.411 176.01 373.607C176.393 373.8 176.706 374.07 176.947 374.416C177.189 374.763 177.345 375.162 177.416 375.614H176.376C176.279 375.222 176.092 374.896 175.814 374.638C175.535 374.379 175.166 374.25 174.706 374.25C174.029 374.25 173.497 374.544 173.108 375.132C172.721 375.72 172.527 376.546 172.524 377.608H172.592C172.751 377.367 172.94 377.161 173.159 376.99C173.38 376.817 173.625 376.683 173.892 376.59C174.159 376.496 174.441 376.449 174.74 376.449C175.24 376.449 175.697 376.574 176.112 376.824C176.527 377.071 176.859 377.413 177.109 377.851C177.359 378.286 177.484 378.784 177.484 379.347C177.484 379.886 177.363 380.381 177.122 380.83C176.88 381.276 176.541 381.631 176.103 381.895C175.669 382.156 175.157 382.284 174.569 382.278ZM174.569 381.341C174.927 381.341 175.248 381.252 175.532 381.073C175.819 380.894 176.045 380.653 176.21 380.352C176.377 380.051 176.461 379.716 176.461 379.347C176.461 378.986 176.38 378.658 176.218 378.362C176.059 378.064 175.839 377.827 175.558 377.651C175.279 377.475 174.961 377.386 174.603 377.386C174.333 377.386 174.082 377.44 173.849 377.548C173.616 377.653 173.412 377.798 173.235 377.983C173.062 378.168 172.926 378.379 172.826 378.618C172.727 378.854 172.677 379.102 172.677 379.364C172.677 379.71 172.758 380.034 172.92 380.335C173.085 380.636 173.309 380.879 173.593 381.064C173.88 381.249 174.206 381.341 174.569 381.341ZM183.609 380.523V380.063C183.609 379.744 183.674 379.453 183.805 379.189C183.938 378.922 184.131 378.709 184.384 378.55C184.64 378.388 184.95 378.307 185.313 378.307C185.682 378.307 185.992 378.388 186.242 378.55C186.492 378.709 186.681 378.922 186.809 379.189C186.937 379.453 187.001 379.744 187.001 380.063V380.523C187.001 380.841 186.935 381.134 186.805 381.401C186.677 381.665 186.486 381.878 186.234 382.04C185.984 382.199 185.677 382.278 185.313 382.278C184.944 382.278 184.633 382.199 184.38 382.04C184.127 381.878 183.935 381.665 183.805 381.401C183.674 381.134 183.609 380.841 183.609 380.523ZM184.478 380.063V380.523C184.478 380.787 184.54 381.024 184.665 381.234C184.79 381.442 185.006 381.546 185.313 381.546C185.611 381.546 185.822 381.442 185.944 381.234C186.069 381.024 186.131 380.787 186.131 380.523V380.063C186.131 379.798 186.072 379.563 185.952 379.355C185.833 379.145 185.62 379.04 185.313 379.04C185.015 379.04 184.8 379.145 184.67 379.355C184.542 379.563 184.478 379.798 184.478 380.063ZM179.262 375.528V375.068C179.262 374.75 179.327 374.459 179.458 374.195C179.592 373.928 179.785 373.715 180.038 373.555C180.293 373.394 180.603 373.313 180.967 373.313C181.336 373.313 181.646 373.394 181.896 373.555C182.146 373.715 182.334 373.928 182.462 374.195C182.59 374.459 182.654 374.75 182.654 375.068V375.528C182.654 375.847 182.589 376.139 182.458 376.406C182.33 376.671 182.14 376.884 181.887 377.046C181.637 377.205 181.33 377.284 180.967 377.284C180.597 377.284 180.286 377.205 180.033 377.046C179.78 376.884 179.589 376.671 179.458 376.406C179.327 376.139 179.262 375.847 179.262 375.528ZM180.131 375.068V375.528C180.131 375.793 180.194 376.03 180.319 376.24C180.444 376.448 180.66 376.551 180.967 376.551C181.265 376.551 181.475 376.448 181.597 376.24C181.722 376.03 181.785 375.793 181.785 375.528V375.068C181.785 374.804 181.725 374.568 181.606 374.361C181.486 374.151 181.273 374.046 180.967 374.046C180.668 374.046 180.454 374.151 180.323 374.361C180.195 374.568 180.131 374.804 180.131 375.068ZM179.586 382.159L185.586 373.432H186.557L180.557 382.159H179.586Z" fill="white"/>
<path d="M112.772 307.471V306.704L115.653 303.55C115.991 303.181 116.269 302.86 116.488 302.587C116.707 302.312 116.869 302.053 116.974 301.812C117.082 301.567 117.136 301.312 117.136 301.045C117.136 300.738 117.062 300.472 116.914 300.248C116.769 300.023 116.57 299.85 116.318 299.728C116.065 299.606 115.781 299.545 115.465 299.545C115.13 299.545 114.837 299.614 114.587 299.753C114.34 299.89 114.148 300.081 114.012 300.329C113.879 300.576 113.812 300.866 113.812 301.198H112.806C112.806 300.687 112.924 300.238 113.16 299.851C113.396 299.465 113.717 299.164 114.123 298.948C114.532 298.732 114.991 298.624 115.499 298.624C116.011 298.624 116.464 298.732 116.859 298.948C117.254 299.164 117.563 299.455 117.788 299.822C118.012 300.188 118.124 300.596 118.124 301.045C118.124 301.366 118.066 301.68 117.95 301.986C117.836 302.29 117.637 302.63 117.353 303.005C117.072 303.377 116.681 303.831 116.181 304.368L114.221 306.465V306.533H118.278V307.471H112.772ZM122.884 307.59C122.242 307.59 121.695 307.415 121.244 307.066C120.792 306.714 120.447 306.204 120.208 305.536C119.97 304.866 119.85 304.056 119.85 303.107C119.85 302.164 119.97 301.358 120.208 300.691C120.45 300.02 120.796 299.509 121.248 299.157C121.702 298.802 122.248 298.624 122.884 298.624C123.521 298.624 124.065 298.802 124.516 299.157C124.971 299.509 125.318 300.02 125.556 300.691C125.798 301.358 125.918 302.164 125.918 303.107C125.918 304.056 125.799 304.866 125.56 305.536C125.322 306.204 124.977 306.714 124.525 307.066C124.073 307.415 123.526 307.59 122.884 307.59ZM122.884 306.653C123.521 306.653 124.015 306.346 124.367 305.732C124.72 305.118 124.896 304.243 124.896 303.107C124.896 302.351 124.815 301.708 124.653 301.177C124.494 300.645 124.264 300.241 123.962 299.962C123.664 299.684 123.305 299.545 122.884 299.545C122.254 299.545 121.761 299.856 121.406 300.478C121.05 301.097 120.873 301.974 120.873 303.107C120.873 303.863 120.952 304.505 121.112 305.033C121.271 305.562 121.499 305.964 121.798 306.239C122.099 306.515 122.461 306.653 122.884 306.653ZM131.987 305.834V305.374C131.987 305.056 132.052 304.765 132.183 304.501C132.316 304.233 132.509 304.02 132.762 303.861C133.018 303.699 133.327 303.618 133.691 303.618C134.06 303.618 134.37 303.699 134.62 303.861C134.87 304.02 135.059 304.233 135.187 304.501C135.315 304.765 135.379 305.056 135.379 305.374V305.834C135.379 306.153 135.313 306.445 135.183 306.712C135.055 306.976 134.864 307.189 134.612 307.351C134.362 307.51 134.055 307.59 133.691 307.59C133.322 307.59 133.011 307.51 132.758 307.351C132.505 307.189 132.313 306.976 132.183 306.712C132.052 306.445 131.987 306.153 131.987 305.834ZM132.856 305.374V305.834C132.856 306.099 132.918 306.336 133.043 306.546C133.168 306.753 133.384 306.857 133.691 306.857C133.989 306.857 134.2 306.753 134.322 306.546C134.447 306.336 134.509 306.099 134.509 305.834V305.374C134.509 305.11 134.45 304.874 134.33 304.667C134.211 304.456 133.998 304.351 133.691 304.351C133.393 304.351 133.178 304.456 133.048 304.667C132.92 304.874 132.856 305.11 132.856 305.374ZM127.64 300.84V300.38C127.64 300.062 127.705 299.77 127.836 299.506C127.97 299.239 128.163 299.026 128.416 298.867C128.671 298.705 128.981 298.624 129.345 298.624C129.714 298.624 130.023 298.705 130.273 298.867C130.523 299.026 130.712 299.239 130.84 299.506C130.968 299.77 131.032 300.062 131.032 300.38V300.84C131.032 301.158 130.967 301.451 130.836 301.718C130.708 301.982 130.518 302.195 130.265 302.357C130.015 302.516 129.708 302.596 129.345 302.596C128.975 302.596 128.664 302.516 128.411 302.357C128.158 302.195 127.967 301.982 127.836 301.718C127.705 301.451 127.64 301.158 127.64 300.84ZM128.509 300.38V300.84C128.509 301.104 128.572 301.341 128.697 301.552C128.822 301.759 129.038 301.863 129.345 301.863C129.643 301.863 129.853 301.759 129.975 301.552C130.1 301.341 130.163 301.104 130.163 300.84V300.38C130.163 300.116 130.103 299.88 129.984 299.672C129.864 299.462 129.651 299.357 129.345 299.357C129.046 299.357 128.832 299.462 128.701 299.672C128.573 299.88 128.509 300.116 128.509 300.38ZM127.964 307.471L133.964 298.743H134.935L128.935 307.471H127.964Z" fill="white"/>
<defs>
<filter id="filter0_d_391_301" x="0" y="0" width="410" height="556" filterUnits="userSpaceOnUse" color-interpolation-filters="sRGB">
<feFlood flood-opacity="0" result="BackgroundImageFix"/>
<feColorMatrix in="SourceAlpha" type="matrix" values="0 0 0 0 0 0 0 0 0 0 0 0 0 0 0 0 0 0 127 0" result="hardAlpha"/>
<feOffset dy="2"/>
<feGaussianBlur stdDeviation="5"/>
<feComposite in2="hardAlpha" operator="out"/>
<feColorMatrix type="matrix" values="0 0 0 0 0 0 0 0 0 0 0 0 0 0 0 0 0 0 0.1 0"/>
<feBlend mode="normal" in2="BackgroundImageFix" result="effect1_dropShadow_391_301"/>
<feBlend mode="normal" in="SourceGraphic" in2="effect1_dropShadow_391_301" result="shape"/>
</filter>
</defs>
</svg>
