<svg width="20" height="20" viewBox="0 0 20 20" fill="none" xmlns="http://www.w3.org/2000/svg">
<path d="M18.3334 18.3333H1.66675C1.32508 18.3333 1.04175 18.05 1.04175 17.7083C1.04175 17.3666 1.32508 17.0833 1.66675 17.0833H18.3334C18.6751 17.0833 18.9584 17.3666 18.9584 17.7083C18.9584 18.05 18.6751 18.3333 18.3334 18.3333Z" fill="black"/>
<path d="M8.125 3.33335V18.3334H11.875V3.33335C11.875 2.41669 11.5 1.66669 10.375 1.66669H9.625C8.5 1.66669 8.125 2.41669 8.125 3.33335Z" fill="black"/>
<path d="M2.5 8.33335V18.3334H5.83333V8.33335C5.83333 7.41669 5.5 6.66669 4.5 6.66669H3.83333C2.83333 6.66669 2.5 7.41669 2.5 8.33335Z" fill="black"/>
<path d="M14.1667 12.5V18.3333H17.5001V12.5C17.5001 11.5833 17.1667 10.8333 16.1667 10.8333H15.5001C14.5001 10.8333 14.1667 11.5833 14.1667 12.5Z" fill="black"/>
</svg>
