<svg width="26" height="24" viewBox="0 0 26 24" fill="none" xmlns="http://www.w3.org/2000/svg">
<g clip-path="url(#clip0_391_809)">
<mask id="mask0_391_809" style="mask-type:luminance" maskUnits="userSpaceOnUse" x="0" y="0" width="26" height="24">
<path d="M25.9241 0.0712891H0.0222168V23.9568H25.9241V0.0712891Z" fill="white"/>
</mask>
<g mask="url(#mask0_391_809)">
<path d="M5.97488 21.8046C5.82252 22.3614 5.7374 22.5188 5.58423 23.0342C5.54142 23.2077 5.44826 23.3639 5.31679 23.483C5.18533 23.602 5.02162 23.6783 4.84688 23.702C3.85144 23.8504 2.85486 24.0265 1.84246 23.8811C0.913637 23.7473 0.320441 23.1567 0.27402 22.2067C0.194994 20.589 0.167159 18.9688 0.126021 17.3493C0.113933 16.8744 0.10775 16.3973 0.137106 15.9236C0.196833 14.9616 0.641919 14.4491 1.58962 14.3837C2.62803 14.3116 3.67317 14.3292 4.71544 14.3279C5.12479 14.3274 5.37801 14.6044 5.55851 14.9461C5.64759 15.1148 5.71087 15.2971 5.78137 15.4609C6.42994 15.3682 7.05738 15.2513 7.69 15.194C8.84725 15.0894 9.98693 15.2146 11.0647 15.6693C12.3193 16.1991 13.6136 16.312 14.9496 16.1826C15.2781 16.1526 15.6089 16.1635 15.9349 16.2149C17.004 16.3796 17.5179 17.1842 17.2508 18.2389C17.2295 18.323 17.1976 18.4036 17.1397 18.5812C17.515 18.5536 17.8471 18.5407 18.1764 18.5031C19.5879 18.3412 20.9041 17.8314 22.2294 17.3542C22.8179 17.1423 23.4006 16.9068 24.0015 16.7401C24.3542 16.6488 24.719 16.6163 25.0819 16.6436C25.7248 16.6849 26.0244 17.1584 25.8599 17.7848C25.725 18.2996 25.4147 18.6924 25.0349 19.0408C23.9339 20.0499 22.6444 20.7235 21.2542 21.2155C19.2971 21.9081 17.298 22.4271 15.2357 22.6693C12.5006 23.0071 9.68762 23.0104 7.08166 22.1037C6.7098 21.9732 6.32268 21.9197 5.97488 21.8046ZM5.99407 20.8061C6.62384 20.9744 7.2074 21.1332 7.79197 21.286C9.61972 21.7628 11.4778 22.0339 13.3631 21.9051C16.1768 21.7131 18.8729 20.9773 21.4873 19.9268C22.4942 19.5304 23.4243 18.9575 24.2355 18.2347C24.4121 18.0573 24.5782 17.8695 24.7328 17.6722L24.646 17.5398C24.2717 17.6522 23.893 17.7515 23.5241 17.8795C22.2436 18.3238 20.9758 18.8078 19.6854 19.2191C18.6666 19.5437 17.6161 19.6769 16.5466 19.442C16.3948 19.4171 16.2391 19.4417 16.1022 19.5123C14.7437 20.2115 13.2767 20.3374 11.7927 20.3456C11.4467 20.3291 11.1045 20.2654 10.7754 20.1561C10.7233 20.1448 10.6741 20.123 10.6307 20.0916C10.5874 20.0602 10.5507 20.0204 10.5232 19.9743C10.4955 19.9282 10.4776 19.8769 10.4702 19.8234C10.463 19.77 10.4666 19.7155 10.4808 19.6635C10.5326 19.4863 10.6451 19.3335 10.798 19.2328C10.987 19.1432 11.1926 19.0952 11.4012 19.0918C11.9728 19.0458 12.5459 19.0198 13.1185 18.9876C13.921 18.942 14.7155 18.8359 15.45 18.4924C15.7478 18.355 16.014 18.1558 16.2314 17.9078C16.4976 17.5936 16.3558 17.2847 15.9469 17.2427C15.6178 17.2191 15.2873 17.2228 14.9588 17.254C13.6078 17.342 12.2852 17.2477 11.0251 16.6872C10.7859 16.5824 10.541 16.4918 10.2915 16.4158C9.03946 16.0193 7.70156 15.995 6.43633 16.3457C5.9443 16.4795 5.94877 16.5012 5.97488 17.0016C6.01632 17.8104 6.07108 18.619 6.0857 19.4286C6.09372 19.8651 6.03004 20.3029 5.99378 20.8063L5.99407 20.8061ZM4.54661 15.3216C3.71368 15.3216 2.91815 15.3138 2.12259 15.324C1.41004 15.333 1.23239 15.517 1.21685 16.238C1.17703 18.0852 1.11761 19.9324 1.11527 21.7796C1.11436 22.562 1.4977 22.8171 2.0456 22.7755C2.77208 22.7205 3.49815 22.6538 4.22158 22.5657C4.60319 22.5192 4.67044 22.3992 4.66364 21.9931C4.64125 21.6596 4.64032 21.3249 4.66089 20.9912C4.85388 19.2839 4.71755 17.5801 4.63385 15.8755C4.61417 15.6894 4.58496 15.5046 4.54632 15.3216H4.54661Z" fill="white"/>
<path d="M14.7965 6.41332C15.9073 7.18363 16.3187 8.32178 16.4426 9.61902C16.6596 11.8918 15.329 13.3077 13.7685 13.9123C12.4829 14.4108 11.1642 14.6638 9.79612 14.2568C8.20961 13.7847 7.27398 12.4949 7.21548 10.8232C7.14234 8.73454 8.37782 6.83139 10.4032 5.99252C11.6363 5.48237 14.0318 5.8832 14.7965 6.41332ZM11.0257 13.3015C11.6973 13.3827 12.9195 13.0903 13.5244 12.8206C14.6404 12.3232 15.4579 11.4075 15.268 9.73534C15.1095 8.34071 14.4111 7.27832 13.0789 6.9987C12.3836 6.8528 11.0256 6.78733 10.3346 7.08446C8.82607 7.73307 8.24028 9.26711 8.3189 10.9436C8.3959 12.5828 10.0255 13.1808 11.0257 13.3017V13.3015Z" fill="white"/>
<path d="M2.8607 17.6006C2.4086 17.6061 2.09106 17.3117 2.0749 16.8722C2.05652 16.3682 2.4485 15.9266 2.91656 15.9236C3.45999 15.9205 3.87992 16.2428 3.88346 16.6649C3.88723 17.1206 3.36899 17.5942 2.8607 17.6006Z" fill="white"/>
<path d="M12.0648 8.58921V9.8398C12.2447 9.90846 12.4129 9.96519 12.5751 10.036C13.2132 10.314 13.3701 10.9219 12.9518 11.4809C12.7792 11.7111 12.6434 11.8043 12.1353 12.0408C12.0873 12.2878 12.0391 12.5311 11.9931 12.775C11.9676 12.9109 11.9036 13.0161 11.7572 13.0195C11.6028 13.0232 11.5486 12.896 11.521 12.773C11.4694 12.5422 11.4342 12.3078 11.3874 12.0481C11.2006 11.9975 10.9971 11.944 10.7947 11.8869C10.6966 11.8636 10.6006 11.8321 10.5077 11.7927C10.4271 11.7643 10.3596 11.7068 10.3183 11.631C10.2769 11.5553 10.2645 11.4668 10.2835 11.3824C10.3164 11.2187 10.4551 11.1152 10.6687 11.1293C10.9014 11.1447 11.1326 11.1848 11.3586 11.2134C11.453 10.9496 11.4638 10.7926 11.4226 10.3436C11.2652 10.2838 11.0948 10.2309 10.935 10.156C10.2866 9.85288 10.1437 9.19635 10.6032 8.64121C10.7928 8.39947 11.0427 8.21343 11.327 8.10234C11.4025 8.08176 11.4685 8.03536 11.5139 7.971C11.5593 7.90662 11.5814 7.82827 11.5762 7.7493C11.5778 7.62472 11.6045 7.5018 11.6548 7.38813C11.6764 7.3515 11.7065 7.32072 11.7424 7.29837C11.7782 7.27602 11.8189 7.26278 11.8608 7.25977C11.9015 7.27144 11.9388 7.29275 11.9697 7.32198C12.0006 7.3512 12.0242 7.38745 12.0385 7.42777C12.0666 7.57316 12.0818 7.72082 12.0842 7.86894C12.2387 7.90458 12.3912 7.94827 12.5413 7.9998C12.7808 8.09534 12.8941 8.28366 12.865 8.49821C12.8391 8.68817 12.7372 8.75241 12.5624 8.67435C12.4095 8.60642 12.267 8.5053 12.0648 8.58921ZM11.4736 8.83715C11.1453 9.03451 10.9775 9.24441 11.0381 9.4008C11.1106 9.58767 11.2787 9.63471 11.4736 9.66046V8.83715ZM12.0869 11.1809C12.305 11.0992 12.5049 11.0016 12.4983 10.7777C12.4927 10.5899 12.2885 10.5512 12.1225 10.5259C12.1129 10.5244 12.1021 10.5331 12.06 10.549C12.06 10.6798 12.0577 10.8229 12.0611 10.9659C12.0626 11.0285 12.0756 11.0909 12.0869 11.1809Z" fill="white"/>
<path d="M20.3713 2.89052V4.14122C20.5511 4.20989 20.7192 4.2666 20.8814 4.33682C21.5196 4.6148 21.6765 5.22286 21.2582 5.7818C21.0855 6.01191 20.9498 6.10508 20.4417 6.34167C20.3937 6.58876 20.3454 6.72908 20.2995 6.97287C20.2739 7.10878 20.2099 7.21402 20.0636 7.21751C19.9091 7.22112 19.8548 7.09397 19.8274 6.97094C19.7757 6.74023 19.7406 6.60875 19.6937 6.349C19.5069 6.29835 19.3036 6.24489 19.101 6.18785C19.003 6.1644 18.9071 6.13287 18.8141 6.09356C18.7334 6.06511 18.6659 6.00751 18.6246 5.93179C18.5833 5.85607 18.5709 5.76754 18.59 5.68318C18.6228 5.51957 18.7616 5.4161 18.975 5.43021C19.2079 5.44555 19.439 5.48569 19.6651 5.51431C19.7593 5.25055 19.7702 5.09344 19.729 4.64445C19.5716 4.58453 19.4012 4.53182 19.241 4.45687C18.5924 4.15377 18.4497 3.49723 18.9091 2.9421C19.0988 2.70035 19.3488 2.51431 19.6331 2.40322C19.7084 2.38263 19.7745 2.3362 19.8199 2.27184C19.8652 2.20748 19.8873 2.12915 19.8822 2.05019C19.8836 1.92561 19.9104 1.80271 19.9607 1.68904C19.9824 1.65242 20.0124 1.62159 20.0483 1.59924C20.0842 1.57687 20.1247 1.5636 20.1668 1.56055C20.2075 1.57224 20.2447 1.59359 20.2756 1.62283C20.3066 1.65207 20.3301 1.68837 20.3443 1.72868C20.3723 1.87408 20.3878 2.0217 20.3901 2.16983C20.5448 2.2054 20.6972 2.24909 20.8473 2.30068C21.0867 2.39613 21.2002 2.58445 21.1709 2.79901C21.1451 2.98906 21.0431 3.05319 20.8684 2.97515C20.7159 2.90762 20.5734 2.80661 20.3713 2.89052ZM19.7801 3.13844C19.4517 3.3359 19.2839 3.54583 19.3444 3.70222C19.4169 3.88898 19.5851 3.93613 19.7801 3.96188V3.13844ZM20.3932 5.48231C20.6113 5.40067 20.8113 5.30297 20.8046 5.07904C20.7992 4.89126 20.5949 4.85253 20.4288 4.8273C20.4192 4.82586 20.4084 4.8345 20.3663 4.85046C20.3663 4.98122 20.364 5.12434 20.3674 5.26724C20.3689 5.32994 20.3821 5.39234 20.3932 5.48231Z" fill="white"/>
<path d="M22.9936 0.730182C24.1045 1.50049 24.5158 2.63868 24.6398 3.93591C24.8568 6.20864 23.5261 7.62458 21.9657 8.22913C20.6801 8.72753 19.3615 8.98069 17.9934 8.5736C16.4068 8.10155 15.4713 6.81164 15.4127 5.13995C15.3395 3.05131 16.575 1.14829 18.6004 0.309313C19.8335 -0.20052 22.2289 0.200376 22.9936 0.730182ZM19.223 7.61838C19.8946 7.69962 21.1166 7.40712 21.7218 7.13759C22.8377 6.64011 23.655 5.72433 23.4651 4.05224C23.3067 2.65771 22.6084 1.5952 21.2762 1.31568C20.5809 1.1698 19.223 1.10432 18.532 1.40145C17.0233 2.05006 16.4376 3.58411 16.5162 5.26042C16.5929 6.89988 18.2227 7.49784 19.223 7.61881V7.61838Z" fill="white"/>
</g>
</g>
<defs>
<clipPath id="clip0_391_809">
<rect width="26" height="24" fill="white"/>
</clipPath>
</defs>
</svg>
