<svg width="378" height="510" viewBox="0 0 378 510" fill="none" xmlns="http://www.w3.org/2000/svg">
<g filter="url(#filter0_d_391_854)">
<rect x="10" y="9.55176" width="355" height="488" transform="rotate(-0.250469 10 9.55176)" fill="white"/>
</g>
<path d="M54.8411 46.5408L52.6252 46.5505C52.5379 46.0774 52.3774 45.6614 52.1439 45.3026C51.9103 44.9437 51.6249 44.6396 51.2876 44.3901C50.9503 44.1406 50.5731 43.9529 50.1559 43.8269C49.7434 43.7008 49.3051 43.6388 48.8411 43.6409C48.0031 43.6445 47.2535 43.8585 46.5925 44.2828C45.9362 44.7071 45.4181 45.3272 45.0381 46.1433C44.6629 46.9593 44.4778 47.9545 44.483 49.1287C44.4881 50.3124 44.6819 51.3106 45.0642 52.1234C45.4513 52.9361 45.9772 53.5493 46.6419 53.9631C47.3066 54.3768 48.0532 54.5819 48.8818 54.5783C49.3411 54.5763 49.7764 54.5128 50.1878 54.3879C50.6039 54.2582 50.9795 54.0696 51.3146 53.8219C51.6497 53.5742 51.9325 53.2723 52.1629 52.9162C52.3981 52.5553 52.5597 52.1427 52.6476 51.6783L54.8635 51.6757C54.7483 52.3912 54.5215 53.0503 54.1832 53.6531C53.8497 54.2512 53.4187 54.7692 52.8903 55.2071C52.3666 55.6402 51.7668 55.9767 51.0907 56.2164C50.4147 56.4561 49.6766 56.5777 48.8764 56.5812C47.6169 56.5867 46.4935 56.2933 45.506 55.701C44.5186 55.104 43.7383 54.248 43.1652 53.1331C42.5969 52.0181 42.3094 50.6865 42.3026 49.1382C42.2958 47.5852 42.5741 46.2511 43.1374 45.136C43.7007 44.0161 44.4734 43.1557 45.4557 42.5548C46.4379 41.9492 47.5563 41.6436 48.8111 41.6381C49.5828 41.6348 50.303 41.7429 50.9716 41.9625C51.6449 42.1774 52.25 42.4967 52.7869 42.9205C53.3237 43.3395 53.7687 43.8537 54.1218 44.4629C54.4748 45.0675 54.7145 45.7601 54.8411 46.5408ZM64.2302 51.791L64.2023 45.4061L66.333 45.3968L66.3807 56.3058L64.2926 56.3149L64.2844 54.4257L64.1707 54.4262C63.9223 55.0097 63.522 55.4968 62.9697 55.8874C62.4222 56.2734 61.7388 56.4681 60.9197 56.4717C60.2189 56.4748 59.598 56.3236 59.0569 56.0182C58.5205 55.708 58.0971 55.2482 57.7867 54.6388C57.481 54.0293 57.3261 53.2748 57.3222 52.3752L57.2919 45.4363L59.4154 45.427L59.4446 52.1102C59.4479 52.8536 59.6565 53.4445 60.0703 53.8831C60.4842 54.3216 61.0202 54.5394 61.6783 54.5365C62.076 54.5348 62.4709 54.4336 62.8631 54.2331C63.2599 54.0325 63.5877 53.7304 63.8463 53.3268C64.1097 52.9232 64.2377 52.4112 64.2302 51.791ZM69.234 56.2933L69.1863 45.3843L71.2388 45.3753L71.2464 47.1083L71.36 47.1078C71.5563 46.5198 71.9047 46.0566 72.4051 45.7183C72.9102 45.3751 73.4824 45.2022 74.1216 45.1994C74.2542 45.1988 74.4105 45.2029 74.5904 45.2115C74.7751 45.2202 74.9196 45.2314 75.0238 45.2452L75.0327 47.2764C74.9474 47.2531 74.7957 47.2277 74.5778 47.2003C74.3599 47.1681 74.142 47.1524 73.9242 47.1534C73.4223 47.1556 72.9753 47.2641 72.5833 47.4789C72.1959 47.6889 71.8894 47.9814 71.6638 48.3565C71.4381 48.7268 71.3263 49.1487 71.3284 49.6222L71.3575 56.284L69.234 56.2933ZM76.9097 56.2598L76.862 45.3508L78.9145 45.3418L78.9221 47.0747L79.0357 47.0742C79.232 46.4862 79.5804 46.0231 80.0808 45.6847C80.586 45.3416 81.1581 45.1686 81.7973 45.1658C81.9299 45.1653 82.0862 45.1693 82.2661 45.178C82.4508 45.1867 82.5953 45.1979 82.6995 45.2116L82.7084 47.2428C82.6231 47.2195 82.4714 47.1942 82.2535 47.1667C82.0356 47.1345 81.8177 47.1189 81.5999 47.1198C81.098 47.122 80.651 47.2305 80.259 47.4453C79.8716 47.6553 79.5651 47.9479 79.3395 48.3229C79.1138 48.6932 79.0021 49.1151 79.0041 49.5886L79.0332 56.2505L76.9097 56.2598ZM88.8974 56.4275C87.8226 56.4322 86.8959 56.2066 86.1174 55.7507C85.3436 55.2901 84.7442 54.6417 84.3191 53.8055C83.8988 52.9645 83.6861 51.9782 83.6812 50.8466C83.6763 49.7292 83.8803 48.7434 84.2933 47.8893C84.7109 47.0352 85.2951 46.3674 86.0459 45.8859C86.8014 45.4044 87.6857 45.1614 88.699 45.157C89.3145 45.1543 89.9115 45.2535 90.4901 45.4545C91.0686 45.6556 91.5885 45.9729 92.0496 46.4065C92.5108 46.8401 92.8755 47.4044 93.1437 48.0992C93.4119 48.7893 93.5481 49.6292 93.5524 50.6188L93.5557 51.3716L84.8839 51.4095L84.877 49.8186L91.4678 49.7898C91.4654 49.2311 91.3496 48.7368 91.1204 48.3069C90.8913 47.8723 90.5702 47.5304 90.1571 47.2813C89.7489 47.0321 89.2701 46.9088 88.7209 46.9112C88.1243 46.9138 87.6041 47.0628 87.1603 47.3583C86.7212 47.6491 86.382 48.0293 86.1425 48.4991C85.9078 48.9642 85.7917 49.469 85.794 50.0135L85.7995 51.2564C85.8027 51.9855 85.9332 52.6052 86.1911 53.1155C86.4538 53.6257 86.8177 54.0147 87.2829 54.2826C87.7481 54.5457 88.2908 54.6759 88.911 54.6732C89.3135 54.6714 89.6802 54.613 90.0111 54.4979C90.3421 54.3781 90.6277 54.2017 90.8682 53.9686C91.1087 53.7355 91.2921 53.4483 91.4184 53.1068L93.4299 53.4602C93.2715 54.0528 92.985 54.5725 92.5703 55.0194C92.1603 55.4615 91.6433 55.8071 91.0194 56.056C90.4002 56.3002 89.6928 56.424 88.8974 56.4275ZM98.0282 49.6901L98.0565 56.1673L95.9329 56.1766L95.8853 45.2676L97.9236 45.2587L97.9314 47.0342L98.0663 47.0337C98.3147 46.4549 98.7057 45.9892 99.2392 45.6365C99.7774 45.2837 100.456 45.1056 101.275 45.102C102.019 45.0987 102.67 45.2521 103.23 45.5622C103.79 45.8675 104.226 46.3249 104.536 46.9343C104.847 47.5438 105.004 48.2983 105.008 49.1979L105.038 56.1368L102.914 56.1461L102.885 49.4629C102.882 48.6722 102.673 48.0552 102.259 47.6119C101.845 47.1639 101.279 46.9415 100.559 46.9446C100.066 46.9468 99.6289 47.0552 99.2463 47.27C98.8685 47.4847 98.5692 47.7985 98.3484 48.2114C98.1324 48.6196 98.0257 49.1124 98.0282 49.6901ZM112.482 56.3244C111.426 56.329 110.516 56.0939 109.752 55.619C108.992 55.1394 108.407 54.4767 107.996 53.6309C107.585 52.7852 107.377 51.8154 107.372 50.7217C107.367 49.6138 107.571 48.6351 107.984 47.7858C108.397 46.9317 108.982 46.2639 109.737 45.7823C110.493 45.3008 111.384 45.0578 112.411 45.0533C113.24 45.0497 113.979 45.2003 114.629 45.5053C115.279 45.8055 115.804 46.2293 116.205 46.7768C116.609 47.3243 116.851 47.9648 116.93 48.6984L114.864 48.7074C114.748 48.1965 114.485 47.7573 114.077 47.3898C113.672 47.0222 113.132 46.84 112.455 46.8429C111.863 46.8455 111.345 47.004 110.901 47.3185C110.462 47.6281 110.121 48.07 109.877 48.644C109.634 49.2132 109.514 49.8861 109.517 50.6626C109.52 51.4581 109.644 52.1441 109.888 52.7207C110.132 53.2973 110.475 53.7432 110.917 54.0585C111.363 54.3738 111.887 54.5301 112.488 54.5275C112.891 54.5257 113.255 54.4508 113.581 54.3025C113.912 54.1496 114.188 53.9329 114.409 53.6526C114.635 53.3723 114.792 53.0354 114.881 52.642L116.947 52.633C116.875 53.3388 116.648 53.9695 116.267 54.5252C115.886 55.0808 115.374 55.5187 114.731 55.8387C114.094 56.1588 113.344 56.3207 112.482 56.3244ZM119.234 56.0747L119.186 45.1657L121.309 45.1565L121.357 56.0654L119.234 56.0747ZM120.251 43.4778C119.882 43.4794 119.564 43.3577 119.298 43.1127C119.036 42.8629 118.905 42.5651 118.903 42.2195C118.902 41.8691 119.03 41.5703 119.29 41.3229C119.554 41.0708 119.87 40.944 120.24 40.9423C120.609 40.9407 120.925 41.0648 121.186 41.3146C121.452 41.5597 121.586 41.8574 121.588 42.2078C121.589 42.5534 121.458 42.8523 121.194 43.1044C120.935 43.3517 120.62 43.4762 120.251 43.4778ZM128.917 56.2526C127.842 56.2573 126.915 56.0317 126.137 55.5758C125.363 55.1152 124.763 54.4667 124.338 53.6305C123.918 52.7895 123.705 51.8032 123.7 50.6716C123.695 49.5542 123.899 48.5685 124.312 47.7144C124.73 46.8603 125.314 46.1925 126.065 45.711C126.821 45.2294 127.705 44.9865 128.718 44.982C129.334 44.9793 129.931 45.0785 130.509 45.2796C131.088 45.4807 131.608 45.798 132.069 46.2316C132.53 46.6652 132.895 47.2294 133.163 47.9243C133.431 48.6144 133.567 49.4542 133.572 50.4438L133.575 51.1966L124.903 51.2346L124.896 49.6437L131.487 49.6149C131.485 49.0561 131.369 48.5619 131.14 48.132C130.91 47.6974 130.589 47.3555 130.176 47.1064C129.768 46.8572 129.289 46.7338 128.74 46.7362C128.143 46.7388 127.623 46.8879 127.179 47.1834C126.74 47.4741 126.401 47.8544 126.162 48.3242C125.927 48.7892 125.811 49.294 125.813 49.8385L125.819 51.0814C125.822 51.8106 125.952 52.4303 126.21 52.9405C126.473 53.4507 126.837 53.8398 127.302 54.1076C127.767 54.3707 128.31 54.5009 128.93 54.4982C129.333 54.4965 129.699 54.4381 130.03 54.323C130.361 54.2032 130.647 54.0267 130.887 53.7937C131.128 53.5606 131.311 53.2733 131.438 52.9319L133.449 53.2853C133.291 53.8778 133.004 54.3976 132.589 54.8445C132.179 55.2866 131.662 55.6321 131.039 55.8811C130.419 56.1253 129.712 56.2491 128.917 56.2526ZM144.091 47.7202L142.167 48.0696C142.086 47.8237 141.957 47.5899 141.781 47.3681C141.609 47.1463 141.377 46.9651 141.082 46.8243C140.788 46.6835 140.421 46.6141 139.981 46.616C139.379 46.6187 138.878 46.7558 138.477 47.0275C138.076 47.2944 137.876 47.6385 137.878 48.0599C137.879 48.4245 138.015 48.7175 138.286 48.9388C138.557 49.1602 138.994 49.3406 139.595 49.48L141.33 49.8701C142.335 50.0977 143.085 50.4519 143.579 50.9327C144.074 51.4135 144.323 52.0398 144.326 52.8116C144.329 53.465 144.142 54.0482 143.765 54.5612C143.394 55.0695 142.872 55.4695 142.201 55.7613C141.535 56.053 140.761 56.2008 139.881 56.2046C138.659 56.21 137.661 55.9539 136.887 55.4365C136.113 54.9143 135.636 54.1706 135.457 53.2055L137.508 52.884C137.638 53.4185 137.903 53.8222 138.302 54.095C138.701 54.3632 139.22 54.4959 139.859 54.4931C140.555 54.49 141.111 54.3432 141.526 54.0525C141.941 53.7572 142.148 53.3988 142.146 52.9774C142.145 52.6365 142.016 52.3506 141.759 52.1197C141.507 51.8888 141.12 51.7153 140.599 51.5992L138.751 51.2024C137.732 50.9749 136.977 50.6089 136.487 50.1044C136.002 49.5998 135.758 48.9593 135.755 48.1828C135.752 47.5389 135.929 46.9747 136.287 46.4901C136.645 46.0056 137.14 45.627 137.773 45.3544C138.407 45.077 139.133 44.9365 139.952 44.9329C141.131 44.9278 142.06 45.1794 142.739 45.6878C143.419 46.1914 143.869 46.8689 144.091 47.7202ZM152.138 55.9309L152.074 41.3856L157.259 41.3629C158.391 41.358 159.329 41.5598 160.074 41.9685C160.819 42.3772 161.378 42.9382 161.751 43.6515C162.123 44.3601 162.311 45.1595 162.315 46.0497C162.319 46.9445 162.135 47.7503 161.765 48.4669C161.398 49.1787 160.842 49.7446 160.096 50.1645C159.354 50.5797 158.42 50.7897 157.293 50.7947L153.728 50.8103L153.72 48.9495L157.086 48.9348C157.801 48.9316 158.381 48.806 158.825 48.5578C159.269 48.3049 159.594 47.9626 159.8 47.5308C160.007 47.0991 160.109 46.6085 160.106 46.0593C160.104 45.5101 159.998 45.0228 159.787 44.5976C159.577 44.1724 159.247 43.84 158.796 43.6005C158.35 43.361 157.762 43.2428 157.033 43.246L154.277 43.2581L154.333 55.9213L152.138 55.9309ZM164.76 55.8757L164.713 44.9667L166.765 44.9577L166.773 46.6907L166.886 46.6902C167.083 46.1022 167.431 45.639 167.932 45.3007C168.437 44.9575 169.009 44.7846 169.648 44.7818C169.781 44.7812 169.937 44.7853 170.117 44.7939C170.302 44.8026 170.446 44.8138 170.55 44.8276L170.559 46.8588C170.474 46.8355 170.322 46.8101 170.104 46.7827C169.886 46.7505 169.668 46.7348 169.451 46.7358C168.949 46.738 168.502 46.8465 168.11 47.0613C167.722 47.2713 167.416 47.5638 167.19 47.9389C166.965 48.3092 166.853 48.7311 166.855 49.2046L166.884 55.8664L164.76 55.8757ZM176.642 56.0439C175.619 56.0484 174.725 55.8179 173.961 55.3525C173.197 54.8871 172.602 54.2339 172.177 53.393C171.752 52.552 171.537 51.5681 171.532 50.4412C171.527 49.3096 171.733 48.3191 172.151 47.4697C172.569 46.6204 173.158 45.9596 173.918 45.4876C174.678 45.0155 175.57 44.7772 176.592 44.7727C177.615 44.7683 178.509 44.9987 179.273 45.4642C180.037 45.9296 180.632 46.5851 181.057 47.4308C181.482 48.2765 181.697 49.2651 181.702 50.3968C181.707 51.5236 181.501 52.5094 181.083 53.354C180.665 54.1987 180.076 54.857 179.316 55.3291C178.556 55.8012 177.664 56.0395 176.642 56.0439ZM176.641 54.2613C177.304 54.2584 177.852 54.0808 178.286 53.7285C178.72 53.3762 179.04 52.9084 179.246 52.3251C179.457 51.7418 179.56 51.0998 179.557 50.399C179.554 49.703 179.445 49.0643 179.229 48.4828C179.018 47.8966 178.694 47.4269 178.257 47.0737C177.82 46.7205 177.27 46.5454 176.607 46.5483C175.94 46.5512 175.386 46.7312 174.948 47.0882C174.514 47.4452 174.191 47.9177 173.981 48.5058C173.775 49.0891 173.674 49.7287 173.677 50.4247C173.68 51.1255 173.787 51.7666 173.998 52.3481C174.213 52.9295 174.54 53.3945 174.977 53.743C175.419 54.0914 175.973 54.2642 176.641 54.2613ZM188.692 55.9913C187.636 55.9959 186.726 55.7607 185.962 55.2859C185.202 54.8062 184.617 54.1435 184.206 53.2978C183.795 52.452 183.587 51.4823 183.582 50.3885C183.578 49.2806 183.782 48.302 184.195 47.4526C184.608 46.5985 185.192 45.9307 185.947 45.4492C186.703 44.9677 187.594 44.7246 188.622 44.7202C189.45 44.7165 190.19 44.8672 190.84 45.1721C191.49 45.4723 192.015 45.8961 192.415 46.4436C192.82 46.9911 193.062 47.6316 193.14 48.3652L191.074 48.3742C190.958 47.8634 190.696 47.4242 190.287 47.0566C189.883 46.6891 189.342 46.5068 188.665 46.5098C188.073 46.5123 187.555 46.6709 187.112 46.9853C186.673 47.295 186.331 47.7368 186.088 48.3108C185.844 48.8801 185.724 49.5529 185.727 50.3295C185.731 51.1249 185.854 51.8109 186.098 52.3875C186.342 52.9641 186.685 53.41 187.127 53.7254C187.573 54.0406 188.097 54.197 188.699 54.1943C189.101 54.1926 189.465 54.1176 189.791 53.9694C190.122 53.8164 190.398 53.5998 190.62 53.3195C190.846 53.0391 191.003 52.7022 191.091 52.3089L193.158 52.2998C193.085 53.0056 192.858 53.6364 192.477 54.192C192.096 54.7477 191.584 55.1855 190.942 55.5056C190.304 55.8256 189.554 55.9875 188.692 55.9913ZM200.146 55.9412C199.072 55.9459 198.145 55.7203 197.366 55.2644C196.593 54.8038 195.993 54.1554 195.568 53.3191C195.148 52.4782 194.935 51.4919 194.93 50.3602C194.925 49.2428 195.129 48.2571 195.542 47.403C195.96 46.5489 196.544 45.8811 197.295 45.3996C198.05 44.918 198.935 44.6751 199.948 44.6706C200.563 44.668 201.16 44.7671 201.739 44.9682C202.318 45.1693 202.837 45.4866 203.299 45.9202C203.76 46.3538 204.124 46.918 204.393 47.6129C204.661 48.303 204.797 49.1429 204.801 50.1324L204.805 50.8853L196.133 50.9232L196.126 49.3323L202.717 49.3035C202.714 48.7448 202.599 48.2505 202.369 47.8206C202.14 47.386 201.819 47.0441 201.406 46.795C200.998 46.5458 200.519 46.4224 199.97 46.4248C199.373 46.4274 198.853 46.5765 198.409 46.872C197.97 47.1627 197.631 47.543 197.391 48.0128C197.157 48.4779 197.041 48.9826 197.043 49.5271L197.048 50.77C197.052 51.4992 197.182 52.1189 197.44 52.6291C197.703 53.1393 198.067 53.5284 198.532 53.7962C198.997 54.0594 199.54 54.1896 200.16 54.1869C200.562 54.1851 200.929 54.1267 201.26 54.0116C201.591 53.8918 201.877 53.7153 202.117 53.4823C202.358 53.2492 202.541 52.9619 202.667 52.6205L204.679 52.9739C204.52 53.5665 204.234 54.0862 203.819 54.5331C203.409 54.9752 202.892 55.3208 202.268 55.5697C201.649 55.8139 200.942 55.9377 200.146 55.9412ZM215.32 47.4089L213.397 47.7582C213.316 47.5123 213.187 47.2785 213.011 47.0567C212.839 46.835 212.606 46.6537 212.312 46.5129C212.018 46.3722 211.651 46.3027 211.21 46.3047C210.609 46.3073 210.108 46.4444 209.707 46.7161C209.305 46.983 209.106 47.3271 209.107 47.7485C209.109 48.1131 209.245 48.4061 209.516 48.6274C209.787 48.8488 210.223 49.0292 210.825 49.1686L212.56 49.5587C213.565 49.7864 214.314 50.1406 214.809 50.6214C215.303 51.1022 215.552 51.7284 215.556 52.5002C215.559 53.1536 215.372 53.7368 214.995 54.2498C214.623 54.7581 214.102 55.1581 213.431 55.4499C212.765 55.7416 211.991 55.8894 211.11 55.8933C209.889 55.8986 208.891 55.6425 208.117 55.1251C207.343 54.6029 206.866 53.8592 206.687 52.8941L208.738 52.5726C208.868 53.1071 209.133 53.5108 209.532 53.7837C209.93 54.0518 210.449 54.1845 211.089 54.1817C211.785 54.1786 212.34 54.0318 212.756 53.7412C213.171 53.4458 213.378 53.0874 213.376 52.666C213.375 52.3251 213.246 52.0392 212.989 51.8083C212.737 51.5774 212.35 51.4039 211.829 51.2878L209.981 50.891C208.962 50.6635 208.207 50.2975 207.717 49.793C207.232 49.2885 206.988 48.648 206.984 47.8714C206.982 47.2275 207.159 46.6633 207.517 46.1788C207.874 45.6942 208.37 45.3156 209.003 45.043C209.637 44.7656 210.363 44.6251 211.182 44.6215C212.361 44.6164 213.29 44.868 213.969 45.3764C214.649 45.8801 215.099 46.5576 215.32 47.4089ZM226.043 47.362L224.12 47.7113C224.038 47.4655 223.909 47.2316 223.733 47.0099C223.562 46.7881 223.329 46.6068 223.035 46.466C222.741 46.3253 222.373 46.2559 221.933 46.2578C221.332 46.2604 220.83 46.3976 220.429 46.6692C220.028 46.9361 219.828 47.2803 219.83 47.7017C219.832 48.0662 219.968 48.3592 220.239 48.5806C220.509 48.8019 220.946 48.9823 221.548 49.1217L223.283 49.5119C224.287 49.7395 225.037 50.0937 225.532 50.5745C226.026 51.0553 226.275 51.6816 226.278 52.4533C226.281 53.1067 226.094 53.69 225.718 54.203C225.346 54.7112 224.825 55.1112 224.153 55.403C223.487 55.6947 222.714 55.8425 221.833 55.8464C220.611 55.8517 219.614 55.5957 218.839 55.0782C218.065 54.556 217.589 53.8124 217.409 52.8472L219.46 52.5258C219.591 53.0602 219.855 53.4639 220.254 53.7368C220.653 54.0049 221.172 54.1376 221.811 54.1348C222.507 54.1318 223.063 53.9849 223.478 53.6943C223.894 53.3989 224.101 53.0405 224.099 52.6191C224.097 52.2782 223.968 51.9923 223.711 51.7614C223.459 51.5305 223.073 51.357 222.551 51.2409L220.703 50.8442C219.684 50.6166 218.93 50.2506 218.44 49.7461C217.955 49.2416 217.71 48.6011 217.707 47.8246C217.704 47.1806 217.882 46.6164 218.239 46.1319C218.597 45.6474 219.093 45.2688 219.726 44.9961C220.359 44.7187 221.085 44.5782 221.904 44.5747C223.083 44.5695 224.012 44.8211 224.692 45.3295C225.371 45.8332 225.822 46.5107 226.043 47.362ZM233.33 55.7961C232.255 55.8008 231.328 55.5752 230.55 55.1194C229.776 54.6587 229.176 54.0103 228.751 53.1741C228.331 52.3331 228.118 51.3468 228.113 50.2152C228.109 49.0978 228.313 48.112 228.725 47.2579C229.143 46.4038 229.727 45.736 230.478 45.2545C231.234 44.773 232.118 44.53 233.131 44.5256C233.747 44.5229 234.344 44.6221 234.922 44.8232C235.501 45.0242 236.021 45.3416 236.482 45.7751C236.943 46.2087 237.308 46.773 237.576 47.4678C237.844 48.1579 237.98 48.9978 237.985 49.9874L237.988 50.7402L229.316 50.7781L229.309 49.1872L235.9 49.1584C235.898 48.5997 235.782 48.1054 235.553 47.6755C235.323 47.2409 235.002 46.8991 234.589 46.6499C234.181 46.4007 233.702 46.2774 233.153 46.2798C232.556 46.2824 232.036 46.4314 231.593 46.7269C231.153 47.0177 230.814 47.398 230.575 47.8678C230.34 48.3328 230.224 48.8376 230.226 49.3821L230.232 50.625C230.235 51.3541 230.365 51.9738 230.623 52.4841C230.886 52.9943 231.25 53.3833 231.715 53.6512C232.18 53.9143 232.723 54.0445 233.343 54.0418C233.746 54.04 234.112 53.9816 234.443 53.8665C234.774 53.7467 235.06 53.5703 235.3 53.3372C235.541 53.1041 235.724 52.8169 235.851 52.4754L237.862 52.8288C237.704 53.4214 237.417 53.9411 237.002 54.388C236.592 54.8302 236.076 55.1757 235.452 55.4246C234.832 55.6688 234.125 55.7927 233.33 55.7961ZM244.45 55.7404C243.569 55.7443 242.782 55.5228 242.089 55.076C241.4 54.6245 240.858 53.9805 240.461 53.1442C240.069 52.3031 239.871 51.2931 239.866 50.1141C239.86 48.9351 240.052 47.9258 240.442 47.086C240.836 46.2462 241.378 45.6022 242.067 45.1541C242.756 44.706 243.539 44.4801 244.415 44.4763C245.092 44.4733 245.637 44.5845 246.05 44.81C246.467 45.0307 246.791 45.2897 247.019 45.587C247.252 45.8843 247.434 46.1463 247.562 46.373L247.69 46.3725L247.667 40.9677L249.79 40.9584L249.854 55.5037L247.78 55.5128L247.772 53.8154L247.595 53.8161C247.468 54.0487 247.285 54.3147 247.044 54.614C246.809 54.9133 246.483 55.1752 246.068 55.3995C245.652 55.6239 245.113 55.7375 244.45 55.7404ZM244.911 53.9273C245.521 53.9246 246.037 53.7614 246.457 53.4376C246.882 53.109 247.202 52.6554 247.417 52.0768C247.637 51.4982 247.745 50.8254 247.742 50.0584C247.739 49.3008 247.627 48.6384 247.406 48.0712C247.186 47.5039 246.865 47.0626 246.442 46.7472C246.019 46.4319 245.498 46.2755 244.877 46.2782C244.238 46.281 243.706 46.4491 243.281 46.7824C242.857 47.1157 242.537 47.5692 242.321 48.1431C242.111 48.717 242.007 49.3637 242.01 50.0834C242.014 50.8126 242.125 51.4679 242.346 52.0493C242.566 52.6307 242.89 53.091 243.318 53.43C243.75 53.7643 244.281 53.9301 244.911 53.9273Z" fill="black"/>
<path d="M42.5243 116.411L42.4862 107.683L45.435 107.67C46.1196 107.667 46.6798 107.789 47.1156 108.034C47.5541 108.276 47.8794 108.606 48.0915 109.023C48.3035 109.439 48.4107 109.905 48.4129 110.419C48.4152 110.933 48.3121 111.401 48.1037 111.822C47.8982 112.244 47.5786 112.58 47.1451 112.832C46.7115 113.081 46.1552 113.207 45.4763 113.21L43.3626 113.219L43.3585 112.282L45.4381 112.273C45.9068 112.271 46.2829 112.188 46.5663 112.025C46.8496 111.862 47.0546 111.642 47.1813 111.366C47.3107 111.087 47.3747 110.773 47.3732 110.423C47.3717 110.074 47.3049 109.762 47.1731 109.487C47.044 109.212 46.8357 108.997 46.5481 108.842C46.2605 108.684 45.8794 108.606 45.405 108.608L43.5471 108.616L43.5811 116.406L42.5243 116.411ZM51.9318 116.523C51.5171 116.525 51.1403 116.448 50.8016 116.293C50.4628 116.136 50.1933 115.908 49.9932 115.611C49.793 115.311 49.692 114.947 49.6901 114.521C49.6885 114.146 49.761 113.842 49.9077 113.608C50.0544 113.372 50.2511 113.186 50.4976 113.052C50.7442 112.917 51.0165 112.817 51.3145 112.75C51.6153 112.68 51.9176 112.625 52.2214 112.584C52.6189 112.531 52.9412 112.491 53.1883 112.465C53.4381 112.435 53.6198 112.388 53.7331 112.322C53.8493 112.256 53.907 112.142 53.9063 111.98L53.9062 111.946C53.9043 111.526 53.7879 111.199 53.5567 110.967C53.3284 110.735 52.9828 110.62 52.5197 110.622C52.0396 110.625 51.6636 110.731 51.3918 110.943C51.12 111.154 50.9292 111.379 50.8195 111.619L49.8635 111.282C50.0322 110.883 50.2581 110.573 50.5412 110.35C50.8272 110.124 51.139 109.967 51.4767 109.877C51.8172 109.785 52.1522 109.738 52.4817 109.736C52.692 109.735 52.9335 109.76 53.2065 109.81C53.4823 109.857 53.7483 109.957 54.0047 110.109C54.2639 110.261 54.4794 110.492 54.6512 110.801C54.823 111.11 54.91 111.524 54.9123 112.044L54.9311 116.356L53.9255 116.361L53.9216 115.474L53.8705 115.475C53.8029 115.617 53.6899 115.769 53.5316 115.932C53.3732 116.095 53.1621 116.233 52.8984 116.348C52.6347 116.463 52.3125 116.521 51.9318 116.523ZM52.0813 115.619C52.479 115.617 52.8139 115.537 53.086 115.38C53.3608 115.223 53.5673 115.02 53.7055 114.772C53.8464 114.524 53.9163 114.264 53.9151 113.991L53.9111 113.071C53.8687 113.122 53.7752 113.17 53.6305 113.213C53.4886 113.253 53.324 113.289 53.1366 113.322C52.9521 113.351 52.7718 113.377 52.5958 113.401C52.4226 113.421 52.282 113.439 52.1741 113.454C51.9129 113.489 51.6688 113.545 51.4419 113.623C51.2178 113.698 51.0365 113.811 50.8979 113.962C50.7622 114.11 50.6949 114.312 50.696 114.568C50.6975 114.917 50.828 115.181 51.0873 115.359C51.3494 115.534 51.6807 115.621 52.0813 115.619ZM57.1908 118.801C57.0203 118.802 56.8683 118.788 56.7346 118.76C56.601 118.735 56.5086 118.71 56.4573 118.685L56.7091 117.797C56.9537 117.859 57.1697 117.881 57.3571 117.863C57.5446 117.845 57.7104 117.76 57.8546 117.609C58.0017 117.461 58.1356 117.22 58.2563 116.887L58.4416 116.375L55.9924 109.806L57.0833 109.801L58.9129 115.009L58.981 115.009L60.765 109.785L61.8559 109.781L59.1104 117.293C58.9868 117.631 58.8332 117.912 58.6495 118.134C58.4659 118.359 58.2521 118.526 58.0083 118.635C57.7673 118.745 57.4948 118.8 57.1908 118.801ZM63.212 116.32L63.1833 109.775L64.1549 109.77L64.1594 110.793L64.2446 110.793C64.3795 110.443 64.5984 110.171 64.9016 109.976C65.2047 109.779 65.5693 109.679 65.9955 109.677C66.4273 109.675 66.7871 109.772 67.0749 109.967C67.3655 110.158 67.5925 110.429 67.756 110.777L67.8241 110.777C67.9903 110.438 68.2405 110.169 68.5749 109.968C68.9092 109.765 69.3108 109.663 69.7795 109.661C70.3647 109.658 70.8442 109.839 71.218 110.204C71.5917 110.566 71.7803 111.132 71.7836 111.902L71.8028 116.283L70.7971 116.287L70.778 111.906C70.7759 111.423 70.6422 111.079 70.3771 110.873C70.112 110.666 69.8005 110.564 69.4425 110.566C68.9823 110.568 68.6264 110.708 68.3748 110.988C68.1231 111.265 67.9983 111.614 68.0001 112.038L68.0187 116.299L66.996 116.304L66.9764 111.821C66.9748 111.449 66.8527 111.149 66.6103 110.923C66.3678 110.694 66.0562 110.58 65.6755 110.582C65.4142 110.583 65.1702 110.654 64.9435 110.794C64.7197 110.934 64.5387 111.128 64.4006 111.376C64.2653 111.621 64.1983 111.904 64.1998 112.225L64.2176 116.316L63.212 116.32ZM76.3864 116.399C75.7558 116.402 75.2111 116.265 74.7525 115.988C74.2968 115.709 73.9442 115.319 73.6948 114.817C73.4483 114.312 73.3236 113.725 73.3207 113.054C73.3177 112.384 73.4373 111.792 73.6794 111.28C73.9243 110.765 74.2663 110.363 74.7054 110.074C75.1473 109.782 75.6637 109.635 76.2546 109.632C76.5955 109.631 76.9324 109.686 77.2653 109.798C77.5981 109.911 77.9015 110.094 78.1753 110.348C78.4492 110.6 78.668 110.934 78.8317 111.351C78.9955 111.768 79.0787 112.282 79.0814 112.893L79.0832 113.319L74.0378 113.341L74.034 112.472L78.0567 112.454C78.0551 112.085 77.9798 111.756 77.8308 111.466C77.6846 111.177 77.4763 110.949 77.2056 110.783C76.9379 110.617 76.6222 110.534 76.2585 110.536C75.858 110.538 75.5118 110.638 75.2201 110.839C74.9312 111.036 74.7093 111.293 74.5544 111.609C74.3995 111.925 74.3229 112.263 74.3245 112.624L74.327 113.203C74.3292 113.698 74.4162 114.116 74.5882 114.459C74.763 114.799 75.0041 115.058 75.3117 115.236C75.6193 115.411 75.9762 115.497 76.3825 115.495C76.6467 115.494 76.8852 115.456 77.0979 115.382C77.3135 115.304 77.4991 115.189 77.6547 115.038C77.8102 114.884 77.9301 114.693 78.0144 114.466L78.9871 114.734C78.8863 115.064 78.7157 115.355 78.4753 115.606C78.2349 115.854 77.9375 116.048 77.583 116.189C77.2285 116.327 76.8296 116.397 76.3864 116.399ZM81.6143 112.302L81.6315 116.24L80.6259 116.244L80.5972 109.699L81.5688 109.694L81.5733 110.717L81.6585 110.717C81.8105 110.384 82.0423 110.116 82.3539 109.913C82.6655 109.707 83.0684 109.603 83.5628 109.6C84.0059 109.598 84.3941 109.688 84.7273 109.868C85.0605 110.046 85.3202 110.317 85.5064 110.683C85.6927 111.046 85.787 111.505 85.7894 112.062L85.8076 116.221L84.802 116.226L84.7841 112.135C84.7818 111.621 84.6466 111.221 84.3783 110.935C84.1099 110.646 83.7428 110.503 83.2769 110.505C82.9559 110.506 82.6693 110.577 82.4171 110.718C82.1677 110.858 81.9711 111.062 81.8274 111.33C81.6837 111.597 81.6127 111.921 81.6143 112.302ZM90.4633 109.655L90.467 110.508L87.075 110.523L87.0713 109.67L90.4633 109.655ZM88.053 108.098L89.0587 108.093L89.086 114.332C89.0872 114.616 89.1293 114.829 89.2123 114.971C89.2982 115.109 89.4065 115.203 89.5374 115.25C89.6712 115.295 89.8119 115.317 89.9596 115.317C90.0704 115.316 90.1613 115.31 90.2323 115.299C90.3032 115.284 90.36 115.272 90.4026 115.264L90.6111 116.166C90.543 116.192 90.4479 116.218 90.3259 116.244C90.2038 116.273 90.0491 116.288 89.8616 116.289C89.5775 116.29 89.2988 116.23 89.0256 116.109C88.7551 115.988 88.5299 115.803 88.3498 115.554C88.1726 115.305 88.0832 114.99 88.0815 114.609L88.053 108.098ZM96.5016 111.095L95.5993 111.355C95.5418 111.204 95.4574 111.058 95.346 110.917C95.2374 110.772 95.0891 110.654 94.9012 110.561C94.7133 110.468 94.4731 110.422 94.1804 110.423C93.7799 110.425 93.4465 110.519 93.1802 110.705C92.9168 110.888 92.7857 111.12 92.787 111.401C92.7881 111.651 92.8798 111.848 93.0623 111.992C93.2447 112.136 93.5294 112.256 93.9161 112.351L94.8888 112.585C95.4746 112.724 95.9116 112.94 96.1998 113.231C96.488 113.52 96.6331 113.893 96.6351 114.35C96.6368 114.725 96.5303 115.061 96.3157 115.357C96.1039 115.654 95.8066 115.888 95.4238 116.06C95.0411 116.232 94.5954 116.319 94.0869 116.322C93.4193 116.324 92.8661 116.182 92.4274 115.894C91.9886 115.606 91.7098 115.184 91.5908 114.628L92.5443 114.385C92.6368 114.737 92.8098 115 93.0634 115.175C93.3199 115.35 93.6541 115.437 94.066 115.435C94.5347 115.433 94.9065 115.332 95.1812 115.132C95.4587 114.929 95.5968 114.687 95.5956 114.406C95.5946 114.179 95.5142 113.989 95.3545 113.836C95.1947 113.68 94.9499 113.565 94.62 113.49L93.528 113.239C92.9279 113.099 92.4866 112.881 92.2041 112.584C91.9244 112.284 91.7835 111.908 91.7815 111.457C91.7799 111.087 91.8822 110.76 92.0883 110.475C92.2973 110.19 92.5818 109.966 92.9419 109.802C93.3048 109.639 93.7164 109.556 94.1766 109.554C94.8244 109.551 95.3335 109.691 95.7041 109.973C96.0775 110.256 96.3433 110.63 96.5016 111.095ZM102.026 116.15L100.918 116.155L104.085 107.414L105.176 107.409L108.418 116.122L107.31 116.127L104.67 108.792L104.602 108.793L102.026 116.15ZM102.42 112.74L106.886 112.72L106.89 113.658L102.425 113.677L102.42 112.74ZM110.63 112.175L110.647 116.113L109.641 116.117L109.613 109.572L110.584 109.568L110.589 110.59L110.674 110.59C110.826 110.257 111.058 109.989 111.369 109.786C111.681 109.58 112.084 109.476 112.578 109.474C113.021 109.472 113.409 109.561 113.743 109.741C114.076 109.919 114.336 110.19 114.522 110.556C114.708 110.919 114.802 111.379 114.805 111.935L114.823 116.094L113.817 116.099L113.799 112.008C113.797 111.494 113.662 111.094 113.394 110.808C113.125 110.519 112.758 110.376 112.292 110.378C111.971 110.38 111.685 110.45 111.432 110.591C111.183 110.731 110.986 110.935 110.843 111.203C110.699 111.47 110.628 111.795 110.63 112.175ZM118.587 116.231C118.173 116.233 117.796 116.157 117.457 116.002C117.118 115.844 116.849 115.617 116.649 115.319C116.449 115.019 116.348 114.656 116.346 114.23C116.344 113.855 116.417 113.551 116.563 113.317C116.71 113.081 116.907 112.895 117.153 112.76C117.4 112.626 117.672 112.525 117.97 112.459C118.271 112.389 118.573 112.334 118.877 112.293C119.275 112.24 119.597 112.2 119.844 112.173C120.094 112.144 120.275 112.096 120.389 112.03C120.505 111.965 120.563 111.851 120.562 111.689L120.562 111.655C120.56 111.234 120.443 110.908 120.212 110.676C119.984 110.444 119.638 110.329 119.175 110.331C118.695 110.333 118.319 110.44 118.047 110.651C117.776 110.863 117.585 111.088 117.475 111.327L116.519 110.99C116.688 110.592 116.914 110.281 117.197 110.058C117.483 109.833 117.795 109.675 118.132 109.586C118.473 109.493 118.808 109.446 119.137 109.445C119.348 109.444 119.589 109.468 119.862 109.518C120.138 109.566 120.404 109.665 120.66 109.817C120.919 109.97 121.135 110.2 121.307 110.509C121.479 110.818 121.566 111.233 121.568 111.752L121.587 116.065L120.581 116.069L120.577 115.183L120.526 115.183C120.459 115.326 120.346 115.478 120.187 115.641C120.029 115.803 119.818 115.942 119.554 116.057C119.29 116.172 118.968 116.23 118.587 116.231ZM118.737 115.327C119.135 115.326 119.47 115.246 119.742 115.089C120.016 114.931 120.223 114.729 120.361 114.481C120.502 114.233 120.572 113.973 120.571 113.7L120.567 112.78C120.524 112.831 120.431 112.878 120.286 112.921C120.144 112.962 119.98 112.998 119.792 113.03C119.608 113.059 119.427 113.086 119.251 113.109C119.078 113.13 118.938 113.147 118.83 113.162C118.569 113.197 118.324 113.254 118.098 113.332C117.873 113.406 117.692 113.519 117.554 113.671C117.418 113.819 117.351 114.021 117.352 114.277C117.353 114.626 117.484 114.89 117.743 115.068C118.005 115.243 118.336 115.329 118.737 115.327ZM124.39 107.325L124.428 116.053L123.422 116.057L123.384 107.33L124.39 107.325ZM126.928 118.496C126.758 118.497 126.606 118.483 126.472 118.456C126.339 118.431 126.246 118.405 126.195 118.38L126.447 117.493C126.691 117.554 126.907 117.576 127.095 117.558C127.282 117.54 127.448 117.456 127.592 117.304C127.739 117.156 127.873 116.915 127.994 116.582L128.179 116.07L125.73 109.501L126.821 109.497L128.65 114.704L128.719 114.704L130.503 109.48L131.594 109.476L128.848 116.988C128.724 117.326 128.571 117.607 128.387 117.829C128.203 118.054 127.99 118.222 127.746 118.331C127.505 118.44 127.232 118.495 126.928 118.496ZM137.564 110.915L136.661 111.175C136.604 111.025 136.519 110.879 136.408 110.737C136.299 110.593 136.151 110.474 135.963 110.381C135.775 110.288 135.535 110.243 135.243 110.244C134.842 110.246 134.509 110.339 134.242 110.525C133.979 110.708 133.848 110.94 133.849 111.222C133.85 111.471 133.942 111.669 134.124 111.813C134.307 111.957 134.591 112.076 134.978 112.171L135.951 112.406C136.537 112.545 136.974 112.76 137.262 113.052C137.55 113.34 137.695 113.713 137.697 114.171C137.699 114.546 137.592 114.881 137.378 115.178C137.166 115.474 136.869 115.708 136.486 115.88C136.103 116.053 135.658 116.14 135.149 116.142C134.481 116.145 133.928 116.002 133.489 115.715C133.051 115.427 132.772 115.005 132.653 114.448L133.606 114.206C133.699 114.557 133.872 114.821 134.126 114.996C134.382 115.171 134.716 115.258 135.128 115.256C135.597 115.254 135.969 115.153 136.243 114.953C136.521 114.75 136.659 114.508 136.658 114.226C136.657 113.999 136.576 113.809 136.417 113.656C136.257 113.501 136.012 113.385 135.682 113.31L134.59 113.059C133.99 112.92 133.549 112.702 133.266 112.404C132.986 112.105 132.846 111.729 132.844 111.277C132.842 110.908 132.944 110.581 133.15 110.296C133.359 110.011 133.644 109.786 134.004 109.623C134.367 109.459 134.779 109.377 135.239 109.374C135.886 109.372 136.396 109.511 136.766 109.794C137.14 110.076 137.405 110.45 137.564 110.915ZM139.219 115.988L139.19 109.442L140.196 109.438L140.225 115.983L139.219 115.988ZM139.697 108.349C139.501 108.35 139.332 108.284 139.189 108.151C139.049 108.018 138.979 107.858 138.978 107.671C138.977 107.483 139.046 107.322 139.185 107.188C139.326 107.054 139.495 106.987 139.691 106.986C139.887 106.985 140.055 107.051 140.195 107.184C140.337 107.317 140.409 107.477 140.41 107.664C140.411 107.852 140.34 108.013 140.199 108.147C140.06 108.281 139.893 108.348 139.697 108.349ZM146.681 110.876L145.779 111.135C145.721 110.985 145.637 110.839 145.525 110.697C145.417 110.553 145.268 110.434 145.08 110.341C144.893 110.248 144.652 110.203 144.36 110.204C143.959 110.206 143.626 110.299 143.359 110.485C143.096 110.668 142.965 110.9 142.966 111.182C142.967 111.432 143.059 111.629 143.242 111.773C143.424 111.917 143.709 112.036 144.095 112.131L145.068 112.366C145.654 112.505 146.091 112.721 146.379 113.012C146.667 113.3 146.812 113.673 146.814 114.131C146.816 114.506 146.709 114.841 146.495 115.138C146.283 115.434 145.986 115.668 145.603 115.841C145.22 116.013 144.775 116.1 144.266 116.102C143.599 116.105 143.045 115.963 142.607 115.675C142.168 115.387 141.889 114.965 141.77 114.408L142.724 114.166C142.816 114.518 142.989 114.781 143.243 114.956C143.499 115.131 143.833 115.218 144.245 115.216C144.714 115.214 145.086 115.113 145.36 114.913C145.638 114.71 145.776 114.468 145.775 114.186C145.774 113.959 145.693 113.769 145.534 113.616C145.374 113.461 145.129 113.346 144.799 113.27L143.707 113.019C143.107 112.88 142.666 112.662 142.383 112.365C142.104 112.065 141.963 111.689 141.961 111.237C141.959 110.868 142.061 110.541 142.268 110.256C142.477 109.971 142.761 109.746 143.121 109.583C143.484 109.419 143.896 109.337 144.356 109.335C145.004 109.332 145.513 109.472 145.883 109.754C146.257 110.037 146.523 110.41 146.681 110.876Z" fill="#4F4F4F"/>
<path d="M51.293 94.6903C49.8688 94.6965 48.5873 94.4294 47.4485 93.8889C46.3173 93.3408 45.4125 92.5872 44.7341 91.628C44.0556 90.6689 43.691 89.572 43.6401 88.3373L47.0492 88.3224C47.1369 89.322 47.5837 90.1421 48.3895 90.7825C49.1953 91.4229 50.1589 91.7407 51.2801 91.7358C52.174 91.7319 52.9648 91.5239 53.6524 91.1118C54.3475 90.692 54.8905 90.1177 55.2812 89.3887C55.6795 88.6597 55.8767 87.8293 55.8726 86.8975C55.8685 85.9505 55.6602 85.1067 55.2479 84.3661C54.8356 83.6255 54.2686 83.0446 53.5471 82.6235C52.8331 82.2024 52.014 81.99 51.0897 81.9865C50.3852 81.9896 49.6774 82.1139 48.9663 82.3594C48.2553 82.605 47.6809 82.9257 47.2432 83.3215L44.0253 82.8583L45.2808 71.1254L58.0762 71.0695L58.0893 74.0808L48.2144 74.124L47.5042 80.6385L47.6406 80.6379C48.0932 80.1966 48.6939 79.8265 49.4426 79.5278C50.1989 79.229 51.0088 79.0777 51.8725 79.074C53.2891 79.0678 54.5519 79.3994 55.6609 80.0688C56.7775 80.7381 57.6565 81.6548 58.298 82.8186C58.947 83.9749 59.271 85.3068 59.27 86.8144C59.2842 88.322 58.9491 89.6681 58.2649 90.853C57.5883 92.0377 56.6454 92.9737 55.4363 93.6608C54.2347 94.3403 52.8536 94.6835 51.293 94.6903ZM64.8947 94.5286C64.2735 94.5313 63.7384 94.3139 63.2895 93.8765C62.8406 93.4315 62.6148 92.8946 62.612 92.2658C62.6093 91.6446 62.8305 91.1133 63.2755 90.672C63.7205 90.223 64.2537 89.9972 64.8749 89.9945C65.4961 89.9918 66.0311 90.2129 66.48 90.6579C66.9289 91.0954 67.1547 91.6247 67.1575 92.2459C67.1593 92.6626 67.0549 93.0456 66.8443 93.395C66.6412 93.7368 66.3697 94.0107 66.0297 94.2168C65.6897 94.4228 65.3113 94.5267 64.8947 94.5286ZM79.0263 70.6597C80.0642 70.6628 81.0877 70.8477 82.0969 71.2145C83.1061 71.5813 84.0178 72.1834 84.8321 73.0207C85.654 73.8581 86.3104 74.9916 86.8015 76.4212C87.3002 77.8433 87.5579 79.6149 87.5748 81.7361C87.5837 83.774 87.3871 85.5892 86.9849 87.1819C86.5828 88.767 86.0015 90.1067 85.2411 91.2009C84.4883 92.2952 83.5715 93.1287 82.4907 93.7016C81.4098 94.2745 80.1914 94.564 78.8353 94.5699C77.449 94.5759 76.2167 94.3086 75.1386 93.7679C74.0605 93.2271 73.1822 92.4772 72.5038 91.518C71.8253 90.5512 71.4 89.4395 71.2278 88.1826L74.6937 88.1675C74.9253 89.1665 75.391 89.975 76.0907 90.5932C76.7979 91.2038 77.7083 91.5066 78.8219 91.5017C80.5265 91.4943 81.8527 90.7461 82.8008 89.257C83.7488 87.7605 84.2207 85.675 84.2166 83.0008L84.0348 83.0016C83.6437 83.6548 83.1538 84.2176 82.5649 84.6898C81.9836 85.1621 81.3299 85.5286 80.6038 85.7893C79.8776 86.0501 79.1017 86.1823 78.276 86.1859C76.9351 86.1917 75.7139 85.8675 74.6126 85.2133C73.5112 84.559 72.6323 83.6575 71.9757 82.5088C71.3192 81.3602 70.9877 80.0472 70.9812 78.57C70.9748 77.1003 71.3023 75.7655 71.9637 74.5656C72.6327 73.3657 73.568 72.4147 74.7695 71.7124C75.9785 71.0026 77.3974 70.6517 79.0263 70.6597ZM79.0505 73.6142C78.1642 73.6181 77.3659 73.8413 76.6557 74.2838C75.9531 74.7187 75.3988 75.3082 74.993 76.0524C74.5871 76.789 74.3861 77.6081 74.3901 78.5096C74.394 79.4111 74.5946 80.2284 74.9917 80.9616C75.3964 81.6871 75.9444 82.2642 76.6357 82.693C77.3345 83.1142 78.1309 83.3229 79.0248 83.3189C79.6915 83.316 80.3121 83.1845 80.8867 82.9244C81.4613 82.6644 81.9636 82.3061 82.3934 81.8497C82.8232 81.3857 83.158 80.8615 83.3979 80.2771C83.6378 79.6927 83.7563 79.0785 83.7535 78.4346C83.7497 77.5785 83.5417 76.784 83.1294 76.0509C82.7247 75.3178 82.1691 74.7294 81.4626 74.2855C80.7561 73.834 79.9521 73.6103 79.0505 73.6142ZM99.5993 94.4791C97.9706 94.4862 96.53 94.2122 95.2775 93.6571C94.0327 93.1019 93.0558 92.3335 92.347 91.3517C91.6381 90.3699 91.2847 89.2503 91.2868 87.9927C91.2749 87.0079 91.4717 86.1017 91.8772 85.2741C92.2902 84.439 92.8516 83.7434 93.5613 83.1872C94.2709 82.6235 95.0648 82.264 95.943 82.1086L95.9424 81.9723C94.7821 81.697 93.8513 81.0799 93.1501 80.1208C92.449 79.1617 92.0995 78.0572 92.1016 76.8072C92.0888 75.6178 92.3985 74.5559 93.0308 73.6213C93.6707 72.6791 94.55 71.9366 95.6688 71.3938C96.7877 70.851 98.063 70.5765 99.4948 70.5703C100.911 70.5641 102.178 70.8313 103.294 71.3718C104.417 71.9048 105.303 72.6396 105.951 73.5761C106.599 74.5051 106.93 75.5605 106.942 76.7423C106.94 77.9923 106.589 79.0999 105.889 80.0651C105.188 81.0303 104.274 81.6555 103.147 81.9408L103.147 82.0771C104.019 82.2248 104.805 82.5775 105.504 83.135C106.211 83.685 106.775 84.3757 107.195 85.2072C107.623 86.0311 107.843 86.9354 107.855 87.9202C107.853 89.1778 107.502 90.3006 106.801 91.2885C106.101 92.2764 105.127 93.0534 103.88 93.6195C102.64 94.1855 101.213 94.4721 99.5993 94.4791ZM99.5868 91.6041C100.549 91.5999 101.382 91.4372 102.085 91.1159C102.788 90.7871 103.331 90.334 103.715 89.7565C104.099 89.1715 104.293 88.4888 104.297 87.7085C104.286 86.8979 104.071 86.183 103.651 85.5636C103.24 84.9442 102.681 84.458 101.974 84.105C101.268 83.752 100.461 83.5775 99.5517 83.5815C98.635 83.5855 97.8214 83.7671 97.1109 84.1263C96.4003 84.4854 95.8419 84.9765 95.4355 85.5995C95.0291 86.2225 94.8315 86.9393 94.8426 87.7498C94.8384 88.5302 95.027 89.2112 95.4084 89.7928C95.7972 90.3669 96.3484 90.8153 97.062 91.1379C97.7755 91.453 98.6171 91.6084 99.5868 91.6041ZM99.5394 80.7747C100.312 80.7713 100.997 80.613 101.594 80.2998C102.191 79.9866 102.659 79.5527 102.998 78.9982C103.344 78.4437 103.519 77.7952 103.523 77.0527C103.512 76.3255 103.335 75.6899 102.992 75.1459C102.656 74.6019 102.189 74.1835 101.589 73.8907C100.989 73.5903 100.295 73.4418 99.5074 73.4452C98.7044 73.4487 98.0005 73.6033 97.3958 73.909C96.7986 74.2071 96.3345 74.6296 96.0036 75.1765C95.6726 75.7234 95.5125 76.3604 95.5233 77.0877C95.5189 77.8301 95.6884 78.4771 96.0318 79.0287C96.3751 79.5802 96.8467 80.0099 97.4465 80.3179C98.0539 80.6259 98.7516 80.7781 99.5394 80.7747ZM112.737 94.1035L122.808 73.9684L122.807 73.7979L111.058 73.8493L111.044 70.8379L126.431 70.7707L126.444 73.8843L116.407 94.0875L112.737 94.1035ZM130.936 90.8421L130.771 92.0815C130.661 92.991 130.472 93.9388 130.204 94.9249C129.943 95.9185 129.671 96.8401 129.386 97.6898C129.11 98.5395 128.882 99.2148 128.702 99.7156L126.293 99.7261C126.389 99.256 126.523 98.619 126.694 97.8152C126.864 97.019 127.031 96.1282 127.193 95.1426C127.356 94.157 127.476 93.1527 127.555 92.1296L127.663 90.8564L130.936 90.8421ZM142.963 94.2896C141.402 94.2964 140.007 94.0335 138.777 93.501C137.555 92.9685 136.586 92.2265 135.87 91.2751C135.161 90.316 134.777 89.2041 134.719 87.9392L138.287 87.9236C138.335 88.6128 138.569 89.2102 138.988 89.716C139.414 90.2141 139.969 90.5981 140.652 90.8678C141.335 91.1375 142.093 91.2706 142.927 91.267C143.843 91.2629 144.653 91.1003 145.356 90.7791C146.067 90.4578 146.622 90.0121 147.021 89.4422C147.42 88.8647 147.618 88.201 147.615 87.451C147.611 86.6707 147.407 85.9859 147.003 85.3968C146.607 84.8 146.025 84.3329 145.258 83.9953C144.499 83.6577 143.582 83.4913 142.506 83.496L140.54 83.5046L140.528 80.641L142.494 80.6324C143.357 80.6286 144.114 80.47 144.764 80.1565C145.422 79.8431 145.935 79.409 146.304 78.8543C146.673 78.2921 146.856 77.636 146.852 76.886C146.849 76.1663 146.684 75.542 146.356 75.0132C146.035 74.4767 145.579 74.0582 144.986 73.7578C144.402 73.4573 143.712 73.3088 142.916 73.3123C142.159 73.3156 141.451 73.4588 140.793 73.742C140.143 74.0176 139.614 74.4138 139.207 74.9308C138.801 75.4401 138.584 76.0509 138.556 76.7632L135.159 76.778C135.191 75.5203 135.557 74.4126 136.258 73.455C136.966 72.4974 137.902 71.7471 139.066 71.2041C140.23 70.6611 141.525 70.3865 142.949 70.3803C144.441 70.3738 145.731 70.6598 146.816 71.2384C147.91 71.8094 148.754 72.5746 149.349 73.5342C149.952 74.4937 150.252 75.5454 150.249 76.6893C150.263 77.9923 149.904 79.1 149.173 80.0123C148.45 80.9245 147.483 81.5386 146.272 81.8545L146.273 82.0363C147.819 82.2644 149.019 82.8728 149.872 83.8615C150.732 84.8502 151.162 86.0794 151.16 87.5491C151.174 88.8294 150.823 89.9786 150.107 90.9969C149.4 92.0152 148.43 92.8187 147.197 93.4074C145.965 93.9885 144.553 94.2826 142.963 94.2896ZM154.975 89.3734L154.963 86.5325L164.95 70.6023L167.189 70.5925L167.207 74.7743L165.787 74.7805L158.643 86.1982L158.644 86.38L172.428 86.3198L172.441 89.297L154.975 89.3734ZM166.029 93.8705L166.005 88.4615L166.023 87.1659L165.95 70.5979L169.28 70.5834L169.381 93.8559L166.029 93.8705Z" fill="black"/>
<circle cx="318.172" cy="48.205" r="12" transform="rotate(-0.250469 318.172 48.205)" fill="#BDBDBD"/>
<rect x="316.16" y="45.5471" width="3.99999" height="10.6666" rx="2" transform="rotate(-0.250469 316.16 45.5471)" fill="white"/>
<rect x="316.137" y="40.2139" width="3.99999" height="3.99999" rx="2" transform="rotate(-0.250469 316.137 40.2139)" fill="white"/>
<path d="M10.5583 137.278L365.555 135.726" stroke="#F0F0F0" stroke-width="2"/>
<path d="M65.9628 424.311L67.808 424.303L67.8328 429.97C67.8355 430.607 67.686 431.164 67.3841 431.643C67.0851 432.122 66.6648 432.496 66.1234 432.765C65.5819 433.031 64.9504 433.166 64.2288 433.17C63.5044 433.173 62.8703 433.043 62.3265 432.782C61.7828 432.517 61.3593 432.147 61.056 431.671C60.7528 431.195 60.5998 430.638 60.597 430.002L60.5723 424.335L62.4174 424.326L62.4415 429.836C62.443 430.169 62.5167 430.464 62.6627 430.722C62.8116 430.98 63.0198 431.182 63.2875 431.328C63.5552 431.475 63.8666 431.548 64.2217 431.546C64.5797 431.544 64.8904 431.469 65.154 431.32C65.4204 431.171 65.6255 430.967 65.7692 430.708C65.9158 430.449 65.9884 430.153 65.9869 429.821L65.9628 424.311ZM74.0714 426.786C74.0358 426.442 73.8883 426.176 73.629 425.986C73.3696 425.797 73.0183 425.703 72.5752 425.705C72.274 425.707 72.02 425.75 71.813 425.837C71.6059 425.92 71.4473 426.036 71.3372 426.184C71.2299 426.332 71.1766 426.5 71.1775 426.687C71.1725 426.844 71.2057 426.98 71.2773 427.096C71.3516 427.212 71.4529 427.313 71.5811 427.397C71.7093 427.479 71.8574 427.551 72.0253 427.613C72.1931 427.672 72.3723 427.722 72.5629 427.764L73.3478 427.948C73.7288 428.031 74.0787 428.143 74.3975 428.284C74.7163 428.425 74.9927 428.598 75.2265 428.805C75.4604 429.011 75.6419 429.255 75.7709 429.535C75.9028 429.816 75.971 430.138 75.9754 430.502C75.9749 431.036 75.8406 431.499 75.5724 431.893C75.3071 432.283 74.922 432.587 74.4173 432.805C73.9154 433.021 73.3093 433.13 72.5991 433.133C71.8946 433.136 71.2805 433.031 70.7568 432.817C70.236 432.603 69.8283 432.286 69.5339 431.864C69.2422 431.439 69.088 430.912 69.071 430.285L70.8565 430.277C70.8777 430.569 70.9625 430.813 71.1111 431.009C71.2625 431.201 71.4635 431.347 71.7139 431.445C71.9672 431.541 72.2529 431.588 72.5711 431.586C72.8835 431.585 73.1547 431.538 73.3844 431.446C73.6169 431.354 73.7968 431.227 73.9239 431.065C74.051 430.902 74.1141 430.716 74.1132 430.506C74.1124 430.31 74.0534 430.145 73.9363 430.012C73.8221 429.879 73.654 429.766 73.432 429.673C73.2129 429.58 72.944 429.496 72.6255 429.421L71.6742 429.187C70.9376 429.011 70.3554 428.734 69.9276 428.355C69.4998 427.976 69.286 427.464 69.286 426.819C69.2808 426.291 69.4194 425.829 69.7018 425.432C69.987 425.036 70.3791 424.726 70.8781 424.503C71.3772 424.279 71.9449 424.166 72.5812 424.163C73.2289 424.16 73.7948 424.268 74.2787 424.488C74.7654 424.707 75.1446 425.014 75.4162 425.407C75.6878 425.801 75.829 426.258 75.8398 426.778L74.0714 426.786ZM80.3212 432.976L77.2274 432.989L77.1893 424.262L80.3086 424.248C81.1864 424.244 81.9428 424.416 82.5779 424.763C83.2129 425.106 83.7023 425.603 84.0461 426.252C84.3927 426.901 84.5679 427.679 84.5719 428.585C84.5759 429.494 84.4074 430.276 84.0665 430.931C83.7285 431.586 83.2406 432.089 82.6029 432.441C81.9681 432.794 81.2075 432.972 80.3212 432.976ZM79.0657 431.4L80.2375 431.395C80.783 431.393 81.2414 431.294 81.6127 431.099C81.9868 430.902 82.2668 430.598 82.4525 430.188C82.641 429.775 82.7338 429.243 82.731 428.593C82.7282 427.948 82.6307 427.421 82.4386 427.013C82.2493 426.605 81.9682 426.305 81.5952 426.113C81.2222 425.922 80.7629 425.827 80.2175 425.83L79.0414 425.835L79.0657 431.4Z" fill="black"/>
<circle cx="47.3366" cy="429.62" r="4.5" transform="rotate(-0.250469 47.3366 429.62)" fill="#4285F4"/>
<path d="M62.2239 458.055L60.2467 458.064L63.2213 449.323L65.5991 449.313L68.6457 458.027L66.6685 458.036L64.453 451.312L64.3848 451.312L62.2239 458.055ZM62.0853 454.625L66.7557 454.605L66.762 456.045L62.0916 456.065L62.0853 454.625ZM75.0486 449.272L76.8937 449.263L76.9185 454.931C76.9213 455.567 76.7717 456.125 76.4698 456.603C76.1708 457.082 75.7505 457.456 75.2091 457.725C74.6676 457.992 74.0361 458.127 73.3145 458.13C72.5901 458.133 71.956 458.004 71.4123 457.742C70.8685 457.477 70.445 457.107 70.1418 456.631C69.8385 456.155 69.6855 455.599 69.6828 454.963L69.658 449.295L71.5031 449.287L71.5272 454.797C71.5287 455.129 71.6024 455.424 71.7484 455.682C71.8973 455.94 72.1056 456.142 72.3732 456.289C72.6409 456.436 72.9523 456.508 73.3074 456.506C73.6654 456.505 73.9762 456.43 74.2397 456.281C74.5061 456.132 74.7112 455.928 74.8549 455.669C75.0015 455.41 75.0741 455.114 75.0727 454.781L75.0486 449.272ZM81.5437 457.97L78.45 457.984L78.4118 449.257L81.5311 449.243C82.4089 449.239 83.1654 449.411 83.8004 449.757C84.4354 450.101 84.9248 450.598 85.2686 451.247C85.6152 451.896 85.7905 452.673 85.7944 453.58C85.7984 454.489 85.6299 455.271 85.289 455.926C84.951 456.581 84.4631 457.084 83.8255 457.436C83.1906 457.789 82.43 457.967 81.5437 457.97ZM80.2882 456.395L81.4601 456.39C82.0055 456.387 82.4639 456.289 82.8352 456.094C83.2094 455.896 83.4893 455.593 83.675 455.183C83.8635 454.77 83.9564 454.238 83.9535 453.588C83.9507 452.943 83.8532 452.416 83.6611 452.008C83.4718 451.6 83.1907 451.3 82.8177 451.108C82.4447 450.917 81.9855 450.822 81.44 450.825L80.2639 450.83L80.2882 456.395Z" fill="black"/>
<circle cx="47.4459" cy="454.619" r="4.5" transform="rotate(-0.250469 47.4459 454.619)" fill="#D80027"/>
<path d="M152.48 451.754C152.419 451.547 152.335 451.364 152.226 451.205C152.117 451.044 151.985 450.908 151.828 450.798C151.674 450.685 151.498 450.599 151.298 450.54C151.102 450.482 150.885 450.453 150.646 450.454C150.2 450.456 149.808 450.568 149.471 450.791C149.137 451.014 148.877 451.338 148.692 451.762C148.506 452.183 148.414 452.698 148.417 453.306C148.42 453.914 148.514 454.43 148.701 454.856C148.887 455.281 149.15 455.605 149.489 455.828C149.828 456.048 150.228 456.157 150.688 456.155C151.106 456.154 151.462 456.078 151.757 455.929C152.054 455.777 152.281 455.565 152.436 455.291C152.594 455.018 152.672 454.695 152.67 454.323L153.045 454.377L150.795 454.386L150.789 452.997L154.441 452.981L154.446 454.081C154.449 454.848 154.29 455.508 153.969 456.06C153.647 456.61 153.203 457.035 152.636 457.336C152.069 457.634 151.42 457.784 150.687 457.788C149.868 457.791 149.149 457.614 148.528 457.256C147.907 456.895 147.422 456.381 147.072 455.715C146.726 455.046 146.55 454.252 146.546 453.331C146.543 452.624 146.643 451.993 146.845 451.438C147.05 450.88 147.338 450.407 147.708 450.019C148.079 449.631 148.51 449.335 149.004 449.131C149.497 448.928 150.032 448.824 150.609 448.822C151.103 448.82 151.564 448.89 151.991 449.033C152.417 449.173 152.796 449.373 153.127 449.633C153.46 449.893 153.733 450.203 153.945 450.563C154.157 450.92 154.293 451.314 154.355 451.746L152.48 451.754ZM155.848 457.646L155.809 448.918L159.304 448.903C159.946 448.9 160.482 448.993 160.912 449.182C161.341 449.37 161.665 449.633 161.882 449.97C162.1 450.304 162.209 450.69 162.211 451.128C162.213 451.469 162.146 451.769 162.011 452.028C161.875 452.284 161.689 452.495 161.451 452.661C161.216 452.824 160.946 452.94 160.643 453.01L160.643 453.095C160.976 453.108 161.287 453.2 161.578 453.372C161.871 453.544 162.109 453.786 162.292 454.098C162.476 454.406 162.568 454.775 162.57 455.204C162.572 455.667 162.459 456.081 162.23 456.446C162.005 456.808 161.669 457.095 161.224 457.307C160.779 457.519 160.23 457.626 159.576 457.629L155.848 457.646ZM157.686 456.129L159.19 456.122C159.705 456.12 160.079 456.021 160.314 455.824C160.549 455.624 160.666 455.359 160.664 455.029C160.663 454.788 160.604 454.575 160.487 454.391C160.37 454.207 160.203 454.063 159.986 453.958C159.773 453.854 159.518 453.803 159.223 453.804L157.676 453.811L157.686 456.129ZM157.671 452.562L159.038 452.556C159.291 452.555 159.516 452.51 159.711 452.421C159.91 452.33 160.065 452.201 160.178 452.036C160.294 451.87 160.351 451.673 160.35 451.443C160.349 451.127 160.236 450.874 160.01 450.681C159.788 450.489 159.472 450.394 159.063 450.396L157.661 450.402L157.671 452.562ZM163.781 457.611L163.743 448.884L167.186 448.869C167.848 448.866 168.413 448.99 168.88 449.241C169.347 449.489 169.703 449.835 169.949 450.28C170.199 450.722 170.324 451.233 170.327 451.812C170.329 452.392 170.207 452.904 169.959 453.348C169.711 453.792 169.35 454.139 168.876 454.388C168.406 454.638 167.836 454.764 167.165 454.767L164.97 454.776L164.964 453.297L166.86 453.289C167.215 453.288 167.508 453.225 167.737 453.102C167.97 452.976 168.142 452.803 168.255 452.584C168.37 452.362 168.428 452.108 168.426 451.821C168.425 451.531 168.366 451.278 168.248 451.063C168.134 450.845 167.96 450.676 167.726 450.558C167.493 450.437 167.197 450.377 166.839 450.379L165.595 450.384L165.626 457.603L163.781 457.611Z" fill="black"/>
<circle cx="133.445" cy="454.243" r="4.5" transform="rotate(-0.250469 133.445 454.243)" fill="#90BE6D"/>
<path d="M151.962 423.935L153.807 423.927L153.832 429.595C153.835 430.231 153.685 430.788 153.383 431.267C153.084 431.746 152.664 432.12 152.123 432.389C151.581 432.656 150.95 432.79 150.228 432.794C149.504 432.797 148.869 432.667 148.326 432.406C147.782 432.141 147.358 431.771 147.055 431.295C146.752 430.819 146.599 430.263 146.596 429.626L146.571 423.959L148.417 423.951L148.441 429.46C148.442 429.793 148.516 430.088 148.662 430.346C148.811 430.604 149.019 430.806 149.287 430.952C149.554 431.099 149.866 431.172 150.221 431.17C150.579 431.168 150.89 431.093 151.153 430.944C151.42 430.795 151.625 430.591 151.768 430.332C151.915 430.073 151.988 429.777 151.986 429.445L151.962 423.935ZM161.124 426.716C161.064 426.509 160.979 426.326 160.871 426.167C160.762 426.006 160.629 425.87 160.473 425.76C160.319 425.647 160.142 425.561 159.943 425.502C159.747 425.444 159.529 425.415 159.291 425.416C158.845 425.418 158.453 425.53 158.116 425.753C157.782 425.976 157.522 426.3 157.336 426.724C157.15 427.145 157.059 427.66 157.062 428.268C157.064 428.876 157.159 429.392 157.345 429.818C157.532 430.243 157.795 430.567 158.134 430.79C158.473 431.01 158.872 431.119 159.333 431.117C159.75 431.116 160.106 431.04 160.401 430.891C160.699 430.739 160.925 430.527 161.08 430.253C161.238 429.98 161.316 429.657 161.315 429.285L161.69 429.339L159.44 429.348L159.434 427.959L163.086 427.943L163.091 429.043C163.094 429.81 162.935 430.47 162.613 431.022C162.292 431.572 161.848 431.997 161.281 432.298C160.714 432.596 160.064 432.746 159.331 432.749C158.513 432.753 157.793 432.576 157.173 432.218C156.552 431.857 156.066 431.343 155.717 430.677C155.37 430.008 155.195 429.214 155.191 428.293C155.188 427.586 155.287 426.955 155.489 426.4C155.694 425.842 155.982 425.369 156.353 424.981C156.723 424.593 157.155 424.297 157.648 424.093C158.142 423.89 158.677 423.786 159.254 423.784C159.748 423.782 160.209 423.852 160.635 423.995C161.062 424.135 161.441 424.335 161.771 424.595C162.105 424.855 162.378 425.165 162.589 425.525C162.801 425.882 162.938 426.276 162.999 426.708L161.124 426.716ZM165.997 423.874L167.77 426.84L167.838 426.84L169.593 423.858L171.677 423.849L169.033 428.224L171.775 432.576L169.653 432.585L167.85 429.614L167.782 429.615L166.005 432.601L163.891 432.61L166.604 428.235L163.904 423.883L165.997 423.874Z" fill="black"/>
<circle cx="133.336" cy="429.244" r="4.5" transform="rotate(-0.250469 133.336 429.244)" fill="#F3722C"/>
<path d="M232.609 432.31L232.57 423.583L234.416 423.575L234.432 427.423L234.547 427.422L237.671 423.56L239.883 423.551L236.661 427.472L239.959 432.278L237.752 432.287L235.346 428.71L234.443 429.822L234.454 432.302L232.609 432.31ZM240.882 432.274L240.844 423.546L246.724 423.521L246.731 425.042L242.696 425.06L242.705 427.139L246.438 427.123L246.444 428.644L242.711 428.66L242.72 430.744L246.773 430.727L246.78 432.248L240.882 432.274ZM252.937 426.004C252.901 425.66 252.754 425.394 252.494 425.204C252.235 425.015 251.884 424.921 251.44 424.923C251.139 424.925 250.885 424.968 250.678 425.055C250.471 425.138 250.313 425.254 250.202 425.402C250.095 425.55 250.042 425.718 250.043 425.905C250.038 426.062 250.071 426.198 250.143 426.314C250.217 426.43 250.318 426.531 250.446 426.615C250.575 426.697 250.723 426.769 250.891 426.831C251.058 426.89 251.238 426.94 251.428 426.982L252.213 427.166C252.594 427.249 252.944 427.361 253.263 427.502C253.582 427.643 253.858 427.816 254.092 428.023C254.326 428.229 254.507 428.473 254.636 428.753C254.768 429.034 254.836 429.356 254.841 429.72C254.84 430.254 254.706 430.717 254.438 431.111C254.172 431.501 253.787 431.805 253.283 432.023C252.781 432.239 252.175 432.348 251.464 432.351C250.76 432.354 250.146 432.249 249.622 432.035C249.101 431.822 248.694 431.504 248.399 431.082C248.108 430.657 247.953 430.13 247.936 429.503L249.722 429.495C249.743 429.787 249.828 430.031 249.976 430.227C250.128 430.419 250.329 430.565 250.579 430.663C250.832 430.759 251.118 430.806 251.436 430.804C251.749 430.803 252.02 430.756 252.25 430.664C252.482 430.572 252.662 430.445 252.789 430.283C252.916 430.12 252.979 429.934 252.979 429.724C252.978 429.528 252.919 429.363 252.802 429.23C252.687 429.097 252.519 428.984 252.297 428.891C252.078 428.799 251.809 428.714 251.491 428.639L250.539 428.405C249.803 428.229 249.221 427.952 248.793 427.573C248.365 427.194 248.151 426.682 248.151 426.037C248.146 425.509 248.285 425.047 248.567 424.65C248.852 424.254 249.244 423.944 249.743 423.721C250.242 423.497 250.81 423.384 251.447 423.381C252.094 423.378 252.66 423.486 253.144 423.706C253.631 423.925 254.01 424.232 254.282 424.625C254.553 425.019 254.694 425.476 254.705 425.996L252.937 426.004Z" fill="black"/>
<circle cx="219.335" cy="428.868" r="4.5" transform="rotate(-0.250469 219.335 428.868)" fill="#F8961E"/>
<path d="M229.334 388.716C201.89 399.416 171.37 399.079 144.17 387.774C116.97 376.469 95.2014 355.075 83.4264 328.076L187.921 282.504L229.334 388.716Z" fill="#D80027"/>
<path d="M84.3111 330.053C72.025 303.282 70.5781 272.795 80.2734 244.98C89.9688 217.166 110.054 194.184 136.319 180.851L187.921 282.504L84.3111 330.053Z" fill="#F8961E"/>
<path d="M300.307 263.39C304.742 289.467 299.97 316.275 286.81 339.22C273.65 362.166 252.92 379.821 228.173 389.161L187.92 282.503L300.307 263.39Z" fill="#F9C74F"/>
<path d="M94.488 217.188C110.683 194.021 134.906 177.698 162.457 171.384C190.008 165.07 218.922 169.217 243.589 183.019L187.921 282.504L94.488 217.188Z" fill="#4285F4"/>
<path d="M226.83 175.349C242.257 180.95 256.292 189.817 267.976 201.341C279.661 212.866 288.719 226.778 294.532 242.126C300.345 257.474 302.775 273.896 301.657 290.27C300.539 306.644 295.899 322.583 288.054 336.998L187.922 282.504L226.83 175.349Z" fill="#90BE6D"/>
<path d="M153.541 217.653L153.538 216.886L156.405 213.72C156.741 213.35 157.018 213.027 157.236 212.754C157.453 212.477 157.614 212.218 157.718 211.976C157.825 211.731 157.878 211.475 157.877 211.208C157.875 210.901 157.8 210.636 157.651 210.412C157.506 210.189 157.306 210.016 157.053 209.895C156.799 209.774 156.515 209.714 156.2 209.716C155.864 209.717 155.572 209.788 155.323 209.928C155.076 210.066 154.885 210.258 154.75 210.506C154.617 210.754 154.552 211.044 154.553 211.376L153.548 211.381C153.545 210.869 153.661 210.42 153.896 210.032C154.13 209.645 154.449 209.343 154.855 209.125C155.263 208.907 155.721 208.797 156.23 208.795C156.741 208.793 157.195 208.899 157.59 209.113C157.986 209.327 158.297 209.617 158.523 209.982C158.749 210.348 158.863 210.755 158.865 211.204C158.867 211.525 158.81 211.839 158.695 212.146C158.582 212.451 158.385 212.791 158.102 213.168C157.823 213.541 157.434 213.997 156.937 214.536L154.986 216.641L154.986 216.71L159.043 216.692L159.047 217.629L153.541 217.653ZM163.654 217.729C163.012 217.731 162.464 217.559 162.011 217.212C161.558 216.861 161.21 216.353 160.969 215.686C160.727 215.017 160.604 214.208 160.6 213.259C160.596 212.316 160.712 211.51 160.947 210.841C161.186 210.17 161.53 209.657 161.98 209.303C162.433 208.945 162.978 208.765 163.615 208.763C164.251 208.76 164.796 208.935 165.249 209.288C165.705 209.639 166.054 210.148 166.295 210.818C166.54 211.484 166.664 212.289 166.668 213.232C166.672 214.181 166.557 214.991 166.321 215.663C166.085 216.332 165.742 216.843 165.292 217.197C164.842 217.549 164.296 217.726 163.654 217.729ZM163.65 216.791C164.286 216.788 164.779 216.479 165.129 215.864C165.478 215.249 165.65 214.373 165.645 213.237C165.642 212.481 165.558 211.838 165.394 211.307C165.233 210.777 165.001 210.373 164.698 210.096C164.399 209.819 164.039 209.681 163.619 209.683C162.988 209.686 162.496 209.999 162.144 210.623C161.792 211.244 161.618 212.121 161.623 213.254C161.626 214.01 161.708 214.652 161.87 215.179C162.031 215.707 162.262 216.108 162.561 216.382C162.864 216.657 163.226 216.793 163.65 216.791ZM172.748 215.933L172.746 215.473C172.745 215.155 172.809 214.863 172.938 214.598C173.071 214.331 173.263 214.117 173.515 213.957C173.77 213.794 174.079 213.711 174.443 213.71C174.812 213.708 175.122 213.788 175.373 213.949C175.624 214.107 175.814 214.319 175.943 214.585C176.072 214.849 176.137 215.14 176.138 215.458L176.14 215.918C176.142 216.236 176.078 216.529 175.948 216.797C175.821 217.062 175.632 217.276 175.38 217.439C175.131 217.599 174.824 217.68 174.46 217.681C174.091 217.683 173.78 217.605 173.526 217.447C173.273 217.286 173.08 217.074 172.948 216.81C172.816 216.544 172.75 216.251 172.748 215.933ZM173.616 215.469L173.618 215.929C173.619 216.193 173.682 216.43 173.808 216.64C173.934 216.847 174.15 216.95 174.457 216.948C174.756 216.947 174.965 216.842 175.087 216.634C175.211 216.424 175.272 216.186 175.271 215.922L175.269 215.462C175.268 215.198 175.207 214.962 175.087 214.755C174.967 214.546 174.753 214.441 174.446 214.443C174.148 214.444 173.934 214.55 173.804 214.761C173.677 214.969 173.614 215.205 173.616 215.469ZM168.38 210.958L168.378 210.498C168.376 210.179 168.44 209.888 168.57 209.623C168.702 209.356 168.895 209.142 169.147 208.981C169.402 208.818 169.711 208.736 170.075 208.734C170.444 208.733 170.754 208.812 171.005 208.973C171.255 209.131 171.445 209.344 171.574 209.61C171.703 209.874 171.768 210.165 171.77 210.483L171.772 210.943C171.773 211.261 171.709 211.554 171.58 211.822C171.453 212.086 171.264 212.3 171.011 212.463C170.762 212.624 170.456 212.704 170.092 212.706C169.723 212.708 169.411 212.629 169.158 212.471C168.904 212.311 168.712 212.098 168.58 211.835C168.448 211.568 168.381 211.276 168.38 210.958ZM169.247 210.494L169.249 210.954C169.25 211.218 169.314 211.455 169.44 211.665C169.566 211.872 169.782 211.974 170.089 211.973C170.387 211.972 170.597 211.867 170.718 211.659C170.842 211.448 170.904 211.211 170.903 210.947L170.901 210.487C170.899 210.222 170.839 209.987 170.718 209.78C170.598 209.57 170.385 209.466 170.078 209.467C169.78 209.469 169.566 209.575 169.436 209.786C169.309 209.993 169.246 210.23 169.247 210.494ZM168.733 217.587L174.694 208.834L175.666 208.829L169.704 217.583L168.733 217.587Z" fill="white"/>
<path d="M235.741 263.295L235.738 262.527L238.605 259.362C238.941 258.991 239.218 258.668 239.436 258.395C239.653 258.118 239.814 257.859 239.918 257.617C240.025 257.372 240.078 257.116 240.077 256.849C240.075 256.543 240 256.277 239.852 256.053C239.706 255.83 239.506 255.657 239.253 255.536C238.999 255.415 238.715 255.355 238.4 255.357C238.065 255.358 237.772 255.429 237.523 255.569C237.276 255.707 237.085 255.899 236.95 256.147C236.818 256.395 236.752 256.685 236.754 257.017L235.748 257.022C235.746 256.51 235.862 256.061 236.096 255.674C236.33 255.286 236.65 254.984 237.055 254.766C237.463 254.548 237.921 254.438 238.43 254.436C238.941 254.434 239.395 254.54 239.791 254.754C240.186 254.968 240.497 255.258 240.723 255.624C240.949 255.989 241.063 256.396 241.065 256.845C241.067 257.166 241.01 257.48 240.895 257.788C240.782 258.092 240.585 258.432 240.303 258.809C240.023 259.182 239.634 259.638 239.137 260.177L237.186 262.283L237.186 262.351L241.243 262.333L241.247 263.27L235.741 263.295ZM243.007 263.263L243.003 262.496L245.87 259.33C246.207 258.959 246.484 258.637 246.701 258.363C246.919 258.087 247.08 257.827 247.184 257.585C247.291 257.341 247.343 257.085 247.342 256.818C247.341 256.511 247.266 256.245 247.117 256.022C246.971 255.798 246.772 255.625 246.518 255.504C246.265 255.383 245.981 255.324 245.665 255.325C245.33 255.326 245.038 255.397 244.788 255.538C244.542 255.675 244.351 255.868 244.216 256.115C244.083 256.363 244.018 256.653 244.019 256.986L243.013 256.99C243.011 256.479 243.127 256.029 243.361 255.642C243.595 255.254 243.915 254.952 244.32 254.734C244.729 254.517 245.187 254.407 245.695 254.404C246.207 254.402 246.66 254.508 247.056 254.722C247.452 254.936 247.763 255.226 247.989 255.592C248.215 255.957 248.329 256.364 248.331 256.813C248.332 257.134 248.275 257.448 248.16 257.756C248.048 258.06 247.851 258.401 247.568 258.777C247.289 259.15 246.9 259.607 246.402 260.146L244.451 262.251L244.452 262.319L248.508 262.301L248.512 263.239L243.007 263.263ZM254.714 261.575L254.712 261.115C254.711 260.797 254.775 260.505 254.904 260.241C255.037 259.973 255.229 259.759 255.481 259.599C255.736 259.436 256.045 259.353 256.409 259.352C256.778 259.35 257.088 259.43 257.339 259.591C257.59 259.749 257.779 259.961 257.908 260.227C258.037 260.491 258.103 260.782 258.104 261.1L258.106 261.56C258.107 261.879 258.043 262.171 257.914 262.439C257.787 262.704 257.598 262.918 257.346 263.081C257.096 263.241 256.79 263.322 256.426 263.323C256.057 263.325 255.746 263.247 255.492 263.089C255.238 262.928 255.046 262.716 254.914 262.452C254.782 262.186 254.715 261.893 254.714 261.575ZM255.581 261.111L255.583 261.571C255.585 261.836 255.648 262.073 255.774 262.282C255.9 262.489 256.116 262.592 256.423 262.59C256.721 262.589 256.931 262.485 257.052 262.277C257.176 262.066 257.238 261.828 257.237 261.564L257.235 261.104C257.234 260.84 257.173 260.604 257.053 260.397C256.932 260.188 256.719 260.083 256.412 260.085C256.114 260.086 255.9 260.192 255.77 260.403C255.643 260.611 255.58 260.847 255.581 261.111ZM250.346 256.6L250.344 256.14C250.342 255.822 250.406 255.53 250.536 255.265C250.668 254.998 250.86 254.784 251.113 254.624C251.368 254.461 251.677 254.378 252.04 254.377C252.41 254.375 252.72 254.455 252.971 254.615C253.221 254.773 253.411 254.986 253.54 255.252C253.669 255.516 253.734 255.807 253.736 256.125L253.738 256.585C253.739 256.903 253.675 257.196 253.545 257.464C253.419 257.729 253.229 257.942 252.977 258.105C252.728 258.266 252.421 258.347 252.058 258.348C251.689 258.35 251.377 258.272 251.124 258.114C250.87 257.953 250.677 257.741 250.546 257.477C250.414 257.21 250.347 256.918 250.346 256.6ZM251.213 256.136L251.215 256.596C251.216 256.86 251.28 257.097 251.406 257.307C251.531 257.514 251.748 257.617 252.055 257.615C252.353 257.614 252.563 257.509 252.684 257.301C252.808 257.091 252.87 256.853 252.868 256.589L252.866 256.129C252.865 255.864 252.805 255.629 252.684 255.422C252.564 255.212 252.351 255.108 252.044 255.11C251.745 255.111 251.531 255.217 251.402 255.428C251.275 255.636 251.212 255.872 251.213 256.136ZM250.699 263.229L256.66 254.476L257.632 254.471L251.67 263.225L250.699 263.229Z" fill="white"/>
<path d="M228.086 326.601L228.124 335.328L227.068 335.333L227.034 327.714L226.983 327.714L224.859 329.138L224.854 328.064L227.029 326.606L228.086 326.601ZM230.634 335.317L230.631 334.55L233.498 331.384C233.834 331.014 234.111 330.691 234.329 330.418C234.546 330.141 234.707 329.882 234.811 329.64C234.918 329.395 234.971 329.139 234.97 328.872C234.968 328.566 234.893 328.3 234.745 328.076C234.599 327.853 234.399 327.68 234.146 327.559C233.892 327.438 233.608 327.378 233.293 327.38C232.958 327.381 232.665 327.452 232.416 327.592C232.169 327.73 231.978 327.922 231.843 328.17C231.711 328.418 231.645 328.708 231.647 329.04L230.641 329.045C230.639 328.533 230.755 328.084 230.989 327.697C231.223 327.309 231.543 327.007 231.948 326.789C232.356 326.571 232.814 326.461 233.323 326.459C233.834 326.457 234.288 326.563 234.684 326.777C235.079 326.991 235.39 327.281 235.616 327.646C235.842 328.012 235.956 328.419 235.958 328.868C235.96 329.189 235.903 329.503 235.788 329.811C235.675 330.115 235.478 330.455 235.196 330.832C234.916 331.205 234.527 331.661 234.03 332.2L232.079 334.305L232.079 334.374L236.136 334.356L236.14 335.293L230.634 335.317ZM242.341 333.63L242.339 333.17C242.338 332.852 242.402 332.56 242.532 332.295C242.664 332.028 242.856 331.814 243.108 331.654C243.363 331.491 243.673 331.408 244.036 331.407C244.406 331.405 244.716 331.485 244.966 331.645C245.217 331.803 245.407 332.016 245.536 332.282C245.665 332.546 245.73 332.837 245.731 333.155L245.734 333.615C245.735 333.933 245.671 334.226 245.541 334.494C245.415 334.759 245.225 334.972 244.973 335.135C244.724 335.296 244.417 335.377 244.054 335.378C243.684 335.38 243.373 335.302 243.119 335.144C242.866 334.983 242.673 334.771 242.541 334.507C242.41 334.24 242.343 333.948 242.341 333.63ZM243.209 333.166L243.211 333.626C243.212 333.89 243.275 334.127 243.401 334.337C243.527 334.544 243.744 334.647 244.05 334.645C244.349 334.644 244.559 334.539 244.68 334.331C244.804 334.121 244.865 333.883 244.864 333.619L244.862 333.159C244.861 332.894 244.8 332.659 244.68 332.452C244.56 332.242 244.346 332.138 244.04 332.14C243.741 332.141 243.527 332.247 243.397 332.458C243.271 332.666 243.208 332.902 243.209 333.166ZM237.973 328.655L237.971 328.194C237.97 327.876 238.034 327.585 238.163 327.32C238.296 327.052 238.488 326.838 238.74 326.678C238.995 326.515 239.304 326.433 239.668 326.431C240.037 326.43 240.347 326.509 240.598 326.67C240.849 326.828 241.039 327.04 241.168 327.307C241.297 327.571 241.362 327.861 241.363 328.18L241.365 328.64C241.367 328.958 241.302 329.251 241.173 329.519C241.046 329.783 240.857 329.997 240.605 330.16C240.355 330.32 240.049 330.401 239.685 330.403C239.316 330.404 239.005 330.326 238.751 330.168C238.497 330.008 238.305 329.795 238.173 329.532C238.041 329.265 237.975 328.973 237.973 328.655ZM238.84 328.191L238.842 328.651C238.844 328.915 238.907 329.152 239.033 329.362C239.159 329.569 239.375 329.671 239.682 329.67C239.98 329.669 240.19 329.564 240.311 329.356C240.436 329.145 240.497 328.908 240.496 328.644L240.494 328.183C240.493 327.919 240.432 327.684 240.312 327.477C240.192 327.267 239.978 327.163 239.671 327.164C239.373 327.166 239.159 327.272 239.029 327.482C238.902 327.69 238.839 327.926 238.84 328.191ZM238.326 335.284L244.288 326.53L245.259 326.526L239.298 335.28L238.326 335.284Z" fill="white"/>
<path d="M152.122 350.661L152.119 349.894L154.986 346.728C155.322 346.357 155.599 346.035 155.817 345.761C156.035 345.484 156.195 345.225 156.299 344.983C156.406 344.739 156.459 344.483 156.458 344.216C156.457 343.909 156.382 343.643 156.233 343.42C156.087 343.196 155.887 343.023 155.634 342.902C155.381 342.781 155.096 342.722 154.781 342.723C154.446 342.724 154.153 342.795 153.904 342.936C153.658 343.073 153.467 343.266 153.331 343.513C153.199 343.761 153.133 344.051 153.135 344.384L152.129 344.388C152.127 343.877 152.243 343.427 152.477 343.04C152.711 342.652 153.031 342.35 153.436 342.132C153.844 341.914 154.303 341.805 154.811 341.802C155.322 341.8 155.776 341.906 156.172 342.12C156.568 342.334 156.879 342.624 157.105 342.99C157.331 343.355 157.445 343.762 157.447 344.211C157.448 344.532 157.391 344.846 157.276 345.154C157.164 345.458 156.966 345.799 156.684 346.175C156.404 346.548 156.016 347.004 155.518 347.544L153.567 349.649L153.567 349.717L157.624 349.699L157.628 350.637L152.122 350.661ZM162.286 350.736C161.928 350.732 161.57 350.665 161.212 350.536C160.853 350.407 160.525 350.188 160.229 349.88C159.932 349.568 159.693 349.148 159.511 348.617C159.33 348.084 159.238 347.414 159.234 346.607C159.231 345.834 159.3 345.149 159.442 344.552C159.585 343.952 159.793 343.447 160.067 343.036C160.34 342.623 160.671 342.309 161.06 342.095C161.451 341.88 161.892 341.771 162.383 341.769C162.872 341.767 163.307 341.863 163.689 342.058C164.073 342.249 164.387 342.518 164.63 342.863C164.873 343.209 165.031 343.607 165.104 344.058L164.064 344.063C163.966 343.671 163.777 343.347 163.497 343.09C163.218 342.832 162.848 342.705 162.388 342.707C161.711 342.71 161.18 343.006 160.793 343.596C160.41 344.186 160.219 345.012 160.22 346.074L160.289 346.074C160.447 345.832 160.635 345.625 160.853 345.453C161.073 345.279 161.317 345.145 161.584 345.05C161.85 344.955 162.133 344.907 162.431 344.905C162.931 344.903 163.389 345.026 163.805 345.274C164.221 345.52 164.555 345.861 164.807 346.297C165.059 346.731 165.186 347.229 165.188 347.791C165.191 348.331 165.072 348.826 164.832 349.276C164.593 349.723 164.255 350.079 163.819 350.345C163.385 350.609 162.874 350.739 162.286 350.736ZM162.282 349.798C162.64 349.797 162.961 349.706 163.244 349.525C163.53 349.345 163.755 349.104 163.918 348.802C164.085 348.5 164.167 348.165 164.165 347.796C164.164 347.435 164.081 347.107 163.918 346.812C163.758 346.515 163.537 346.278 163.255 346.104C162.975 345.929 162.657 345.842 162.299 345.843C162.029 345.845 161.778 345.9 161.545 346.009C161.313 346.115 161.109 346.261 160.934 346.446C160.761 346.631 160.626 346.844 160.527 347.083C160.429 347.319 160.38 347.568 160.381 347.829C160.383 348.176 160.465 348.499 160.629 348.8C160.795 349.1 161.02 349.342 161.305 349.525C161.593 349.709 161.919 349.8 162.282 349.798ZM171.318 348.94L171.316 348.48C171.315 348.162 171.379 347.871 171.508 347.606C171.64 347.338 171.833 347.124 172.085 346.964C172.34 346.801 172.649 346.719 173.013 346.717C173.382 346.715 173.692 346.795 173.943 346.956C174.193 347.114 174.383 347.326 174.512 347.593C174.641 347.856 174.707 348.147 174.708 348.465L174.71 348.926C174.711 349.244 174.647 349.537 174.518 349.804C174.391 350.069 174.202 350.283 173.95 350.446C173.7 350.606 173.394 350.687 173.03 350.689C172.661 350.69 172.349 350.612 172.096 350.454C171.842 350.293 171.65 350.081 171.518 349.817C171.386 349.551 171.319 349.259 171.318 348.94ZM172.185 348.476L172.187 348.937C172.188 349.201 172.252 349.438 172.378 349.647C172.504 349.854 172.72 349.957 173.027 349.956C173.325 349.954 173.535 349.85 173.656 349.642C173.78 349.431 173.842 349.194 173.841 348.929L173.839 348.469C173.837 348.205 173.777 347.969 173.657 347.763C173.536 347.553 173.323 347.449 173.016 347.45C172.718 347.451 172.504 347.557 172.374 347.768C172.247 347.976 172.184 348.212 172.185 348.476ZM166.95 343.965L166.948 343.505C166.946 343.187 167.01 342.895 167.14 342.631C167.272 342.363 167.464 342.149 167.716 341.989C167.971 341.826 168.281 341.743 168.644 341.742C169.014 341.74 169.324 341.82 169.574 341.981C169.825 342.139 170.015 342.351 170.144 342.617C170.273 342.881 170.338 343.172 170.34 343.49L170.342 343.95C170.343 344.269 170.279 344.561 170.149 344.829C170.023 345.094 169.833 345.308 169.581 345.471C169.332 345.631 169.025 345.712 168.662 345.713C168.292 345.715 167.981 345.637 167.727 345.479C167.474 345.318 167.281 345.106 167.149 344.842C167.018 344.576 166.951 344.283 166.95 343.965ZM167.817 343.501L167.819 343.961C167.82 344.226 167.884 344.463 168.009 344.672C168.135 344.879 168.352 344.982 168.659 344.98C168.957 344.979 169.167 344.875 169.288 344.667C169.412 344.456 169.473 344.218 169.472 343.954L169.47 343.494C169.469 343.23 169.408 342.994 169.288 342.787C169.168 342.578 168.954 342.473 168.648 342.475C168.349 342.476 168.135 342.582 168.006 342.793C167.879 343.001 167.816 343.237 167.817 343.501ZM167.302 350.594L173.264 341.841L174.236 341.837L168.274 350.59L167.302 350.594Z" fill="white"/>
<path d="M104.826 282.867L104.822 282.1L107.689 278.934C108.026 278.563 108.303 278.241 108.52 277.967C108.738 277.691 108.899 277.431 109.003 277.189C109.11 276.945 109.162 276.689 109.161 276.422C109.16 276.115 109.085 275.85 108.936 275.626C108.79 275.402 108.591 275.23 108.337 275.108C108.084 274.987 107.8 274.928 107.484 274.929C107.149 274.93 106.857 275.001 106.607 275.142C106.361 275.279 106.17 275.472 106.035 275.719C105.902 275.967 105.837 276.257 105.838 276.59L104.832 276.594C104.83 276.083 104.946 275.633 105.18 275.246C105.414 274.858 105.734 274.556 106.139 274.338C106.547 274.121 107.006 274.011 107.514 274.008C108.026 274.006 108.479 274.112 108.875 274.326C109.271 274.54 109.582 274.83 109.808 275.196C110.034 275.561 110.148 275.968 110.15 276.417C110.151 276.738 110.094 277.053 109.979 277.36C109.867 277.664 109.67 278.005 109.387 278.381C109.108 278.754 108.719 279.211 108.221 279.75L106.27 281.855L106.27 281.923L110.327 281.905L110.331 282.843L104.826 282.867ZM114.938 282.942C114.296 282.945 113.749 282.772 113.295 282.425C112.842 282.075 112.495 281.566 112.253 280.9C112.012 280.23 111.889 279.421 111.885 278.472C111.881 277.529 111.996 276.723 112.232 276.055C112.471 275.383 112.815 274.87 113.265 274.516C113.718 274.159 114.263 273.979 114.899 273.976C115.536 273.973 116.08 274.148 116.534 274.502C116.99 274.852 117.338 275.362 117.58 276.031C117.824 276.698 117.949 277.503 117.953 278.446C117.957 279.395 117.841 280.205 117.606 280.876C117.37 281.545 117.027 282.056 116.577 282.411C116.127 282.762 115.58 282.939 114.938 282.942ZM114.934 282.004C115.571 282.002 116.064 281.693 116.413 281.077C116.763 280.462 116.935 279.587 116.93 278.45C116.927 277.695 116.843 277.051 116.679 276.521C116.517 275.99 116.285 275.587 115.983 275.309C115.684 275.032 115.324 274.895 114.903 274.897C114.273 274.899 113.781 275.213 113.429 275.836C113.076 276.457 112.902 277.334 112.907 278.468C112.911 279.223 112.993 279.865 113.154 280.393C113.316 280.921 113.546 281.322 113.846 281.596C114.148 281.87 114.511 282.006 114.934 282.004ZM124.033 281.146L124.031 280.686C124.029 280.368 124.094 280.077 124.223 279.812C124.355 279.544 124.548 279.33 124.8 279.17C125.055 279.007 125.364 278.925 125.728 278.923C126.097 278.921 126.407 279.001 126.658 279.162C126.908 279.32 127.098 279.532 127.227 279.799C127.356 280.062 127.421 280.353 127.423 280.671L127.425 281.132C127.426 281.45 127.362 281.743 127.233 282.01C127.106 282.275 126.917 282.489 126.664 282.652C126.415 282.812 126.109 282.893 125.745 282.895C125.376 282.896 125.064 282.818 124.811 282.66C124.557 282.499 124.365 282.287 124.233 282.023C124.101 281.757 124.034 281.465 124.033 281.146ZM124.9 280.682L124.902 281.143C124.903 281.407 124.967 281.644 125.093 281.853C125.219 282.06 125.435 282.163 125.742 282.162C126.04 282.16 126.25 282.056 126.371 281.848C126.495 281.637 126.557 281.4 126.556 281.135L126.554 280.675C126.552 280.411 126.492 280.175 126.372 279.969C126.251 279.759 126.038 279.655 125.731 279.656C125.433 279.657 125.219 279.763 125.089 279.974C124.962 280.182 124.899 280.418 124.9 280.682ZM119.665 276.171L119.662 275.711C119.661 275.393 119.725 275.101 119.855 274.837C119.987 274.569 120.179 274.355 120.431 274.195C120.686 274.032 120.996 273.949 121.359 273.948C121.729 273.946 122.039 274.026 122.289 274.187C122.54 274.345 122.73 274.557 122.859 274.823C122.988 275.087 123.053 275.378 123.055 275.696L123.057 276.156C123.058 276.475 122.994 276.767 122.864 277.035C122.738 277.3 122.548 277.514 122.296 277.677C122.047 277.837 121.74 277.918 121.377 277.919C121.007 277.921 120.696 277.843 120.442 277.685C120.189 277.524 119.996 277.312 119.864 277.048C119.733 276.782 119.666 276.489 119.665 276.171ZM120.532 275.707L120.534 276.167C120.535 276.432 120.599 276.669 120.724 276.878C120.85 277.085 121.067 277.188 121.374 277.186C121.672 277.185 121.882 277.081 122.003 276.873C122.127 276.662 122.188 276.424 122.187 276.16L122.185 275.7C122.184 275.436 122.123 275.2 122.003 274.993C121.883 274.784 121.669 274.679 121.363 274.681C121.064 274.682 120.85 274.788 120.72 274.999C120.594 275.207 120.531 275.443 120.532 275.707ZM120.017 282.8L125.979 274.047L126.951 274.043L120.989 282.796L120.017 282.8Z" fill="white"/>
<defs>
<filter id="filter0_d_391_854" x="0" y="-0.000244141" width="377.13" height="509.547" filterUnits="userSpaceOnUse" color-interpolation-filters="sRGB">
<feFlood flood-opacity="0" result="BackgroundImageFix"/>
<feColorMatrix in="SourceAlpha" type="matrix" values="0 0 0 0 0 0 0 0 0 0 0 0 0 0 0 0 0 0 127 0" result="hardAlpha"/>
<feOffset dy="2"/>
<feGaussianBlur stdDeviation="5"/>
<feComposite in2="hardAlpha" operator="out"/>
<feColorMatrix type="matrix" values="0 0 0 0 0 0 0 0 0 0 0 0 0 0 0 0 0 0 0.1 0"/>
<feBlend mode="normal" in2="BackgroundImageFix" result="effect1_dropShadow_391_854"/>
<feBlend mode="normal" in="SourceGraphic" in2="effect1_dropShadow_391_854" result="shape"/>
</filter>
</defs>
</svg>
