<svg width="92" height="92" viewBox="0 0 92 92" fill="none" xmlns="http://www.w3.org/2000/svg">
<g clip-path="url(#clip0_391_1432)">
<path d="M46 92C33.8 92 22.0998 87.1536 13.4731 78.5269C4.84641 69.9002 0 58.2 0 46C0 33.8 4.84641 22.0998 13.4731 13.4731C22.0998 4.84641 33.8 0 46 0C58.2 0 69.9002 4.84641 78.5269 13.4731C87.1536 22.0998 92 33.8 92 46C92 58.2 87.1536 69.9002 78.5269 78.5269C69.9002 87.1536 58.2 92 46 92ZM55.2 32.2C55.2 33.488 54.234 35.88 53.268 36.8L46 44.068C43.378 46.736 41.4 51.428 41.4 55.2V59.8H50.6V55.2C50.6 53.866 51.566 51.52 52.532 50.6L59.8 43.332C62.422 40.664 64.4 35.972 64.4 32.2C64.4 27.32 62.4614 22.6399 59.0108 19.1892C55.5601 15.7386 50.88 13.8 46 13.8C41.12 13.8 36.4399 15.7386 32.9892 19.1892C29.5386 22.6399 27.6 27.32 27.6 32.2H36.8C36.8 29.76 37.7693 27.42 39.4946 25.6946C41.22 23.9693 43.56 23 46 23C48.44 23 50.78 23.9693 52.5054 25.6946C54.2307 27.42 55.2 29.76 55.2 32.2ZM41.4 69V78.2H50.6V69H41.4Z" fill="url(#paint0_linear_391_1432)"/>
</g>
<defs>
<linearGradient id="paint0_linear_391_1432" x1="46" y1="0" x2="46" y2="92" gradientUnits="userSpaceOnUse">
<stop stop-color="#008753"/>
<stop offset="1" stop-color="#002114"/>
</linearGradient>
<clipPath id="clip0_391_1432">
<rect width="92" height="92" fill="white"/>
</clipPath>
</defs>
</svg>
