<svg width="16" height="16" viewBox="0 0 16 16" fill="none" xmlns="http://www.w3.org/2000/svg">
<path d="M7.65495 3.42492C7.65495 3.55753 7.70763 3.68471 7.8014 3.77848C7.89516 3.87224 8.02234 3.92492 8.15495 3.92492H11.41L3.08495 12.2499C3.00304 12.3456 2.96023 12.4686 2.96509 12.5944C2.96996 12.7203 3.02212 12.8397 3.11117 12.9287C3.20022 13.0178 3.31959 13.0699 3.44542 13.0748C3.57126 13.0796 3.6943 13.0368 3.78995 12.9549L12.1049 4.63992V7.86992C12.1049 8.00253 12.1576 8.12971 12.2514 8.22348C12.3452 8.31724 12.4723 8.36992 12.6049 8.36992C12.7376 8.36992 12.8647 8.31724 12.9585 8.22348C13.0523 8.12971 13.1049 8.00253 13.1049 7.86992V3.36992C13.1049 3.25057 13.0575 3.13612 12.9731 3.05172C12.8888 2.96733 12.7743 2.91992 12.655 2.91992H8.15495C8.08887 2.91992 8.02344 2.93302 7.96245 2.95845C7.90146 2.98389 7.84611 3.02117 7.79962 3.06813C7.75312 3.11509 7.7164 3.1708 7.69157 3.23204C7.66673 3.29329 7.65429 3.35884 7.65495 3.42492Z" fill="white"/>
</svg>
