<svg width="9" height="9" viewBox="0 0 9 9" fill="none" xmlns="http://www.w3.org/2000/svg">
<g clip-path="url(#clip0_24_26)">
<path d="M4.87194 7.842L6.18444 8.53125C6.31649 8.60034 6.46523 8.63113 6.61385 8.62014C6.76248 8.60915 6.90507 8.55682 7.02552 8.46906C7.14597 8.3813 7.23948 8.2616 7.29548 8.12349C7.35148 7.98539 7.36775 7.83437 7.34244 7.6875L7.09232 6.22763C7.07031 6.09988 7.07974 5.96869 7.11979 5.8454C7.15984 5.72211 7.22931 5.61043 7.32219 5.52L8.38269 4.48613C8.48949 4.38205 8.56503 4.25016 8.60078 4.10539C8.63653 3.96061 8.63105 3.80873 8.58497 3.6669C8.53889 3.52508 8.45405 3.39897 8.34004 3.30286C8.22603 3.20674 8.08739 3.14444 7.93982 3.123L6.47394 2.91C6.34604 2.89104 6.22464 2.84136 6.12014 2.76521C6.01564 2.68905 5.93117 2.5887 5.87394 2.47275L5.21657 1.146C5.15058 1.01228 5.04849 0.899684 4.92185 0.820954C4.79521 0.742225 4.64906 0.7005 4.49994 0.7005C4.35082 0.7005 4.20468 0.742225 4.07804 0.820954C3.95139 0.899684 3.84931 1.01228 3.78332 1.146L3.12782 2.475C3.0706 2.59095 2.98612 2.6913 2.88162 2.76746C2.77712 2.84361 2.65572 2.89329 2.52782 2.91225L1.06194 3.12525C0.91437 3.14669 0.775738 3.20899 0.661726 3.30511C0.547714 3.40122 0.462871 3.52733 0.416792 3.66915C0.370714 3.81098 0.365238 3.96287 0.400985 4.10764C0.436732 4.25241 0.512274 4.3843 0.619069 4.48838L1.67957 5.52225C1.77246 5.61268 1.84193 5.72436 1.88198 5.84765C1.92203 5.97094 1.93146 6.10213 1.90944 6.22988L1.65744 7.6875C1.63194 7.83457 1.64813 7.98584 1.70419 8.12418C1.76025 8.26252 1.85393 8.38239 1.97462 8.47021C2.09531 8.55804 2.23819 8.61031 2.38706 8.6211C2.53593 8.63188 2.68485 8.60076 2.81694 8.53125L4.12944 7.842C4.24401 7.78204 4.37139 7.75072 4.50069 7.75072C4.63 7.75072 4.75738 7.78204 4.87194 7.842Z" fill="url(#paint0_linear_24_26)"/>
</g>
<defs>
<linearGradient id="paint0_linear_24_26" x1="4.49994" y1="0.658127" x2="4.49994" y2="8.6535" gradientUnits="userSpaceOnUse">
<stop stop-color="#FFF650"/>
<stop offset="1" stop-color="#FFAB17"/>
</linearGradient>
<clipPath id="clip0_24_26">
<rect width="9" height="9" fill="white"/>
</clipPath>
</defs>
</svg>
