<svg width="107" height="107" viewBox="0 0 107 107" fill="none" xmlns="http://www.w3.org/2000/svg">
<path d="M25.1617 22.2986H0V84.7222H25.1617V22.2986Z" fill="#E91E26"/>
<path d="M107 22.2986H81.8383V84.7222H107V22.2986Z" fill="#E91E26"/>
<path d="M81.8174 22.2986H25.1617V84.7222H81.8174V22.2986Z" fill="white"/>
<path d="M53.5 30.3862L49.7801 37.5962C49.3621 38.3903 48.6098 38.3067 47.8574 37.8679L45.1615 36.4259L47.1678 47.5021C47.5857 49.5292 46.2273 49.5292 45.5795 48.6515L40.8982 43.1761L40.1459 45.9556C40.0623 46.3108 39.6652 46.7079 39.101 46.6034L33.1658 45.3077L34.7332 51.2011C35.0676 52.5177 35.3184 53.061 34.3988 53.3954L32.2881 54.4194L42.4865 63.0505C42.8836 63.3849 43.0926 63.97 42.9463 64.4925L42.0477 67.5437C45.5586 67.1257 48.7143 66.7495 52.2252 66.3315C52.5387 66.3315 53.0611 66.6032 53.0611 66.9794L52.6014 78.1601H54.315L54.0434 67.0003C54.0434 66.6241 54.5031 66.3315 54.8166 66.3315C58.3275 66.7495 61.4832 67.1257 64.9941 67.5437L64.0955 64.4925C63.9492 63.97 64.1582 63.364 64.5553 63.0505L74.7537 54.4194L72.643 53.3954C71.7234 53.0401 71.9742 52.4968 72.3086 51.2011L73.8551 45.3077L67.9199 46.6034C67.3348 46.687 66.9586 46.3108 66.875 45.9556L66.1227 43.1761L61.4414 48.6515C60.7727 49.5292 59.4143 49.5292 59.8531 47.5021L61.8594 36.4259L59.1635 37.8679C58.4111 38.3067 57.6588 38.3694 57.2408 37.5962L53.5 30.3862Z" fill="#E91E26"/>
</svg>
