<svg width="107" height="107" viewBox="0 0 107 107" fill="none" xmlns="http://www.w3.org/2000/svg">
<path d="M28.3801 22.2986L0 56.3421V62.0056L2.84219 64.8478L0 67.69V73.3535L2.84219 76.1957L0 79.0378V84.7222H107V79.0378L104.158 76.1957L107 73.3535V67.69L104.158 64.8478L107 62.0056V56.3421L104.158 53.5L107 50.6578V44.9943L104.158 42.1521L107 39.3099V33.6464L104.158 30.8042L107 27.9621V22.2986H28.3801Z" fill="#AE1D3B"/>
<path d="M0 79.0379H107V73.3536H0V79.0379ZM0 67.6901H107V62.0057H0V67.6901ZM28.3801 27.9622L0 50.6579V56.3422H107V50.6579H28.3801L22.7166 44.9735H107V39.31H22.6957V33.6465H107V27.9622H28.3801Z" fill="white"/>
<path d="M28.3801 22.2986H0V50.6787H28.3801V22.2986Z" fill="#262D65"/>
<path d="M14.1901 27.9622L11.5569 36.0499L16.4053 37.6381L14.1901 27.9622Z" fill="white"/>
<path d="M14.19 27.9622L16.8232 36.0499L11.9539 37.6381L14.19 27.9622Z" fill="white"/>
<path d="M22.2778 33.8345H13.7721V38.9546L22.2778 33.8345Z" fill="white"/>
<path d="M22.2778 33.8345L15.4022 38.8501L12.3928 34.7122L22.2778 33.8345Z" fill="white"/>
<path d="M19.1848 43.3645L16.5516 35.2559L11.7031 36.8441L19.1848 43.3645Z" fill="white"/>
<path d="M19.1848 43.3641L12.3092 38.3484L15.2977 34.2314L19.1848 43.3641Z" fill="white"/>
<path d="M9.17444 43.3641L16.0709 38.3484L13.0615 34.2314L9.17444 43.3641Z" fill="white"/>
<path d="M9.17444 43.3645L11.8076 35.2559L16.677 36.8441L9.17444 43.3645Z" fill="white"/>
<path d="M6.08142 33.8345L12.9779 38.8501L15.9873 34.7122L6.08142 33.8345Z" fill="white"/>
<path d="M6.08142 33.8345H14.608V38.9546L6.08142 33.8345Z" fill="white"/>
</svg>
