<svg width="107" height="107" viewBox="0 0 107 107" fill="none" xmlns="http://www.w3.org/2000/svg">
<path d="M107 22.2986H0V84.7222H107V22.2986Z" fill="#010101"/>
<path d="M107 22.2986H0V43.7613H107V22.2986Z" fill="white"/>
<path d="M107 22.2986H0V41.7968H107V22.2986Z" fill="#317368"/>
<path d="M107 63.2385H0V84.7221H107V63.2385Z" fill="white"/>
<path d="M107 65.2031H0V84.7014H107V65.2031Z" fill="#F5E128"/>
<path d="M0 22.2986V84.7222L40.9609 53.5L0 22.2986Z" fill="#C01F3F"/>
<path d="M21.2537 65.2031L13.6467 59.6232L6.03967 65.2031L8.98635 56.2377L1.33752 50.7414L10.7836 50.7832L13.6467 41.7969L16.5307 50.7832L25.9559 50.7414L18.3071 56.2586L21.2537 65.2031Z" fill="#F5E128"/>
<path d="M7.04272 58.9545H12.5181C12.957 59.4561 13.9392 59.6441 14.8796 58.9545C16.5933 58.0141 19.9162 58.9545 19.9162 58.9545L20.564 58.2648L18.9757 53.0193L18.4115 52.4133C18.4115 52.4133 17.1785 51.6818 14.8587 51.9117C12.5181 52.1625 11.7031 51.8281 11.7031 51.8281C11.7031 51.8281 9.65503 52.0789 9.09077 52.3506C9.02808 52.4133 8.44292 52.9984 8.44292 52.9984L7.04272 58.9545Z" fill="white"/>
<path d="M13.6257 59.4769C13.166 59.4769 12.748 59.3097 12.4763 58.9962L7.04272 59.0171L8.38022 52.9984C8.40112 52.9775 8.98628 52.3714 9.04897 52.3087C9.63413 52.0162 11.6195 51.7654 11.7031 51.7654C11.7449 51.7654 12.5808 52.0789 14.8587 51.849C17.1994 51.5982 18.4115 52.3296 18.4533 52.3505L19.0384 52.9775L20.6476 58.2439L19.9789 58.9962C19.9162 59.038 18.4324 58.5992 16.9486 58.5992C16.0917 58.5992 15.4021 58.7455 14.9214 59.0171C14.5244 59.3097 14.0646 59.4769 13.6257 59.4769ZM12.5181 58.8917C12.8107 59.1843 13.1869 59.3515 13.6257 59.3515C14.0437 59.3515 14.4617 59.2052 14.8587 58.9126C15.3812 58.6201 16.0917 58.4738 16.9695 58.4738C18.4533 58.4738 19.958 58.8917 19.958 58.8917L20.5431 58.223L18.9339 53.0402L18.3697 52.455C18.3697 52.455 17.1367 51.7445 14.8587 51.9744C12.5181 52.2251 11.7031 51.9117 11.6822 51.8908C11.7031 51.8908 9.67593 52.1416 9.11167 52.4132C9.06987 52.455 8.48472 53.0611 8.48472 53.0611L7.10542 58.9753L12.5181 58.8917Z" fill="#010101"/>
<path d="M13.5839 59.4769C13.1869 59.4769 12.8107 59.3306 12.4345 59.0589C12.539 58.8499 12.9152 58.4528 13.6466 58.0976C11.5568 57.2825 8.19214 57.6796 8.15034 57.6796C8.10854 57.7005 8.08765 57.6587 8.08765 57.6169C8.08765 57.5751 8.10854 57.5542 8.15034 57.5542C8.31753 57.5333 11.6822 57.1363 13.772 58.0349C14.796 57.5542 16.4679 57.178 18.8503 57.5124C18.8921 57.5124 18.913 57.5542 18.913 57.5751C18.913 57.6169 18.8712 57.6378 18.8294 57.6378C16.4679 57.3243 14.9005 57.6796 13.9183 58.1185C14.3363 58.3275 14.7125 58.5991 14.9632 58.9335C14.4617 59.2888 14.0228 59.4769 13.5839 59.4769ZM13.8138 58.1394C12.9361 58.5573 12.5599 59.0171 12.5599 59.0171C13.2914 59.4769 14.0228 59.4769 14.8796 58.8917C14.608 58.5782 14.2318 58.3275 13.8138 58.1394Z" fill="#010101"/>
<path d="M13.772 58.1393L13.7094 52.3713H13.8138L13.772 58.1393Z" fill="#010101"/>
<path d="M19.4565 57.0317L18.3698 52.455L18.4742 52.4341L19.4565 57.0317Z" fill="#010101"/>
<path d="M8.61018 54.8166C8.58928 54.7957 8.58928 54.8166 8.61018 54.8166C8.56838 54.8166 8.54749 54.7748 8.54749 54.7331L9.09084 52.3715C9.09084 52.3297 9.13264 52.3088 9.17444 52.3297C9.21624 52.3297 9.23713 52.3715 9.21623 52.4133L8.67288 54.754C8.65198 54.7957 8.63108 54.8166 8.61018 54.8166Z" fill="#010101"/>
<path d="M3.48999 59.5814L4.78569 61.086C4.93198 61.1696 5.07827 61.1696 5.20366 61.086L7.10542 58.7872L7.89956 57.805C8.02495 57.6587 8.06675 57.4915 8.04585 57.3452L9.57143 55.9868C9.69683 55.9868 9.78042 56.0077 9.90581 56.0077C9.75952 55.9659 9.65503 55.9032 9.75952 55.736L10.0939 55.4644L10.3656 55.7987C10.3656 55.7987 9.9894 56.3003 9.94761 56.3003H9.52964L8.7355 57.0317L9.09077 57.3452L9.61323 58.7872L10.2611 58.3274L9.84311 56.8437L10.7626 55.8614L10.4283 55.3181L10.6582 55.0046C10.6582 55.0046 13.8347 57.0108 15.0468 56.4675C15.0886 56.4884 15.1304 55.0464 15.1304 55.0464C15.1304 55.0464 11.8494 54.712 11.7658 54.0433C11.6822 53.3954 12.4972 53.3118 12.4972 53.3118L12.1628 52.8103L12.2464 52.5386L12.8107 53.27L14.1064 52.1624L21.7552 60.8771C22.1732 60.7099 22.2568 60.6054 22.2986 60.1874C22.2777 60.1874 14.8169 51.5981 14.8169 51.5981L15.3812 50.9921C15.4857 50.8667 15.5275 50.804 15.5275 50.6159L16.4052 49.8427C16.6769 49.9263 16.8441 50.0935 16.9695 50.3024L19.3937 48.2544C19.4564 48.3171 19.6445 48.3798 19.7908 48.3171L23.7824 44.4927L19.4355 47.5647L19.2892 47.4603C19.2892 47.3349 19.4564 47.2931 19.2892 47.0841C19.122 46.8751 18.8712 47.2722 18.8294 47.2722C18.7876 47.2722 18.2025 47.0632 18.0771 46.7915L18.0353 47.5021L16.9277 48.5261L16.0917 48.4843L14.8796 49.6755L14.7333 50.1353L14.9214 50.5114C14.9214 50.5114 14.2736 51.0757 14.2736 51.0339C14.2736 50.9921 14.1482 50.8667 14.1273 50.8458L14.6289 50.3651L14.7125 50.0308L14.5244 49.7382C14.4617 49.78 13.7511 50.5323 13.7093 50.4487C13.6466 50.386 11.6404 48.1081 11.6404 48.1081L11.7449 47.6901L10.4492 46.269C9.96851 46.1019 9.21616 46.081 9.06987 47.105C8.94448 47.3558 7.96226 47.1468 7.96226 47.1468L7.4189 47.2722L4.40952 51.5563L6.0814 53.5835L9.52964 49.2366L9.63413 48.0036L10.3656 48.8187C10.6164 48.8605 10.8253 48.8604 11.0552 48.7351L13.0824 51.013L12.748 51.3474C12.8525 51.4728 12.9361 51.5563 13.0615 51.6817C13.1869 51.5981 13.2914 51.5146 13.3958 51.431C13.4376 51.4937 13.5003 51.5772 13.5421 51.619C13.375 51.7026 13.2496 51.828 13.0824 51.9325C12.8107 51.7444 12.539 51.5354 12.5599 51.1802L11.4105 52.1415L11.3687 52.3296L7.96226 55.1509L7.64878 55.1927L7.56519 56.0704L9.78042 54.2313V53.9597L10.0103 54.1478L11.724 52.7685C11.724 52.7685 11.8285 52.9147 11.8076 52.9147C11.7658 52.9147 10.282 54.294 10.282 54.294L10.2402 54.4403L9.96851 54.6702L9.82222 54.5657L7.75327 56.4048H7.43979L6.29038 57.5542C5.9978 57.5751 5.74702 57.6169 5.49624 57.7841L3.48999 59.5814Z" fill="#010101"/>
<path d="M4.99473 61.2323C4.91113 61.2323 4.82754 61.2114 4.74395 61.1487L3.44824 59.6231L5.51719 57.7214C5.78887 57.5333 6.03965 57.5124 6.35312 57.4706L7.46074 56.3421L7.81602 56.3212L9.84316 54.503L10.073 54.6075L10.282 54.2523C11.4314 53.1655 11.7449 52.9148 11.8285 52.8521C11.7867 52.8521 11.7658 52.8103 11.7449 52.7894L10.1148 54.1687L9.80137 53.9806L9.90586 54.1896L7.66973 56.0704L7.64883 55.13L8.0041 55.0255L11.3479 52.246L11.3688 52.0997L12.5391 51.1175C12.6227 51.4937 12.8734 51.7026 13.1242 51.8698C13.1451 51.828 13.2078 51.7653 13.2705 51.7235C13.3541 51.6608 13.4168 51.619 13.5004 51.5564L13.3959 51.5355L13.0824 51.7026L12.6854 51.3474L13.0197 50.9294L10.9717 48.756C10.8881 48.8814 10.5955 48.8814 10.3238 48.8605L9.57148 48.0245L9.59238 49.2157L6.14414 53.6044L4.36777 51.5773L7.39805 47.2304L7.9832 47.0841C8.0041 47.0841 8.40117 47.1677 8.71465 47.1677C8.98633 47.1677 9.04902 47.105 9.04902 47.0841C9.21621 45.872 10.1566 46.1019 10.5119 46.2064L11.8285 47.6483L11.724 48.129C11.7658 48.129 13.7094 50.3233 13.7721 50.4069C13.793 50.3651 14.1691 50.0099 14.3154 49.8427C14.399 49.7591 14.4617 49.6964 14.4826 49.6755L14.6707 49.8845L14.7543 49.6546L15.9873 48.4425L16.8859 48.4634L17.9518 47.4394L17.9727 46.7706C18.2025 46.9796 18.7459 47.1677 18.8086 47.1886C18.8922 47.0632 19.0176 46.9378 19.143 46.9378C19.1639 46.9378 19.2893 47.0005 19.3102 47.0214C19.4355 47.1886 19.3937 47.2931 19.352 47.3767L19.4564 47.5021L23.7406 44.43C23.7615 44.4091 23.8033 44.4091 23.8242 44.4509C23.8451 44.4718 23.8451 44.5136 23.8242 44.5345L19.8326 48.3589C19.6654 48.4634 19.4355 48.4007 19.352 48.2962L17.0113 50.3651C16.7605 50.1353 16.5934 49.989 16.3844 49.9263L15.5693 50.6786C15.5902 50.8458 15.5484 50.9085 15.423 51.0548L14.8588 51.6608C14.9424 51.6608 22.2777 60.1038 22.3404 60.1665C22.3195 60.6681 22.215 60.7935 21.7762 60.9607L14.0646 52.2251L12.8525 53.3327L12.1838 52.6013L12.2256 52.8521L12.5391 53.2909C12.4973 53.3954 12.1002 53.4372 11.933 53.6671C11.8494 53.7716 11.8076 53.897 11.8285 54.0433C11.8703 54.4821 13.8766 54.8583 15.1305 54.9837C15.1514 56.5302 15.1305 56.5302 15.0469 56.5302C14.9215 56.5929 14.7543 56.6138 14.5453 56.6138C13.1242 56.6138 10.7209 55.1091 10.6164 55.0464L10.4701 55.339L10.8254 55.7987L9.90586 56.8646L10.3447 58.2856L9.67598 58.8081L9.04902 57.3243L8.71465 57.0317L9.50879 56.2167L9.96855 56.1958C9.98945 56.1749 10.1775 55.945 10.3447 55.736L10.073 55.4644L9.82227 55.7987C9.80137 55.9032 9.82227 55.9241 9.94766 55.9659C9.98945 55.9659 10.0104 56.0077 9.98945 56.0286C9.98945 56.0704 9.94766 56.0704 9.92676 56.0913L9.59238 56.0704L8.10859 57.4079C8.15039 57.4915 8.10859 57.6796 7.9623 57.8677L5.24551 61.1487C5.14102 61.2114 5.05742 61.2323 4.99473 61.2323ZM9.82227 54.6075L7.83691 56.4466L7.48164 56.4675L6.37402 57.596C6.01875 57.6378 5.78887 57.6796 5.55898 57.8259L3.51094 59.644L4.80664 61.0651C4.89023 61.1069 5.01563 61.1278 5.14102 61.0442L7.83691 57.7632C7.9623 57.6169 7.9832 57.4497 7.9832 57.3452L9.52969 55.9241H9.65508C9.65508 55.9241 9.65508 55.9241 9.65508 55.9032C9.63418 55.8405 9.65508 55.7569 9.69688 55.6942L10.0521 55.4226L10.4074 55.7778C10.0104 56.3839 9.96855 56.3839 9.92676 56.3839H9.50879L8.75645 57.0944L9.11172 57.3034L9.65508 58.7872L10.1984 58.3065L9.75957 56.8855L10.7 55.8405L10.3447 55.3808L10.5746 55.0046C10.6791 55.0046 13.1242 56.5302 14.5244 56.5302C14.7125 56.5302 14.8797 56.5093 15.0051 56.4466C15.0051 56.4048 15.026 55.5898 15.0469 55.0882C14.7752 55.13 11.7658 54.7956 11.6822 54.106C11.6613 53.9179 11.7031 53.7507 11.8076 53.6253C12.0375 53.3536 12.4555 53.3118 12.4555 53.3118L12.0584 52.9148L12.1211 52.6013L12.8107 53.3118L14.0229 52.2042L21.7553 60.9189C22.0896 60.7308 22.1523 60.6472 22.1732 60.271C22.1314 60.2501 21.5672 59.6023 14.6916 51.7235L15.2768 51.0339C15.3812 50.9085 15.4021 50.8667 15.4021 50.6995L16.3008 49.8845C16.6143 49.9681 16.8023 50.1144 16.9695 50.3442L19.2893 48.2753C19.4146 48.3171 19.4982 48.338 19.5818 48.338L22.9883 45.1196L19.3938 47.6692L19.1639 47.5648C19.143 47.5439 19.1639 47.3976 19.1848 47.3767C19.2057 47.314 19.2266 47.2931 19.1639 47.1677C19.0176 47.1259 18.9131 47.2513 18.8713 47.314C18.8504 47.3349 18.7877 47.3976 18.7668 47.3976C18.7041 47.3976 18.098 47.1677 17.9518 46.896L18.0354 47.5648L16.9068 48.6515L16.0291 48.6306L14.8588 49.8009L14.7334 50.2398L14.9006 50.5532C14.2527 51.1802 14.2318 51.1802 14.19 51.1802C14.1064 51.0966 14.0646 51.0548 14.0437 51.013C14.0437 50.9921 13.9811 50.8876 14.002 50.8667L14.5662 50.3651L14.5871 50.1771L14.4617 49.8636C14.4408 49.8845 14.4199 49.9263 14.3781 49.9681C13.9184 50.4278 13.7721 50.5532 13.6885 50.5532C13.5631 50.4487 11.5568 48.1917 11.5568 48.1917L11.6613 47.711L10.3865 46.3526C10.3029 46.3317 10.1357 46.2899 9.96855 46.2899C9.50879 46.2899 9.21621 46.5825 9.13262 47.1677C9.06992 47.2931 8.92363 47.3349 8.67285 47.3349C8.35938 47.3349 7.9623 47.2513 7.94141 47.2513L7.43984 47.3767L4.45137 51.619L6.12324 53.5626L9.46699 49.2157L9.55059 48.0245L10.3865 48.7978C10.4283 48.7978 10.5119 48.7978 10.5955 48.7978C10.7418 48.7978 10.8881 48.7769 10.9926 48.7142L13.1033 50.9921L12.7689 51.4101L12.9152 51.4937L13.0615 51.6608L13.1451 51.5355L13.3123 51.4101C13.3332 51.3892 13.4377 51.4937 13.4586 51.5146L13.5422 51.619C13.4377 51.7653 13.375 51.8071 13.2914 51.8698C13.2078 51.9325 13.1451 51.9743 13.0615 52.037C12.7063 51.8489 12.4346 51.6191 12.4555 51.222L11.4105 52.2251L11.3896 52.3714L7.9623 55.2345L7.62793 55.2763L7.60703 56.0913L9.71777 54.2105L9.69688 54.0015L10.0312 54.1478L11.6613 52.7685C11.8703 52.9357 11.8494 52.9774 11.8494 52.9983C11.7449 53.0819 10.8672 53.8761 10.3029 54.3985L10.282 54.5239L9.98945 54.7956L9.82227 54.6075ZM14.7125 50.3024L14.6916 50.3651L14.1064 50.9085C14.2109 50.9503 14.2527 50.9921 14.2527 51.0339C14.2527 50.9294 14.5453 50.6995 14.7961 50.4696L14.7125 50.3024Z" fill="#010101"/>
</svg>
