<svg width="107" height="107" viewBox="0 0 107 107" fill="none" xmlns="http://www.w3.org/2000/svg">
<path d="M0 22.2986V69.6962L81.5666 22.2986H0Z" fill="#42A04B"/>
<path d="M25.4333 84.7223H107V37.3037L25.4333 84.7223Z" fill="#4694D2"/>
<path d="M106.937 22.2986L106.958 22.3192L106.999 22.2986H106.937Z" fill="#EAC126"/>
<path d="M0 84.7223L0.0417969 84.6805L0 84.6387V84.7223Z" fill="#EAC126"/>
<path d="M81.5666 22.2986L0 69.6962V74.5029L89.717 22.2986H81.5666Z" fill="#EAC126"/>
<path d="M0 84.7221H0.0624542L0.0416361 84.6804L0 84.7221Z" fill="#EAC126"/>
<path d="M107 22.2986L106.958 22.3195L107 22.3613V22.2986Z" fill="#EAC126"/>
<path d="M17.283 84.7223H25.4334L107 37.3037V32.4971L17.283 84.7223Z" fill="#EAC126"/>
<path d="M89.717 22.2986L0 74.5029V84.6386L0.0417969 84.6804L0.0626953 84.7222H17.283L107 32.497V22.3613L106.958 22.3195L106.937 22.2986H89.717Z" fill="black"/>
</svg>
