<svg width="107" height="107" viewBox="0 0 107 107" fill="none" xmlns="http://www.w3.org/2000/svg">
<path d="M107 22.2986H0V84.7222H107V22.2986Z" fill="black"/>
<path d="M107 32.6851H0V43.0925H107V32.6851Z" fill="#F8E82A"/>
<path d="M107 43.0928H0V53.5002H107V43.0928Z" fill="#CC3220"/>
<path d="M107 63.9072H0V74.3147H107V63.9072Z" fill="#F8E82A"/>
<path d="M107 74.3149H0V84.7224H107V74.3149Z" fill="#CC3220"/>
<path d="M63.2178 53.5C63.2178 58.8709 58.8709 63.2178 53.5 63.2178C48.1291 63.2178 43.7822 58.8709 43.7822 53.5C43.7822 48.1291 48.1291 43.7822 53.5 43.7822C58.8709 43.7822 63.2178 48.1291 63.2178 53.5Z" fill="#FFFCFF"/>
<path d="M53.5 63.2807C48.1083 63.2807 43.7405 58.892 43.7405 53.5002C43.7405 48.1084 48.1291 43.7197 53.5 43.7197C58.8918 43.7197 63.2596 48.1084 63.2596 53.5002C63.2596 58.892 58.8918 63.2807 53.5 63.2807ZM53.5 43.8242C48.1709 43.8242 43.8241 48.1711 43.8241 53.5002C43.8241 58.8293 48.15 63.1762 53.5 63.1762C58.8292 63.1762 63.1551 58.8293 63.1551 53.5002C63.1551 48.1711 58.8292 43.8242 53.5 43.8242Z" fill="black"/>
<path d="M51.7864 46.0604L51.1594 44.89C51.4102 44.6393 51.8073 44.4512 52.476 44.4512C52.476 44.493 52.4133 45.726 52.4133 45.726L51.7864 46.0604Z" fill="#CC2920"/>
<path d="M51.7654 46.1229L51.1176 44.9107C51.4101 44.5555 51.8908 44.4092 52.476 44.4092C52.5177 44.5137 52.4551 45.7258 52.4551 45.7258L51.7654 46.1229ZM52.4133 44.451C51.9117 44.4928 51.4728 44.6391 51.2011 44.9107L51.8072 45.9766L52.3715 45.684C52.3506 45.6631 52.4133 44.4928 52.4133 44.451Z" fill="black"/>
<path d="M52.3923 45.7468L52.4759 44.472C52.4759 44.472 53.7716 44.3884 54.4822 45.2452C54.5031 45.2243 53.7925 46.2483 53.7925 46.2483L52.3923 45.7468Z" fill="#F8E82A"/>
<path d="M53.8135 46.29L52.3715 45.7885L52.4342 44.4092H52.5595C52.873 44.4092 53.9179 44.4719 54.524 45.2033C54.5449 45.2451 54.5449 45.2451 53.8344 46.2691L53.8135 46.29ZM52.5595 44.5137L52.4342 45.7467L53.7717 46.1646C53.8761 45.9975 54.4195 45.2451 54.4404 45.2033C53.8761 44.5555 52.873 44.5137 52.5595 44.5137Z" fill="black"/>
<path d="M53.8135 46.2063L54.4613 45.2031C54.9002 45.6629 55.0674 45.9764 55.1301 46.457L54.1061 46.7078C54.127 46.7078 53.8344 46.2271 53.8135 46.2063Z" fill="#CC2920"/>
<path d="M54.127 46.7709L54.0852 46.7291C54.0643 46.6873 53.8135 46.2693 53.7926 46.2275L54.4405 45.1826C54.9629 45.6424 55.151 45.9768 55.2137 46.4574C55.151 46.5619 54.127 46.7709 54.127 46.7709ZM53.8762 46.2484C53.8971 46.2484 54.0852 46.541 54.1479 46.6873C54.3151 46.6455 55.0674 46.4783 55.1092 46.4574C55.0047 46.0395 54.8375 45.726 54.4196 45.2871L53.8762 46.2484Z" fill="black"/>
<path d="M52.0998 62.6532C52.0998 62.6532 53.312 61.2739 55.6526 61.5665C55.2973 60.9814 54.1479 61.065 54.1479 61.065C54.1479 61.065 53.7926 58.3691 54.0643 58.2437C54.336 58.1183 55.5063 58.2646 55.5063 58.2646C55.6526 58.2646 55.9243 57.8466 55.7153 57.5749C55.5063 57.3032 54.8793 56.3001 55.1301 56.0911C55.3809 55.903 56.7602 56.1956 56.7602 56.1956L52.894 51.2009C52.894 51.2009 52.4969 49.32 53.2911 48.4214C54.2524 47.6273 54.1479 46.7704 54.127 46.7704C54.0016 45.8927 52.6641 45.2657 51.7655 46.0808C51.243 46.7286 51.5774 47.2093 51.5774 47.2093C51.5774 47.2093 50.1772 47.5855 50.1354 47.8362C50.0727 48.087 51.7028 47.7945 51.7028 47.7945L51.5565 48.9021C51.5565 48.9021 48.4008 51.7861 50.825 54.273C50.8459 54.2521 50.9086 54.1685 50.9086 54.1685C50.9086 54.1685 51.7655 55.2134 52.6641 55.4433C53.5 56.3001 53.4373 56.1747 53.4373 56.1747C53.4373 56.1747 53.6045 57.5331 53.4373 57.8048C53.2284 57.7421 51.0758 57.6585 50.7623 57.7839C50.4698 57.8675 49.3622 57.8257 49.6338 59.623C49.8428 59.1423 50.0309 58.7034 50.0309 58.7034C50.0309 58.7034 49.9891 59.3513 50.2608 59.5812C50.219 58.8915 50.5116 58.4318 50.5116 58.4318C50.5116 58.4318 50.5743 59.1841 50.7415 59.2886C50.9086 59.3931 50.9086 58.0765 51.8282 58.181C52.7477 58.2855 53.4165 58.2646 53.4165 58.2646C53.4165 58.2646 53.7299 60.856 53.6254 61.1068C52.9567 60.9605 51.3893 61.1695 51.2848 61.5665C52.2043 61.5038 52.6432 61.6292 52.6432 61.6292C52.6432 61.6292 51.87 62.2771 52.0998 62.6532Z" fill="black"/>
<path d="M52.0998 62.7577L52.058 62.695C51.8282 62.3398 52.3715 61.7755 52.5387 61.6083C52.4342 61.6292 52.1834 61.5874 51.7446 61.5874C51.5983 61.5874 51.4311 61.5874 51.243 61.6083C51.2848 61.0441 52.9776 60.8978 53.6045 61.0441C53.6045 60.8978 53.4582 59.3304 53.3328 58.2855C53.2283 58.3273 52.5805 58.3064 51.7864 58.2228C51.1803 58.2228 51.0131 58.7452 50.9086 59.0587C50.8459 59.2468 50.825 59.3304 50.7414 59.3304C50.5533 59.2259 50.4906 58.7452 50.4489 58.5154C50.4071 58.6825 50.2608 59.0587 50.2817 59.5603C49.9264 59.3513 49.9473 58.7034 49.9473 58.6825L49.6547 59.623C49.2994 57.972 50.1563 57.8257 50.5742 57.7421C50.6369 57.7421 50.6787 57.7212 50.6996 57.7212C50.8459 57.6585 51.3057 57.6585 51.661 57.6585C52.3715 57.6585 53.2701 57.7003 53.3955 57.7421C53.4582 57.5749 53.3746 56.6554 53.3119 56.1956C53.291 56.1956 53.1448 56.0702 52.5596 55.4642C51.7237 55.2552 50.9295 54.3357 50.825 54.1894L50.8877 54.1058C50.8877 54.1058 51.7446 55.1507 52.6014 55.3806C53.2492 56.0284 53.3537 56.112 53.3746 56.112C53.4373 56.3837 53.5627 57.554 53.4164 57.8048C53.1239 57.7839 50.9713 57.7003 50.7205 57.8048C50.6787 57.8257 50.6369 57.8257 50.5742 57.8466C50.1563 57.9302 49.4039 58.0556 49.6338 59.6021L49.9264 58.6616C50.0309 58.6825 49.9891 59.3095 50.2399 59.5394C50.1145 58.8915 50.4071 58.4109 50.428 58.39C50.5533 58.7243 50.616 59.1632 50.7205 59.2468C50.7205 59.2259 50.7623 59.1214 50.7832 59.0378C50.8877 58.7034 51.0758 58.1183 51.661 58.1183C52.7477 58.2437 53.3328 58.2019 53.3537 58.2019C53.4373 58.5154 53.709 60.8769 53.6254 61.1277C53.4373 61.1277 53.2492 61.1068 53.0403 61.1068C52.2879 61.1068 51.3475 61.3157 51.2848 61.5874C51.4102 61.5038 51.5774 61.5038 51.7237 61.5038C52.3088 61.5038 52.5805 61.5665 52.6014 61.5665C52.4342 61.8173 52.0162 62.2771 52.0789 62.5696C52.3506 62.298 53.5418 61.2739 55.6108 61.5247C55.2764 61.1486 54.4614 61.1277 54.2106 61.1277L54.0434 61.0859C53.9598 60.438 53.709 58.3482 54.0016 58.2019C54.2524 58.0765 55.4854 58.2019 55.4854 58.2019C55.5272 58.2019 55.6108 58.1392 55.6735 58.0138C55.6944 57.9511 55.778 57.763 55.6526 57.5958C55.5063 57.4077 54.9629 56.5718 55.0047 56.1956C55.0047 56.1329 55.0465 56.0702 55.0883 56.0493C55.3391 55.8613 56.7184 56.1329 56.7602 56.1538L52.8104 51.2427C52.7895 51.1382 52.4133 49.2991 53.2074 48.3796C54.0852 47.6482 54.0643 46.8749 54.0434 46.7913C53.8971 45.9136 52.5387 45.412 51.7655 46.1017C51.2639 46.7077 51.5774 47.1466 51.5983 47.1675C50.9086 47.4392 50.1772 47.69 50.1563 47.8362C50.1563 47.8362 50.1981 47.878 50.428 47.878C50.8668 47.878 51.661 47.7318 51.6819 47.7318L51.5774 48.9021C51.5356 48.9439 49.9682 50.3859 49.9264 52.0995C49.9055 52.8728 50.1981 53.6042 50.825 54.2312C50.8459 54.3148 50.825 54.3148 50.8041 54.3148C50.0936 53.646 49.7801 52.8937 49.8219 52.0995C49.8846 50.365 51.4729 48.8812 51.4938 48.8603L51.6401 47.7945C51.5983 47.8571 50.8668 47.9825 50.428 47.9825C50.1772 47.9825 50.1145 47.9407 50.0936 47.8989C50.1354 47.5646 51.2639 47.2302 51.5356 47.1675C51.452 47.1257 51.2012 46.645 51.7028 46.0599C52.5387 45.3075 54.0016 45.8509 54.1479 46.7913C54.1897 46.9167 54.2106 47.7318 53.291 48.4841C52.5178 49.3618 52.9149 51.2009 52.9149 51.2218L56.802 56.1956C56.7393 56.2792 55.966 56.0911 55.4645 56.0911C55.2555 56.0911 55.1719 56.1329 55.151 56.1538C55.0674 56.5509 55.5481 57.3241 55.7362 57.554C55.8407 57.7003 55.8615 57.8884 55.7571 58.0765C55.6944 58.2019 55.5899 58.3273 55.4854 58.3273C55.4854 58.3273 54.942 58.2646 54.5031 58.2646C54.2315 58.2646 54.1061 58.2855 54.0643 58.3064C53.918 58.3691 54.0016 59.7902 54.1688 61.0859C54.5658 61.0441 55.36 61.0859 55.6526 61.5665C55.3809 61.6083 55.151 61.6083 54.9629 61.6083C53.103 61.6083 52.1207 62.7159 52.0998 62.7159V62.7577Z" fill="black"/>
<path d="M52.476 48.4634C52.476 48.4634 50.1772 51.013 51.1594 52.9356C51.2221 52.664 51.1803 52.4968 51.2221 52.4968C51.1594 52.455 51.5147 52.7267 51.4938 52.6849C51.4938 52.5386 51.3893 52.246 51.3893 52.246C51.4938 52.2669 51.5983 52.2878 51.7028 52.3296C51.6401 52.2251 51.5774 52.0997 51.5147 51.9952C51.661 52.0161 51.8073 52.037 51.9536 52.0579C51.9536 52.0579 51.8073 51.6399 51.8491 51.6399C51.9118 51.6399 52.2043 51.6608 52.2043 51.6608C51.5565 50.4905 52.1834 49.5083 52.476 48.4634Z" fill="#9BA49A"/>
<path d="M51.2011 53.1027L51.1384 52.9773C50.1353 51.0338 52.4341 48.4633 52.455 48.4424C52.4759 48.7141 52.4132 48.923 52.3296 49.132C52.0371 49.9471 51.7654 50.7412 52.2669 51.6607C52.2251 51.7443 51.9117 51.7025 51.849 51.7025C51.8908 51.7025 51.9535 51.8906 51.9953 52.0578L51.4937 52.0787L51.7236 52.3504L51.4519 52.3713V52.3504C51.4519 52.3504 51.5355 52.6012 51.5146 52.7266C51.4101 52.7893 51.1593 52.5803 51.1593 52.5803C51.222 52.7266 51.222 52.852 51.1802 52.9773L51.2011 53.1027ZM52.4132 48.4842C52.246 48.7977 50.407 51.0129 51.1384 52.7684C51.1384 52.7057 51.1384 52.6639 51.1593 52.6221L51.222 52.4758C51.3056 52.5176 51.4728 52.643 51.5146 52.6639C51.4519 52.6012 51.3892 52.3713 51.3474 52.2877L51.3056 52.2041L51.7236 52.3086L51.4937 52.0369L51.9953 52.016C51.7863 51.6816 51.8281 51.6398 51.8281 51.6189C51.9326 51.598 52.246 51.6189 52.246 51.6189C51.6609 50.7412 51.9535 49.9053 52.246 49.0902C52.2878 48.8812 52.3505 48.6932 52.4132 48.4842Z" fill="#9BA49A"/>
<path d="M53.2701 46.29C53.2701 46.29 53.3955 47.1678 52.9149 47.4186C52.8313 47.4812 52.5387 47.5648 52.5805 47.7529C52.6432 48.0037 52.7686 47.9619 52.9566 47.8992C53.4791 47.8156 54.0434 46.7498 53.2701 46.29Z" fill="#9BA49A"/>
<path d="M52.7685 48.0038C52.6431 48.0038 52.5804 47.9202 52.5386 47.7739C52.4968 47.6067 52.7058 47.4813 52.8312 47.4186C53.3537 47.147 53.2283 46.311 53.2283 46.311C53.6254 46.4573 53.7507 46.7499 53.6881 47.1261C53.6045 47.5231 53.291 47.9202 52.9775 47.9829C52.8939 47.9829 52.8312 48.0038 52.7685 48.0038ZM53.2701 46.3528C53.3537 46.4573 53.4164 47.2306 52.9566 47.4813C52.7476 47.5858 52.6222 47.6694 52.6431 47.753C52.6849 47.8993 52.7267 47.8993 52.7685 47.8993C52.8103 47.8993 52.873 47.8784 52.9148 47.8784C53.2074 47.8157 53.5 47.4604 53.5627 47.1052C53.6254 46.9171 53.6254 46.5827 53.2701 46.3528Z" fill="#9BA49A"/>
<path d="M52.4342 47.0426C52.4342 47.1471 52.3506 47.2307 52.2461 47.2307C52.1416 47.2307 52.058 47.1471 52.058 47.0426C52.058 46.9381 52.1416 46.8545 52.2461 46.8545C52.3506 46.8545 52.4342 46.9381 52.4342 47.0426Z" fill="white"/>
<path d="M51.6818 47.7739C51.5564 47.8784 50.9295 48.5472 51.5564 48.777C52.2043 48.589 52.0371 48.4845 52.1834 48.3382C52.1834 48.0456 51.849 47.962 51.6818 47.7739Z" fill="#CC2920"/>
<path d="M51.5565 48.8396C51.3684 48.7561 51.2639 48.6516 51.243 48.5262C51.2012 48.2127 51.5565 47.8365 51.661 47.7529C51.7864 47.8156 51.8491 47.8574 51.9327 47.9201C52.079 48.0246 52.2462 48.1291 52.2462 48.359L52.1835 48.4844C52.0999 48.6098 52.0372 48.7143 51.5565 48.8396ZM51.6401 47.8156C51.5983 47.9201 51.2848 48.2545 51.3266 48.5053C51.3475 48.6098 51.4102 48.6725 51.5565 48.7352C51.9954 48.6098 52.0163 48.5262 52.0581 48.4426C52.079 48.4008 52.0999 48.359 52.1417 48.3172C52.1208 48.1918 51.9954 48.0873 51.87 48.0037C51.7864 47.941 51.7028 47.8783 51.6401 47.8156Z" fill="black"/>
<path d="M53.0821 54.0435C53.0403 54.1897 52.9149 54.7122 53.103 55.1302C53.6672 54.9003 53.918 54.963 54.1061 55.0884C53.6463 54.7331 53.4791 54.5659 53.0821 54.0435Z" fill="#9BA49A"/>
<path d="M53.082 55.193L53.0611 55.1512C52.873 54.7541 52.9775 54.2525 53.0193 54.0645C53.0193 54.0645 53.0402 54.0644 53.0402 54.0853C53.082 54.2734 52.9775 54.7123 53.1238 55.0676C53.5209 54.9004 53.7926 54.8795 54.0225 54.984C53.5836 54.7332 53.4164 54.566 53.0402 54.0853C53.5209 54.5451 53.6881 54.6914 54.1269 55.0467C53.9598 55.0467 53.8553 55.0258 53.709 55.0258C53.5418 55.0258 53.3537 55.0676 53.1029 55.1721L53.082 55.193Z" fill="#9BA49A"/>
<path d="M54.0225 56.5723L54.0643 57.8053C54.0643 57.8053 54.5031 57.8889 54.6912 57.8053C54.9002 57.7217 54.6912 56.9484 54.0225 56.5723Z" fill="white"/>
<path d="M54.4404 57.8888C54.2523 57.8888 54.0433 57.847 54.0433 57.847L53.9597 56.5513C54.5658 56.8021 54.8166 57.3872 54.7957 57.6589C54.7957 57.7843 54.733 57.8261 54.6912 57.847C54.6494 57.8888 54.5658 57.8888 54.4404 57.8888ZM54.1687 57.7843C54.2941 57.7843 54.5658 57.8052 54.6703 57.7634C54.733 57.429 54.4822 56.9065 54.0015 56.614L54.106 57.7843C54.1269 57.7843 54.1478 57.7843 54.1687 57.7843Z" fill="white"/>
<path d="M57.1572 56.7185C57.1572 56.7185 56.3631 54.7958 54.315 54.3152C52.2879 53.8345 52.5387 51.6611 52.7059 51.5357C52.7895 51.3476 52.8522 51.055 53.4373 51.3476C54.0225 51.6193 56.7184 52.9777 57.1154 53.0613C57.5334 53.0822 57.199 56.7603 57.1572 56.7185Z" fill="#9BA49A"/>
<path d="M57.1572 56.781L57.1154 56.7392C57.0736 56.6557 56.2795 54.8166 54.315 54.3568C53.1656 54.0851 52.7477 53.291 52.6223 52.685C52.4969 52.1207 52.5805 51.5773 52.685 51.4937C52.7686 51.2639 52.9566 51.034 53.4791 51.2848L54.1479 51.6191C55.151 52.1207 56.8438 52.9357 57.1363 52.9984C57.4916 53.0611 57.3453 55.2346 57.2617 56.1541C57.2199 56.781 57.2199 56.781 57.1572 56.781ZM53.0611 51.2639C52.894 51.2639 52.8522 51.3683 52.7895 51.4937C52.7059 51.5982 52.5805 52.1207 52.7268 52.7267C52.8731 53.291 53.2492 54.0016 54.3359 54.2732C56.0496 54.6703 56.8856 56.0914 57.1363 56.5721C57.2199 55.9242 57.3871 53.5 57.1572 53.1238C56.8438 53.0402 55.4854 52.3924 54.1061 51.7236L53.4373 51.3892C53.291 51.2848 53.1656 51.2639 53.0611 51.2639Z" fill="black"/>
<path d="M55.2346 54.2943C55.1928 54.3152 57.9514 55.9244 57.1364 57.3037C57.9305 56.7813 57.6588 55.8826 57.6588 55.8826C57.6588 55.8826 58.3067 57.5545 56.7393 58.3695C56.9065 58.5158 57.011 58.474 57.011 58.474L56.7393 58.7457C56.7393 58.7457 56.6139 58.9547 57.6588 58.4322C57.3662 58.6621 57.3453 58.8293 57.3453 58.8293C57.3453 58.8293 57.4289 59.0592 58.1186 58.4531C57.5752 59.0592 57.4498 59.3518 57.4498 59.3518C58.9545 59.2264 62.1938 54.357 56.4258 52.915C56.7393 53.2285 56.6975 53.1867 56.6975 53.1867L55.2346 54.2943Z" fill="#CC2920"/>
<path d="M57.3662 59.4145L57.408 59.3309L57.4498 59.3518L57.408 59.31C57.4916 59.1428 57.6379 58.9547 57.8051 58.7248C57.6588 58.8502 57.5334 58.9129 57.4498 58.9129H57.408L57.3035 58.8293C57.3035 58.7875 57.3453 58.6203 57.6379 58.3695C57.199 58.683 56.9064 58.8084 56.7811 58.8084L56.6975 58.683L56.9273 58.4531C56.8646 58.474 56.7811 58.4531 56.6975 58.3695C57.6588 57.8053 57.7633 56.9484 57.7215 56.3842C57.7006 56.6768 57.5543 57.032 57.1572 57.3037C57.408 56.6977 57.3453 55.7781 55.3182 54.3779C55.1719 54.2734 55.1719 54.2734 55.1719 54.2525L56.6557 53.124L56.384 52.915C59.4978 53.5838 59.8322 55.2766 59.7695 56.217C59.6441 57.8262 58.2648 59.2891 57.4498 59.3518L57.3662 59.4145ZM58.0977 58.4113C57.8887 58.7666 57.6797 59.0592 57.5543 59.2891C58.3275 59.1219 59.5605 57.7426 59.665 56.2588C59.7904 54.6914 58.641 53.5211 56.4049 52.9777C56.7393 53.1867 56.7393 53.1867 56.7393 53.2285L55.2973 54.3152C55.3182 54.3152 55.3391 54.3361 55.36 54.357C57.0527 55.5273 57.6379 56.5305 57.1572 57.3455C57.826 56.7812 57.5961 55.9035 57.5961 55.9035C57.5961 55.9035 57.5961 55.9035 57.617 55.9035C57.6379 55.9035 57.6588 55.9453 57.6588 55.9871C57.826 56.3424 58.0977 57.7008 56.7393 58.4322C56.8438 58.4322 56.9273 58.4531 56.9691 58.4531V58.474C56.9691 58.474 56.9691 58.474 56.9482 58.4949L56.7602 58.8293C56.8229 58.7875 57.0109 58.7248 57.6379 58.4322C57.4289 58.7248 57.408 58.892 57.408 58.892C57.5125 58.8293 57.6797 58.7666 58.0977 58.4113Z" fill="black"/>
<path d="M55.3599 53.8134C55.7361 54.0851 55.8615 54.1687 55.9033 54.2941C55.5689 54.2105 55.2554 54.2314 55.2554 54.2314C55.2554 54.2314 54.524 53.5209 54.3777 53.4582C54.2732 53.4582 53.7089 53.1029 53.7089 53.1029C53.4164 52.9566 53.1656 51.9535 54.2105 52.2461C55.2972 52.7685 55.4644 52.8103 55.4644 52.8103C55.9033 52.9566 56.3421 53.082 56.7601 53.2283C57.0109 53.5 57.2617 53.7925 57.5125 54.0642C57.5125 54.0642 56.175 53.3955 56.0078 53.3955C56.363 53.6881 56.5929 54.106 56.5929 54.106C56.1541 54.0015 55.7988 53.8761 55.3599 53.8134Z" fill="white"/>
<path d="M55.9869 54.3779L55.9033 54.357C55.6944 54.3152 55.5063 54.2943 55.3809 54.2943L55.2346 54.2734C54.942 54.0018 54.4614 53.5629 54.3778 53.5211C54.2942 53.5211 53.8344 53.2494 53.6881 53.1449C53.5209 53.0613 53.3537 52.7269 53.4164 52.4553C53.4582 52.309 53.6672 52.0373 54.2315 52.2045C55.2973 52.7061 55.4854 52.7687 55.4854 52.7687L56.7811 53.1867L57.5543 54.0436C56.9692 53.8764 56.1123 53.4584 56.0078 53.4584C56.4049 53.6674 56.6348 54.0644 56.6348 54.0853L56.6975 54.1898L56.5094 54.1271C56.1332 54.0227 55.7989 53.9182 55.4018 53.8555L55.3809 53.751C55.7989 53.8137 56.1332 53.9182 56.5303 54.0227C56.4676 53.9391 56.2795 53.6674 56.0078 53.4375C56.2168 53.3539 57.4289 53.96 57.5752 54.0227L57.1363 53.6883L56.7602 53.2703L55.4854 52.8732C55.4645 52.8732 55.2973 52.8105 54.2106 52.309C53.8553 52.2254 53.5836 52.2672 53.5209 52.4971C53.4791 52.706 53.6045 52.9986 53.7299 53.0613C54.0016 53.2285 54.3151 53.4166 54.3778 53.4166C54.5449 53.4793 55.2137 54.1271 55.2973 54.1898C55.4645 54.1689 55.6317 54.1898 55.8198 54.2107C55.7571 54.1271 55.6317 54.0435 55.4018 53.8764V53.8555C55.7989 54.0436 55.9242 54.1271 55.966 54.2525L55.9869 54.3779Z" fill="black"/>
<path d="M50.1354 47.8781C50.1354 47.8781 51.4102 47.5646 51.5774 47.6064L50.1354 47.8781Z" fill="black"/>
<path d="M50.1563 47.9199L50.1354 47.8154C50.3444 47.7527 51.4311 47.5019 51.5983 47.5437C51.4729 47.6273 50.6787 47.7945 50.1563 47.9199Z" fill="white"/>
</svg>
