<svg width="107" height="107" viewBox="0 0 107 107" fill="none" xmlns="http://www.w3.org/2000/svg">
<path d="M107 22.2986H0V84.7222H107V22.2986Z" fill="#CB2127"/>
<path d="M10.3029 44.8898L12.3092 38.6621L7.02185 34.7958L13.5631 34.775L15.6111 28.5681L17.6383 34.775L24.1795 34.7958L18.8922 38.6621L20.8984 44.8898L15.6111 41.0445L10.3029 44.8898Z" fill="#F7DE28"/>
<path d="M28.5473 48.2544L30.7625 49.1321L32.2881 47.314L32.1209 49.6964L34.3362 50.595L32.0165 51.1802L31.8493 53.5417L30.5745 51.5355L28.2756 52.0997L29.8012 50.2606L28.5473 48.2544Z" fill="#F7DE28"/>
<path d="M40.5012 36.2795L38.1606 35.8825L37.0321 37.9723L36.6977 35.6108L34.3571 35.1928L36.4887 34.1479L36.1543 31.7864L37.8262 33.5L39.9578 32.4551L38.8502 34.5659L40.5012 36.2795Z" fill="#F7DE28"/>
<path d="M35.5274 46.9378L36.2588 44.6808L34.3362 43.2806H36.7186L37.45 41.0027L38.1815 43.2806H40.5639L38.6413 44.6808L39.3727 46.9378L37.45 45.5585L35.5274 46.9378Z" fill="#F7DE28"/>
<path d="M28.6518 26.2692L30.8252 27.2514L32.4553 25.5168L32.1627 27.8784L34.3153 28.9024L31.9746 29.3622L31.6821 31.7237L30.5326 29.6338L28.192 30.0936L29.8012 28.3381L28.6518 26.2692Z" fill="#F7DE28"/>
</svg>
